<svg viewBox="0 0 150 150" fill="none" xmlns="http://www.w3.org/2000/svg">
<circle cx="75" cy="75" r="75" fill="#1E1E1E"/>
<rect x="92.2711" y="86.1346" width="23.6565" height="23.6565" transform="rotate(135 92.2711 86.1346)" stroke="#14BB88" stroke-width="8.84211"/>
<path fill-rule="evenodd" clip-rule="evenodd" d="M75.5344 47.2266L39.5657 83.1954L75.5345 119.164L111.503 83.1953L75.5344 47.2266ZM33.3134 76.943L27.0611 83.1954L33.3134 89.4477L69.2821 125.416L75.5345 131.669L81.7868 125.416L117.755 89.4477L124.008 83.1953L117.755 76.943L81.7868 40.9743L75.5344 34.722L69.2821 40.9743L33.3134 76.943ZM75.544 30.5454L65.0686 41.0207L75.544 51.496L86.0193 41.0207L75.544 30.5454ZM58.8163 34.7684L52.564 41.0207L58.8163 47.273L69.2917 57.7483L75.544 64.0006L81.7963 57.7483L92.2716 47.273L98.5239 41.0207L92.2716 34.7684L81.7963 24.293L75.544 18.0407L69.2917 24.293L58.8163 34.7684Z" fill="#14BB88"/>
</svg>
