<?xml version="1.0" standalone="no"?>
<!DOCTYPE svg PUBLIC "-//W3C//DTD SVG 1.1//EN" "http://www.w3.org/Graphics/SVG/1.1/DTD/svg11.dtd" >
<svg xmlns="http://www.w3.org/2000/svg" xmlns:xlink="http://www.w3.org/1999/xlink" version="1.1">
<metadata>
Created by FontForge 20190801 at Sat Feb 22 17:45:23 2020
 By Jimmy Wärting
Copyright 2020 The Plus Jakarta Display Project Authors \(https://github.com/tokotype/PlusJakartaSans\)
</metadata>
<defs>
<font id="PlusJakartaDisplay-Regular" horiz-adv-x="0" >
  <font-face 
    font-family="Plus Jakarta Display"
    font-weight="400"
    font-stretch="normal"
    units-per-em="1000"
    panose-1="0 0 5 0 0 0 0 0 0 0"
    ascent="800"
    descent="-200"
    x-height="530"
    cap-height="745"
    bbox="-694 -240 1203 1045"
    underline-thickness="66"
    underline-position="-220"
    stemh="83"
    stemv="94"
    unicode-range="U+000D-FB02"
  />
<missing-glyph horiz-adv-x="640" 
d="M60 675v70h520v-70h-520zM60 450v70h520v-70h-520zM60 225v70h520v-70h-520zM60 0v70h520v-70h-520z" />
    <glyph glyph-name="fi" unicode="fi" horiz-adv-x="565" 
d="M119 0v448h-103v82h103v48c0 114 78 176 174 176c16 0 40 -2 52 -5v-76c-11 2 -33 3 -42 3c-58 0 -98 -33 -98 -98v-48h126v-82h-126v-448h-86zM421 628v117h86v-117h-86zM421 0v530h86v-530h-86z" />
    <glyph glyph-name="fl" unicode="fl" horiz-adv-x="581" 
d="M119 0v448h-103v82h103v48c0 114 78 176 174 176c16 0 40 -2 52 -5v-76c-11 2 -33 3 -42 3c-58 0 -98 -33 -98 -98v-48h126v-82h-126v-448h-86zM429 0v745h86v-745h-86z" />
    <glyph glyph-name=".notdef" horiz-adv-x="640" 
d="M60 675v70h520v-70h-520zM60 450v70h520v-70h-520zM60 225v70h520v-70h-520zM60 0v70h520v-70h-520z" />
    <glyph glyph-name="NULL" 
 />
    <glyph glyph-name="NULL" 
 />
    <glyph glyph-name="CR" unicode="&#xd;" horiz-adv-x="172" 
 />
    <glyph glyph-name="space" unicode=" " horiz-adv-x="172" 
 />
    <glyph glyph-name="A" unicode="A" horiz-adv-x="691" 
d="M400 745l270 -745h-100l-62 178h-325l-62 -178h-100l270 745h109zM212 261h267l-133 381z" />
    <glyph glyph-name="A.ss02" horiz-adv-x="699" 
d="M404 745l270 -745h-100l-62 178h-325l-62 -178h-100l241 663h-131v82h269zM216 261h267l-133 382z" />
    <glyph glyph-name="Aacute" unicode="&#xc1;" horiz-adv-x="691" 
d="M474 1001l-92 -154h-71l76 154h87zM400 745l270 -745h-100l-62 178h-325l-62 -178h-100l270 745h109zM212 261h267l-133 381z" />
    <glyph glyph-name="Acircumflex" unicode="&#xc2;" horiz-adv-x="691" 
d="M346 956l-79 -109h-77l114 154h84l116 -154h-77zM400 745l270 -745h-100l-62 178h-325l-62 -178h-100l270 745h109zM212 261h267l-133 381z" />
    <glyph glyph-name="Adieresis" unicode="&#xc4;" horiz-adv-x="691" 
d="M257 847c-35 0 -62 27 -62 62c0 34 27 61 62 61c34 0 61 -27 61 -61c0 -35 -27 -62 -61 -62zM435 847c-35 0 -62 27 -62 62c0 34 27 61 62 61c33 0 62 -27 62 -61s-28 -62 -62 -62zM400 745l270 -745h-100l-62 178h-325l-62 -178h-100l270 745h109zM212 261h267l-133 381
z" />
    <glyph glyph-name="Agrave" unicode="&#xc0;" horiz-adv-x="691" 
d="M384 847h-71l-92 154h88zM400 745l270 -745h-100l-62 178h-325l-62 -178h-100l270 745h109zM212 261h267l-133 381z" />
    <glyph glyph-name="Aring" unicode="&#xc5;" horiz-adv-x="691" 
d="M346 847c-57 0 -102 44 -102 99s44 99 102 99s103 -44 103 -99c0 -54 -45 -99 -103 -99zM346 991c-27 0 -47 -20 -47 -45s21 -46 47 -46c27 0 48 21 48 46s-21 45 -48 45zM400 745l270 -745h-100l-62 178h-325l-62 -178h-100l270 745h109zM212 261h267l-133 381z" />
    <glyph glyph-name="Atilde" unicode="&#xc3;" horiz-adv-x="691" 
d="M284 892c-16 0 -34 -9 -37 -39h-67c4 68 52 103 102 103c58 0 86 -45 127 -45c16 0 35 10 38 40h66c-5 -69 -50 -104 -101 -104c-61 0 -87 45 -128 45zM400 745l270 -745h-100l-62 178h-325l-62 -178h-100l270 745h109zM212 261h267l-133 381z" />
    <glyph glyph-name="AE" unicode="&#xc6;" horiz-adv-x="995" 
d="M21 0l270 745h648v-83h-389v-247h369v-83h-369v-249h389v-83h-484v178h-272l-62 -178h-100zM212 261h243v401h-102z" />
    <glyph glyph-name="B" unicode="B" horiz-adv-x="672" 
d="M527 401c71 -39 107 -106 107 -183c0 -135 -96 -218 -247 -218h-311v745h311c132 0 217 -76 217 -193c0 -63 -27 -116 -77 -151zM171 663v-226h213c74 0 122 45 122 113s-48 113 -122 113h-213zM391 83c87 0 145 54 145 135c0 82 -58 136 -145 136h-220v-271h220z" />
    <glyph glyph-name="C" unicode="C" horiz-adv-x="766" 
d="M417 -12c-211 0 -366 162 -366 384c0 223 154 385 366 385c153 0 265 -92 303 -189l-85 -41c-35 87 -113 146 -218 146c-159 0 -271 -124 -271 -301s112 -300 271 -300c105 0 183 58 218 145l85 -41c-38 -97 -150 -188 -303 -188z" />
    <glyph glyph-name="Ccedilla" unicode="&#xc7;" horiz-adv-x="766" 
d="M417 72c105 0 183 58 218 145l85 -41c-32 -83 -119 -161 -238 -182c44 -27 69 -64 69 -106c0 -62 -54 -95 -114 -95c-39 0 -81 14 -116 46l28 46c18 -19 49 -33 81 -33c35 0 57 19 57 50c0 30 -22 61 -70 86c-211 0 -366 162 -366 384c0 223 154 385 366 385
c153 0 265 -92 303 -189l-85 -41c-35 87 -113 146 -218 146c-159 0 -271 -124 -271 -301s112 -300 271 -300z" />
    <glyph glyph-name="D" unicode="D" horiz-adv-x="743" 
d="M76 0v745h245c225 0 371 -147 371 -372c0 -224 -146 -373 -371 -373h-245zM171 83h150c166 0 273 115 273 290s-108 289 -273 289h-150v-579z" />
    <glyph glyph-name="Eth" unicode="&#xd0;" horiz-adv-x="743" 
d="M76 0v332h-117v82h117v331h245c225 0 371 -147 371 -372c0 -224 -146 -373 -371 -373h-245zM171 83h150c166 0 273 115 273 290s-108 289 -273 289h-150v-248h195v-82h-195v-249z" />
    <glyph glyph-name="E" unicode="E" horiz-adv-x="616" 
d="M76 0v745h484v-83h-389v-247h369v-83h-369v-249h389v-83h-484z" />
    <glyph glyph-name="E.ss02" horiz-adv-x="688" 
d="M186 0v663h-110v82h556v-82h-350v-249h330v-82h-330v-250h350v-82h-446z" />
    <glyph glyph-name="Eacute" unicode="&#xc9;" horiz-adv-x="616" 
d="M274 847l76 154h87l-92 -154h-71zM76 0v745h484v-83h-389v-247h369v-83h-369v-249h389v-83h-484z" />
    <glyph glyph-name="Ecircumflex" unicode="&#xca;" horiz-adv-x="616" 
d="M266 1001h84l116 -154h-77l-81 109l-79 -109h-77zM76 0v745h484v-83h-389v-247h369v-83h-369v-249h389v-83h-484z" />
    <glyph glyph-name="Edieresis" unicode="&#xcb;" horiz-adv-x="616" 
d="M219 847c-35 0 -62 27 -62 62c0 34 27 61 62 61c34 0 61 -27 61 -61c0 -35 -27 -62 -61 -62zM397 847c-35 0 -62 27 -62 62c0 34 27 61 62 61c33 0 62 -27 62 -61s-28 -62 -62 -62zM76 0v745h484v-83h-389v-247h369v-83h-369v-249h389v-83h-484z" />
    <glyph glyph-name="Egrave" unicode="&#xc8;" horiz-adv-x="616" 
d="M346 847h-71l-92 154h88zM76 0v745h484v-83h-389v-247h369v-83h-369v-249h389v-83h-484z" />
    <glyph glyph-name="F" unicode="F" horiz-adv-x="598" 
d="M76 0v745h486v-83h-391v-251h365v-83h-365v-328h-95z" />
    <glyph glyph-name="F.ss02" horiz-adv-x="668" 
d="M186 0v663h-110v82h556v-82h-350v-253h324v-82h-324v-328h-96z" />
    <glyph glyph-name="G" unicode="G" horiz-adv-x="786" 
d="M427 -12c-216 0 -376 165 -376 384s158 385 366 385c141 0 260 -78 303 -189l-85 -41c-37 91 -116 146 -218 146c-159 0 -271 -125 -271 -301c0 -177 114 -300 281 -300c104 0 190 48 223 126v110h-224v83h314v-203c-42 -119 -162 -200 -313 -200z" />
    <glyph glyph-name="G.ss02" horiz-adv-x="794" 
d="M410 391h338v-391h-84v113c-58 -86 -149 -125 -245 -125c-211 0 -368 163 -368 385c0 220 154 384 366 384c150 0 265 -90 303 -189l-85 -41c-36 89 -114 146 -218 146c-158 0 -271 -125 -271 -300c0 -178 115 -301 274 -301c122 0 239 71 243 237h-253v82z" />
    <glyph glyph-name="G.ss03" horiz-adv-x="806" 
d="M760 356c2 -260 -167 -368 -342 -368c-212 0 -367 162 -367 384c0 223 154 384 366 384c153 0 265 -91 303 -188l-85 -41c-35 87 -113 145 -218 145c-159 0 -271 -123 -271 -300s112 -300 272 -300c118 0 237 67 242 239h-286v81h386v-36z" />
    <glyph glyph-name="H" unicode="H" horiz-adv-x="720" 
d="M76 0v745h95v-348h378v348h95v-745h-95v314h-378v-314h-95z" />
    <glyph glyph-name="I" unicode="I" horiz-adv-x="247" 
d="M76 0v745h95v-745h-95z" />
    <glyph glyph-name="I.ss02" horiz-adv-x="395" 
d="M40 0v83h110v579h-110v83h316v-83h-110v-579h110v-83h-316z" />
    <glyph glyph-name="Iacute" unicode="&#xcd;" horiz-adv-x="247" 
d="M89 847l76 154h87l-92 -154h-71zM76 0v745h95v-745h-95z" />
    <glyph glyph-name="Icircumflex" unicode="&#xce;" horiz-adv-x="247" 
d="M81 1001h84l116 -154h-77l-81 109l-79 -109h-77zM76 0v745h95v-745h-95z" />
    <glyph glyph-name="Idieresis" unicode="&#xcf;" horiz-adv-x="247" 
d="M35 847c-35 0 -62 27 -62 62c0 34 27 61 62 61c34 0 61 -27 61 -61c0 -35 -27 -62 -61 -62zM213 847c-35 0 -62 27 -62 62c0 34 27 61 62 61c33 0 62 -27 62 -61s-28 -62 -62 -62zM76 0v745h95v-745h-95z" />
    <glyph glyph-name="Igrave" unicode="&#xcc;" horiz-adv-x="247" 
d="M161 847h-71l-92 154h88zM76 0v745h95v-745h-95z" />
    <glyph glyph-name="J" unicode="J" horiz-adv-x="350" 
d="M26 0v92h37c71 0 116 46 116 119v534h95v-533c0 -130 -82 -212 -211 -212h-37z" />
    <glyph glyph-name="J.ss03" horiz-adv-x="568" 
d="M264 -12c-138 0 -215 88 -236 208l88 26c19 -92 63 -150 148 -150c80 0 133 56 133 141v532h95v-532c0 -135 -91 -225 -228 -225z" />
    <glyph glyph-name="K" unicode="K" horiz-adv-x="655" 
d="M354 468l285 -468h-110l-238 395l-120 -135v-260h-95v745h95v-355l316 355h112z" />
    <glyph glyph-name="K.ss03" horiz-adv-x="697" 
d="M656 76h25v-82h-25c-105 0 -146 36 -217 154l-149 247l-119 -135v-260h-95v745h95v-355l316 355h112l-245 -277l188 -307c39 -64 58 -85 114 -85z" />
    <glyph glyph-name="L" unicode="L" horiz-adv-x="538" 
d="M76 0v745h95v-662h331v-83h-426z" />
    <glyph glyph-name="Lslash" unicode="&#x141;" horiz-adv-x="538" 
d="M76 0v316l-141 -38v82l141 38v347h95v-322l139 37v-82l-139 -37v-258h331v-83h-426z" />
    <glyph glyph-name="M" unicode="M" horiz-adv-x="836" 
d="M674 745h86v-745h-95v567l-243 -345h-8l-243 349v-571h-95v745h86l256 -365z" />
    <glyph glyph-name="N" unicode="N" horiz-adv-x="722" 
d="M551 745h95v-745h-80l-395 567v-567h-95v745h80l395 -563v563z" />
    <glyph glyph-name="Ntilde" unicode="&#xd1;" horiz-adv-x="722" 
d="M299 892c-16 0 -34 -9 -37 -39h-67c4 68 52 103 102 103c58 0 86 -45 127 -45c16 0 35 10 38 40h66c-5 -69 -50 -104 -101 -104c-61 0 -87 45 -128 45zM551 745h95v-745h-80l-395 567v-567h-95v745h80l395 -563v563z" />
    <glyph glyph-name="O" unicode="O" horiz-adv-x="857" 
d="M428 -12c-210 0 -377 161 -377 385c0 223 167 384 377 384c211 0 378 -162 378 -384c0 -223 -167 -385 -378 -385zM428 76c165 0 283 131 283 297c0 164 -117 296 -283 296c-165 0 -282 -132 -282 -296c0 -166 118 -297 282 -297z" />
    <glyph glyph-name="Oacute" unicode="&#xd3;" horiz-adv-x="857" 
d="M394 847l76 154h87l-92 -154h-71zM428 -12c-210 0 -377 161 -377 385c0 223 167 384 377 384c211 0 378 -162 378 -384c0 -223 -167 -385 -378 -385zM428 76c165 0 283 131 283 297c0 164 -117 296 -283 296c-165 0 -282 -132 -282 -296c0 -166 118 -297 282 -297z" />
    <glyph glyph-name="Ocircumflex" unicode="&#xd4;" horiz-adv-x="857" 
d="M386 1001h84l116 -154h-77l-81 109l-79 -109h-77zM428 -12c-210 0 -377 161 -377 385c0 223 167 384 377 384c211 0 378 -162 378 -384c0 -223 -167 -385 -378 -385zM428 76c165 0 283 131 283 297c0 164 -117 296 -283 296c-165 0 -282 -132 -282 -296
c0 -166 118 -297 282 -297z" />
    <glyph glyph-name="Odieresis" unicode="&#xd6;" horiz-adv-x="857" 
d="M340 847c-35 0 -62 27 -62 62c0 34 27 61 62 61c34 0 61 -27 61 -61c0 -35 -27 -62 -61 -62zM518 847c-35 0 -62 27 -62 62c0 34 27 61 62 61c33 0 62 -27 62 -61s-28 -62 -62 -62zM428 -12c-210 0 -377 161 -377 385c0 223 167 384 377 384c211 0 378 -162 378 -384
c0 -223 -167 -385 -378 -385zM428 76c165 0 283 131 283 297c0 164 -117 296 -283 296c-165 0 -282 -132 -282 -296c0 -166 118 -297 282 -297z" />
    <glyph glyph-name="Ograve" unicode="&#xd2;" horiz-adv-x="857" 
d="M466 847h-71l-92 154h88zM428 -12c-210 0 -377 161 -377 385c0 223 167 384 377 384c211 0 378 -162 378 -384c0 -223 -167 -385 -378 -385zM428 76c165 0 283 131 283 297c0 164 -117 296 -283 296c-165 0 -282 -132 -282 -296c0 -166 118 -297 282 -297z" />
    <glyph glyph-name="Oslash" unicode="&#xd8;" horiz-adv-x="857" 
d="M727 614c49 -65 79 -148 79 -241c0 -223 -167 -385 -378 -385c-92 0 -177 31 -242 85l-77 -77l-58 57l79 79c-50 64 -79 147 -79 241c0 223 167 384 377 384c93 0 177 -31 242 -85l78 77l57 -57zM146 373c0 -66 18 -126 51 -174l409 408c-48 39 -109 62 -178 62
c-165 0 -282 -132 -282 -296zM428 76c165 0 283 131 283 297c0 65 -18 125 -51 174l-409 -409c47 -39 108 -62 177 -62z" />
    <glyph glyph-name="Otilde" unicode="&#xd5;" horiz-adv-x="857" 
d="M494 847c-61 0 -87 45 -128 45c-16 0 -34 -9 -37 -39h-67c4 68 52 103 102 103c58 0 86 -45 127 -45c16 0 35 10 38 40h66c-5 -69 -50 -104 -101 -104zM428 -12c-210 0 -377 161 -377 385c0 223 167 384 377 384c211 0 378 -162 378 -384c0 -223 -167 -385 -378 -385z
M428 76c165 0 283 131 283 297c0 164 -117 296 -283 296c-165 0 -282 -132 -282 -296c0 -166 118 -297 282 -297z" />
    <glyph glyph-name="OE" unicode="&#x152;" horiz-adv-x="1259" 
d="M1203 662h-389v-247h369v-83h-369v-249h389v-83h-484v123c-69 -84 -173 -135 -291 -135c-210 0 -377 161 -377 385c0 223 167 384 377 384c118 0 223 -51 291 -135v123h484v-83zM428 76c165 0 283 131 283 297c0 164 -117 296 -283 296c-165 0 -282 -132 -282 -296
c0 -166 118 -297 282 -297z" />
    <glyph glyph-name="P" unicode="P" horiz-adv-x="639" 
d="M76 0v745h266c152 0 256 -90 256 -230c0 -139 -103 -229 -256 -229h-171v-286h-95zM171 369h171c95 0 158 59 158 147c0 87 -63 146 -158 146h-171v-293z" />
    <glyph glyph-name="Thorn" unicode="&#xde;" horiz-adv-x="639" 
d="M76 0v745h95v-141h171c152 0 256 -90 256 -230s-103 -229 -256 -229h-171v-145h-95zM171 228h171c95 0 158 58 158 147c0 87 -63 146 -158 146h-171v-293z" />
    <glyph glyph-name="Q" unicode="Q" horiz-adv-x="857" 
d="M806 373c0 -142 -68 -259 -171 -326l101 -177h-104l-77 139c-40 -14 -82 -21 -127 -21c-210 0 -377 161 -377 385c0 223 167 384 377 384c211 0 378 -162 378 -384zM428 76c29 0 57 4 82 12l-117 210h98l99 -172c75 53 121 143 121 247c0 164 -117 296 -283 296
c-165 0 -282 -132 -282 -296c0 -166 118 -297 282 -297z" />
    <glyph glyph-name="Q.ss03" horiz-adv-x="854" 
d="M465 -10c12 -69 72 -113 159 -113h120v-82h-120c-138 0 -234 78 -247 196c-185 24 -326 176 -326 382c0 223 166 384 377 384s378 -162 378 -384c0 -210 -148 -366 -341 -383zM146 373c0 -166 117 -297 282 -297s283 131 283 297c0 164 -117 296 -283 296
c-165 0 -282 -132 -282 -296z" />
    <glyph glyph-name="R" unicode="R" horiz-adv-x="664" 
d="M76 0v745h266c152 0 256 -90 256 -230c0 -103 -56 -180 -149 -212l174 -303h-110l-162 286h-180v-286h-95zM171 369h171c95 0 158 59 158 147c0 87 -63 146 -158 146h-171v-293z" />
    <glyph glyph-name="R.ss03" horiz-adv-x="679" 
d="M499 336c66 -18 91 -55 91 -136v-200h-96v196c0 63 -25 90 -83 90h-240v-286h-95v745h266c151 0 256 -91 256 -230c0 -82 -32 -137 -99 -179zM342 369c95 0 158 59 158 147c0 87 -63 146 -158 146h-171v-293h171z" />
    <glyph glyph-name="S" unicode="S" horiz-adv-x="633" 
d="M336 -12c-146 0 -259 89 -295 202l84 37c35 -102 112 -156 211 -156c94 0 156 48 156 117c0 63 -36 97 -110 119l-139 42c-119 35 -179 110 -179 202c0 121 100 206 243 206c137 0 240 -81 274 -180l-83 -39c-31 88 -99 136 -190 136c-90 0 -149 -47 -149 -117
c0 -57 39 -101 112 -122l133 -40c122 -37 183 -100 183 -200c0 -123 -102 -207 -251 -207z" />
    <glyph glyph-name="Scaron" unicode="&#x160;" horiz-adv-x="633" 
d="M274 847l-114 154h77l79 -109l81 109h77l-116 -154h-84zM336 -12c-146 0 -259 89 -295 202l84 37c35 -102 112 -156 211 -156c94 0 156 48 156 117c0 63 -36 97 -110 119l-139 42c-119 35 -179 110 -179 202c0 121 100 206 243 206c137 0 240 -81 274 -180l-83 -39
c-31 88 -99 136 -190 136c-90 0 -149 -47 -149 -117c0 -57 39 -101 112 -122l133 -40c122 -37 183 -100 183 -200c0 -123 -102 -207 -251 -207z" />
    <glyph glyph-name="T" unicode="T" horiz-adv-x="561" 
d="M234 0v662h-203v83h499v-83h-201v-662h-95z" />
    <glyph glyph-name="U" unicode="U" horiz-adv-x="698" 
d="M526 745h96v-502c0 -152 -108 -255 -273 -255s-273 102 -273 255v502h96v-502c0 -99 75 -171 177 -171c101 0 177 72 177 171v502z" />
    <glyph glyph-name="U.ss01" horiz-adv-x="668" 
d="M76 0v745h95v-662h326v662h95v-745h-516z" />
    <glyph glyph-name="Uacute" unicode="&#xda;" horiz-adv-x="698" 
d="M314 847l76 154h87l-92 -154h-71zM526 745h96v-502c0 -152 -108 -255 -273 -255s-273 102 -273 255v502h96v-502c0 -99 75 -171 177 -171c101 0 177 72 177 171v502z" />
    <glyph glyph-name="Ucircumflex" unicode="&#xdb;" horiz-adv-x="698" 
d="M307 1001h84l116 -154h-77l-81 109l-79 -109h-77zM526 745h96v-502c0 -152 -108 -255 -273 -255s-273 102 -273 255v502h96v-502c0 -99 75 -171 177 -171c101 0 177 72 177 171v502z" />
    <glyph glyph-name="Udieresis" unicode="&#xdc;" horiz-adv-x="698" 
d="M260 847c-35 0 -62 27 -62 62c0 34 27 61 62 61c34 0 61 -27 61 -61c0 -35 -27 -62 -61 -62zM438 847c-35 0 -62 27 -62 62c0 34 27 61 62 61c33 0 62 -27 62 -61s-28 -62 -62 -62zM526 745h96v-502c0 -152 -108 -255 -273 -255s-273 102 -273 255v502h96v-502
c0 -99 75 -171 177 -171c101 0 177 72 177 171v502z" />
    <glyph glyph-name="Ugrave" unicode="&#xd9;" horiz-adv-x="698" 
d="M387 847h-71l-92 154h88zM526 745h96v-502c0 -152 -108 -255 -273 -255s-273 102 -273 255v502h96v-502c0 -99 75 -171 177 -171c101 0 177 72 177 171v502z" />
    <glyph glyph-name="V" unicode="V" horiz-adv-x="686" 
d="M563 745h102l-266 -745h-112l-266 745h102l220 -637z" />
    <glyph glyph-name="W" unicode="W" horiz-adv-x="1034" 
d="M906 745h97l-208 -745h-109l-169 623l-170 -623h-108l-208 745h99l167 -621l164 621h114l164 -619z" />
    <glyph glyph-name="X" unicode="X" horiz-adv-x="638" 
d="M607 0h-105l-183 295l-184 -295h-104l235 379l-229 366h106l176 -283l175 283h106l-229 -366z" />
    <glyph glyph-name="Y" unicode="Y" horiz-adv-x="653" 
d="M527 745h105l-257 -403v-342h-95v342l-259 403h105l201 -314z" />
    <glyph glyph-name="Yacute" unicode="&#xdd;" horiz-adv-x="653" 
d="M455 1001l-92 -154h-71l76 154h87zM527 745h105l-257 -403v-342h-95v342l-259 403h105l201 -314z" />
    <glyph glyph-name="Ydieresis" unicode="&#x178;" horiz-adv-x="653" 
d="M238 847c-35 0 -62 27 -62 62c0 34 27 61 62 61c34 0 61 -27 61 -61c0 -35 -27 -62 -61 -62zM416 847c-35 0 -62 27 -62 62c0 34 27 61 62 61c33 0 62 -27 62 -61s-28 -62 -62 -62zM527 745h105l-257 -403v-342h-95v342l-259 403h105l201 -314z" />
    <glyph glyph-name="Z" unicode="Z" horiz-adv-x="591" 
d="M145 83h420v-83h-539v64l412 598h-388v83h506v-64z" />
    <glyph glyph-name="Zcaron" unicode="&#x17d;" horiz-adv-x="591" 
d="M259 819l-114 154h77l79 -109l81 109h77l-116 -154h-84zM145 83h420v-83h-539v64l412 598h-388v83h506v-64z" />
    <glyph glyph-name="a" unicode="a" horiz-adv-x="522" 
d="M270 542c121 0 206 -75 206 -183v-359h-84v74c-36 -53 -99 -86 -167 -86c-113 0 -189 66 -189 159c0 78 63 132 170 156l184 41v15c0 61 -50 101 -120 101c-64 0 -114 -34 -137 -86l-77 40c30 72 116 128 214 128zM230 65c93 0 160 70 160 163v46l-164 -38
c-60 -13 -99 -46 -99 -89c0 -50 40 -82 103 -82z" />
    <glyph glyph-name="a.ss01" horiz-adv-x="542" 
d="M89 530h387v-530h-84v74c-36 -53 -99 -86 -167 -86c-113 0 -189 66 -189 159c0 78 63 132 170 156l184 41v104h-301v82zM230 65c93 0 160 70 160 163v46l-164 -38c-60 -13 -99 -46 -99 -89c0 -50 40 -82 103 -82z" />
    <glyph glyph-name="a.ss02" horiz-adv-x="573" 
d="M476 79h71v-79h-155v74c-36 -53 -99 -86 -167 -86c-113 0 -189 66 -189 159c0 78 63 132 170 156l184 41v15c0 61 -50 101 -120 101c-64 0 -114 -34 -137 -86l-77 40c30 72 116 128 214 128c121 0 206 -75 206 -183v-280zM230 65c93 0 160 70 160 163v46l-164 -38
c-60 -13 -99 -46 -99 -89c0 -50 40 -82 103 -82z" />
    <glyph glyph-name="aacute" unicode="&#xe1;" horiz-adv-x="522" 
d="M391 786l-92 -154h-71l76 154h87zM270 542c121 0 206 -75 206 -183v-359h-84v74c-36 -53 -99 -86 -167 -86c-113 0 -189 66 -189 159c0 78 63 132 170 156l184 41v15c0 61 -50 101 -120 101c-64 0 -114 -34 -137 -86l-77 40c30 72 116 128 214 128zM230 65
c93 0 160 70 160 163v46l-164 -38c-60 -13 -99 -46 -99 -89c0 -50 40 -82 103 -82z" />
    <glyph glyph-name="acircumflex" unicode="&#xe2;" horiz-adv-x="522" 
d="M263 741l-79 -109h-77l114 154h84l116 -154h-77zM270 542c121 0 206 -75 206 -183v-359h-84v74c-36 -53 -99 -86 -167 -86c-113 0 -189 66 -189 159c0 78 63 132 170 156l184 41v15c0 61 -50 101 -120 101c-64 0 -114 -34 -137 -86l-77 40c30 72 116 128 214 128zM230 65
c93 0 160 70 160 163v46l-164 -38c-60 -13 -99 -46 -99 -89c0 -50 40 -82 103 -82z" />
    <glyph glyph-name="adieresis" unicode="&#xe4;" horiz-adv-x="522" 
d="M174 632c-35 0 -62 27 -62 62c0 34 27 61 62 61c34 0 61 -27 61 -61c0 -35 -27 -62 -61 -62zM352 632c-35 0 -62 27 -62 62c0 34 27 61 62 61c33 0 62 -27 62 -61s-28 -62 -62 -62zM270 542c121 0 206 -75 206 -183v-359h-84v74c-36 -53 -99 -86 -167 -86
c-113 0 -189 66 -189 159c0 78 63 132 170 156l184 41v15c0 61 -50 101 -120 101c-64 0 -114 -34 -137 -86l-77 40c30 72 116 128 214 128zM230 65c93 0 160 70 160 163v46l-164 -38c-60 -13 -99 -46 -99 -89c0 -50 40 -82 103 -82z" />
    <glyph glyph-name="agrave" unicode="&#xe0;" horiz-adv-x="522" 
d="M301 632h-71l-92 154h88zM270 542c121 0 206 -75 206 -183v-359h-84v74c-36 -53 -99 -86 -167 -86c-113 0 -189 66 -189 159c0 78 63 132 170 156l184 41v15c0 61 -50 101 -120 101c-64 0 -114 -34 -137 -86l-77 40c30 72 116 128 214 128zM230 65c93 0 160 70 160 163
v46l-164 -38c-60 -13 -99 -46 -99 -89c0 -50 40 -82 103 -82z" />
    <glyph glyph-name="aring" unicode="&#xe5;" horiz-adv-x="522" 
d="M263 632c-57 0 -102 44 -102 99s44 99 102 99s103 -44 103 -99c0 -54 -45 -99 -103 -99zM263 776c-27 0 -47 -20 -47 -45s21 -46 47 -46c27 0 48 21 48 46s-21 45 -48 45zM270 542c121 0 206 -75 206 -183v-359h-84v74c-36 -53 -99 -86 -167 -86c-113 0 -189 66 -189 159
c0 78 63 132 170 156l184 41v15c0 61 -50 101 -120 101c-64 0 -114 -34 -137 -86l-77 40c30 72 116 128 214 128zM230 65c93 0 160 70 160 163v46l-164 -38c-60 -13 -99 -46 -99 -89c0 -50 40 -82 103 -82z" />
    <glyph glyph-name="atilde" unicode="&#xe3;" horiz-adv-x="522" 
d="M201 677c-16 0 -34 -9 -37 -39h-67c4 68 52 103 102 103c58 0 86 -45 127 -45c16 0 35 10 38 40h66c-5 -69 -50 -104 -101 -104c-61 0 -87 45 -128 45zM270 542c121 0 206 -75 206 -183v-359h-84v74c-36 -53 -99 -86 -167 -86c-113 0 -189 66 -189 159
c0 78 63 132 170 156l184 41v15c0 61 -50 101 -120 101c-64 0 -114 -34 -137 -86l-77 40c30 72 116 128 214 128zM230 65c93 0 160 70 160 163v46l-164 -38c-60 -13 -99 -46 -99 -89c0 -50 40 -82 103 -82z" />
    <glyph glyph-name="ae" unicode="&#xe6;" horiz-adv-x="926" 
d="M900 288c0 -14 -1 -32 -5 -49h-414c4 -105 84 -173 177 -173c77 0 128 41 154 94l75 -40c-33 -73 -118 -132 -230 -132c-73 0 -137 27 -184 75v-63h-82v73c-37 -54 -99 -85 -170 -85c-105 0 -185 66 -185 158c0 83 64 132 172 157l181 41v15c0 61 -49 101 -118 101
c-64 0 -113 -34 -136 -86l-77 40c31 73 115 128 213 128c82 0 148 -36 180 -93c48 58 118 93 200 93c152 0 249 -119 249 -254zM484 313h321c-1 86 -73 152 -157 152c-82 0 -152 -63 -164 -152zM389 228v46l-163 -38c-60 -14 -99 -45 -99 -91c0 -47 40 -80 104 -80
c92 0 158 70 158 163z" />
    <glyph glyph-name="b" unicode="b" horiz-adv-x="644" 
d="M341 542c149 0 267 -117 267 -277s-118 -277 -268 -277c-79 0 -151 32 -190 89v-77h-84v745h86v-293c37 56 108 90 189 90zM335 71c104 0 182 82 182 194c0 111 -78 194 -182 194c-105 0 -183 -83 -183 -194c0 -112 78 -194 183 -194z" />
    <glyph glyph-name="c" unicode="c" horiz-adv-x="552" 
d="M301 -12c-152 0 -265 119 -265 278s113 276 265 276c104 0 192 -61 225 -140l-77 -40c-26 58 -79 97 -148 97c-100 0 -174 -82 -174 -194c0 -110 74 -194 174 -194c69 0 122 39 148 97l77 -40c-33 -78 -122 -140 -225 -140z" />
    <glyph glyph-name="ccedilla" unicode="&#xe7;" horiz-adv-x="552" 
d="M301 71c69 0 122 39 148 97l77 -40c-26 -62 -88 -114 -164 -133c47 -26 73 -64 73 -107c0 -62 -54 -95 -114 -95c-39 0 -81 14 -116 46l28 46c18 -19 49 -33 81 -33c35 0 57 19 57 50c0 30 -22 61 -70 86c-152 0 -265 119 -265 278s113 276 265 276
c104 0 192 -61 225 -140l-77 -40c-26 58 -79 97 -148 97c-100 0 -174 -82 -174 -194c0 -110 74 -194 174 -194z" />
    <glyph glyph-name="d" unicode="d" horiz-adv-x="644" 
d="M492 745h86v-745h-84v77c-39 -57 -110 -89 -190 -89c-151 0 -268 117 -268 277s118 277 267 277c80 0 151 -34 189 -90v293zM309 71c105 0 183 82 183 194c0 111 -78 194 -183 194s-182 -83 -182 -194c0 -112 77 -194 182 -194z" />
    <glyph glyph-name="eth" unicode="&#xf0;" horiz-adv-x="616" 
d="M457 668c78 -95 123 -227 123 -364c0 -219 -118 -316 -266 -316c-161 0 -278 114 -278 279c0 156 107 277 271 277c40 0 102 -7 149 -51c-15 59 -42 108 -79 146l-155 -56v60l104 38c-44 29 -96 44 -151 44c-41 0 -76 -8 -109 -21l-13 78c40 16 81 25 127 25
c91 0 170 -36 234 -94l117 42v-60zM313 71c106 0 176 80 176 191c0 117 -70 199 -181 199c-102 0 -181 -84 -181 -196c0 -111 77 -194 186 -194z" />
    <glyph glyph-name="e" unicode="e" horiz-adv-x="567" 
d="M541 288c0 -15 -1 -32 -4 -49h-411c4 -105 83 -173 176 -173c75 0 124 40 152 94l75 -40c-33 -73 -119 -132 -228 -132c-152 0 -265 118 -265 278s110 276 258 276c151 0 247 -119 247 -254zM128 313h318c-1 88 -74 153 -152 153c-83 0 -154 -57 -166 -153z" />
    <glyph glyph-name="eacute" unicode="&#xe9;" horiz-adv-x="567" 
d="M422 786l-92 -154h-71l76 154h87zM541 288c0 -15 -1 -32 -4 -49h-411c4 -105 83 -173 176 -173c75 0 124 40 152 94l75 -40c-33 -73 -119 -132 -228 -132c-152 0 -265 118 -265 278s110 276 258 276c151 0 247 -119 247 -254zM128 313h318c-1 88 -74 153 -152 153
c-83 0 -154 -57 -166 -153z" />
    <glyph glyph-name="ecircumflex" unicode="&#xea;" horiz-adv-x="567" 
d="M293 741l-79 -109h-77l114 154h84l116 -154h-77zM541 288c0 -15 -1 -32 -4 -49h-411c4 -105 83 -173 176 -173c75 0 124 40 152 94l75 -40c-33 -73 -119 -132 -228 -132c-152 0 -265 118 -265 278s110 276 258 276c151 0 247 -119 247 -254zM128 313h318
c-1 88 -74 153 -152 153c-83 0 -154 -57 -166 -153z" />
    <glyph glyph-name="edieresis" unicode="&#xeb;" horiz-adv-x="567" 
d="M205 632c-35 0 -62 27 -62 62c0 34 27 61 62 61c34 0 61 -27 61 -61c0 -35 -27 -62 -61 -62zM383 632c-35 0 -62 27 -62 62c0 34 27 61 62 61c33 0 62 -27 62 -61s-28 -62 -62 -62zM541 288c0 -15 -1 -32 -4 -49h-411c4 -105 83 -173 176 -173c75 0 124 40 152 94l75 -40
c-33 -73 -119 -132 -228 -132c-152 0 -265 118 -265 278s110 276 258 276c151 0 247 -119 247 -254zM128 313h318c-1 88 -74 153 -152 153c-83 0 -154 -57 -166 -153z" />
    <glyph glyph-name="egrave" unicode="&#xe8;" horiz-adv-x="567" 
d="M331 632h-71l-92 154h88zM541 288c0 -15 -1 -32 -4 -49h-411c4 -105 83 -173 176 -173c75 0 124 40 152 94l75 -40c-33 -73 -119 -132 -228 -132c-152 0 -265 118 -265 278s110 276 258 276c151 0 247 -119 247 -254zM128 313h318c-1 88 -74 153 -152 153
c-83 0 -154 -57 -166 -153z" />
    <glyph glyph-name="f" unicode="f" horiz-adv-x="363" 
d="M119 0v448h-103v82h103v48c0 114 78 176 174 176c16 0 40 -2 52 -5v-76c-11 2 -33 3 -42 3c-58 0 -98 -33 -98 -98v-48h126v-82h-126v-448h-86z" />
    <glyph glyph-name="f.ss01" horiz-adv-x="355" 
d="M119 0v449h-103v81h103v215h218v-76h-132v-139h132v-81h-132v-449h-86z" />
    <glyph glyph-name="g" unicode="g" horiz-adv-x="625" 
d="M475 530h84v-508c0 -140 -109 -242 -256 -242c-112 0 -199 58 -233 138l76 41c21 -51 73 -96 155 -96c93 0 172 58 172 159v82c-39 -49 -103 -77 -177 -77c-144 0 -260 112 -260 258c0 148 115 257 259 257c78 0 143 -32 180 -85v73zM300 110c103 0 173 75 173 175
c0 101 -73 174 -174 174c-97 0 -172 -69 -172 -174c0 -103 71 -175 173 -175z" />
    <glyph glyph-name="g.ss03" horiz-adv-x="625" 
d="M475 530h84v-530c0 -133 -104 -221 -248 -221h-175v82h175c96 0 163 56 163 139l-1 104c-39 -49 -103 -77 -177 -77c-144 0 -260 112 -260 258c0 148 115 257 259 257c78 0 143 -32 180 -85v73zM300 110c103 0 173 74 173 175c0 100 -73 174 -174 174
c-97 0 -172 -70 -172 -174s71 -175 173 -175z" />
    <glyph glyph-name="h" unicode="h" horiz-adv-x="557" 
d="M303 542c115 0 198 -82 198 -194v-348h-86v321c0 83 -51 138 -131 138c-79 0 -132 -55 -132 -138v-321h-86v745h86v-273c32 44 87 70 151 70z" />
    <glyph glyph-name="h.ss01" horiz-adv-x="540" 
d="M66 0v745h86v-215h332v-530h-86v455h-246v-455h-86z" />
    <glyph glyph-name="i" unicode="i" horiz-adv-x="202" 
d="M58 628v117h86v-117h-86zM58 0v530h86v-530h-86z" />
    <glyph glyph-name="i.ss02" horiz-adv-x="236" 
d="M92 627v118h86v-118h-86zM92 0v448h-74v82h160v-530h-86z" />
    <glyph glyph-name="dotlessi" unicode="&#x131;" horiz-adv-x="242" 
d="M78 0v530h86v-530h-86z" />
    <glyph glyph-name="iacute" unicode="&#xed;" horiz-adv-x="242" 
d="M86 632l76 154h87l-92 -154h-71zM78 0v530h86v-530h-86z" />
    <glyph glyph-name="icircumflex" unicode="&#xee;" horiz-adv-x="242" 
d="M79 786h84l116 -154h-77l-81 109l-79 -109h-77zM78 0v530h86v-530h-86z" />
    <glyph glyph-name="idieresis" unicode="&#xef;" horiz-adv-x="242" 
d="M32 632c-35 0 -62 27 -62 62c0 34 27 61 62 61c34 0 61 -27 61 -61c0 -35 -27 -62 -61 -62zM210 632c-35 0 -62 27 -62 62c0 34 27 61 62 61c33 0 62 -27 62 -61s-28 -62 -62 -62zM78 0v530h86v-530h-86z" />
    <glyph glyph-name="igrave" unicode="&#xec;" horiz-adv-x="242" 
d="M159 632h-71l-92 154h88zM78 0v530h86v-530h-86z" />
    <glyph glyph-name="j" unicode="j" horiz-adv-x="192" 
d="M60 628v117h86v-117h-86zM-28 -220c-13 0 -36 1 -49 4v76c13 -2 31 -3 43 -3c54 0 94 33 94 97v576h86v-576c0 -113 -77 -174 -174 -174z" />
    <glyph glyph-name="j.ss01" horiz-adv-x="186" 
d="M54 628v117h86v-117h-86zM-77 -220v77h131v673h86v-750h-217z" />
    <glyph glyph-name="k" unicode="k" horiz-adv-x="505" 
d="M499 530l-196 -212l196 -318h-99l-154 254l-94 -101v-153h-86v745h86v-475l244 260h103z" />
    <glyph glyph-name="k.ss01" horiz-adv-x="505" 
d="M66 0v745h86v-390h79l164 175h104l-196 -216l196 -314h-101l-169 277h-77v-277h-86z" />
    <glyph glyph-name="l" unicode="l" horiz-adv-x="218" 
d="M66 0v745h86v-745h-86z" />
    <glyph glyph-name="l.ss01" horiz-adv-x="260" 
d="M66 0v745h86v-663h82v-82h-168z" />
    <glyph glyph-name="lslash" unicode="&#x142;" horiz-adv-x="218" 
d="M66 0v309l-98 -35v82l98 35v354h86v-323l98 34v-82l-98 -35v-339h-86z" />
    <glyph glyph-name="m" unicode="m" horiz-adv-x="880" 
d="M633 542c110 0 191 -81 191 -193v-349h-86v321c0 85 -49 138 -125 138c-75 0 -125 -54 -125 -138v-321h-86v321c0 85 -49 138 -125 138c-75 0 -125 -54 -125 -138v-321h-86v530h84v-61c30 46 84 73 147 73c73 0 134 -36 166 -94c34 60 96 94 170 94z" />
    <glyph glyph-name="m.ss02" horiz-adv-x="880" 
d="M66 0v530h758v-530h-86v452h-250v-452h-86v452h-250v-452h-86z" />
    <glyph glyph-name="m.ss03" horiz-adv-x="880" 
d="M66 0v530h547c127 0 211 -78 211 -187v-343h-86v321c0 81 -49 131 -125 131h-125v-452h-86v452h-250v-452h-86z" />
    <glyph glyph-name="n" unicode="n" horiz-adv-x="557" 
d="M303 542c115 0 198 -82 198 -193v-349h-86v321c0 84 -51 138 -131 138c-79 0 -132 -55 -132 -138v-321h-86v530h84v-61c31 46 88 73 153 73z" />
    <glyph glyph-name="n.ss01" horiz-adv-x="550" 
d="M66 0v530h418v-530h-86v452h-246v-452h-86z" />
    <glyph glyph-name="n.ss03" horiz-adv-x="540" 
d="M66 0v530h209c127 0 209 -78 209 -187v-343h-86v321c0 82 -48 131 -123 131h-123v-452h-86z" />
    <glyph glyph-name="ntilde" unicode="&#xf1;" horiz-adv-x="557" 
d="M241 677c-16 0 -34 -9 -37 -39h-67c4 68 52 103 102 103c58 0 86 -45 127 -45c16 0 35 10 38 40h66c-5 -69 -50 -104 -101 -104c-61 0 -87 45 -128 45zM303 542c115 0 198 -82 198 -193v-349h-86v321c0 84 -51 138 -131 138c-79 0 -132 -55 -132 -138v-321h-86v530h84
v-61c31 46 88 73 153 73z" />
    <glyph glyph-name="o" unicode="o" horiz-adv-x="618" 
d="M309 -12c-153 0 -273 117 -273 278s119 276 273 276s273 -115 273 -276s-120 -278 -273 -278zM309 71c103 0 182 83 182 194s-79 194 -182 194s-182 -83 -182 -194s79 -194 182 -194z" />
    <glyph glyph-name="oacute" unicode="&#xf3;" horiz-adv-x="618" 
d="M274 632l76 154h87l-92 -154h-71zM309 -12c-153 0 -273 117 -273 278s119 276 273 276s273 -115 273 -276s-120 -278 -273 -278zM309 71c103 0 182 83 182 194s-79 194 -182 194s-182 -83 -182 -194s79 -194 182 -194z" />
    <glyph glyph-name="ocircumflex" unicode="&#xf4;" horiz-adv-x="618" 
d="M266 786h84l116 -154h-77l-81 109l-79 -109h-77zM309 -12c-153 0 -273 117 -273 278s119 276 273 276s273 -115 273 -276s-120 -278 -273 -278zM309 71c103 0 182 83 182 194s-79 194 -182 194s-182 -83 -182 -194s79 -194 182 -194z" />
    <glyph glyph-name="odieresis" unicode="&#xf6;" horiz-adv-x="618" 
d="M220 632c-35 0 -62 27 -62 62c0 34 27 61 62 61c34 0 61 -27 61 -61c0 -35 -27 -62 -61 -62zM398 632c-35 0 -62 27 -62 62c0 34 27 61 62 61c33 0 62 -27 62 -61s-28 -62 -62 -62zM309 -12c-153 0 -273 117 -273 278s119 276 273 276s273 -115 273 -276
s-120 -278 -273 -278zM309 71c103 0 182 83 182 194s-79 194 -182 194s-182 -83 -182 -194s79 -194 182 -194z" />
    <glyph glyph-name="ograve" unicode="&#xf2;" horiz-adv-x="618" 
d="M346 632h-71l-92 154h88zM309 -12c-153 0 -273 117 -273 278s119 276 273 276s273 -115 273 -276s-120 -278 -273 -278zM309 71c103 0 182 83 182 194s-79 194 -182 194s-182 -83 -182 -194s79 -194 182 -194z" />
    <glyph glyph-name="oslash" unicode="&#xf8;" horiz-adv-x="618" 
d="M625 529l-95 -95c33 -46 52 -103 52 -168c0 -161 -120 -278 -273 -278c-64 0 -123 21 -169 56l-95 -95l-52 52l96 96c-33 46 -53 104 -53 169c0 161 119 276 273 276c65 0 123 -20 169 -56l95 95zM127 265c0 -39 10 -74 26 -104l263 263c-30 22 -67 35 -107 35
c-103 0 -182 -83 -182 -194zM491 265c0 39 -10 74 -26 104l-263 -263c30 -22 67 -35 107 -35c103 0 182 83 182 194z" />
    <glyph glyph-name="otilde" unicode="&#xf5;" horiz-adv-x="618" 
d="M375 632c-61 0 -87 45 -128 45c-16 0 -34 -9 -37 -39h-67c4 68 52 103 102 103c58 0 86 -45 127 -45c16 0 35 10 38 40h66c-5 -69 -50 -104 -101 -104zM309 -12c-153 0 -273 117 -273 278s119 276 273 276s273 -115 273 -276s-120 -278 -273 -278zM309 71
c103 0 182 83 182 194s-79 194 -182 194s-182 -83 -182 -194s79 -194 182 -194z" />
    <glyph glyph-name="oe" unicode="&#x153;" horiz-adv-x="1030" 
d="M1004 288c0 -14 -1 -32 -5 -49h-414c4 -106 85 -173 177 -173c76 0 127 40 154 94l76 -40c-35 -76 -123 -132 -231 -132c-95 0 -175 46 -222 120c-48 -75 -131 -120 -228 -120c-155 0 -275 117 -275 278c0 160 119 276 275 276c97 0 180 -45 227 -117
c46 71 123 117 217 117c152 0 249 -119 249 -254zM587 313h322c-1 86 -72 152 -157 152c-83 0 -153 -63 -165 -152zM311 71c103 0 184 83 184 194s-81 194 -184 194c-104 0 -184 -82 -184 -194s80 -194 184 -194z" />
    <glyph glyph-name="p" unicode="p" horiz-adv-x="644" 
d="M340 542c149 0 268 -115 268 -276s-119 -278 -270 -278c-78 0 -147 32 -186 85v-273h-86v730h84v-81c36 58 108 93 190 93zM335 71c105 0 182 82 182 194s-78 194 -182 194c-105 0 -183 -82 -183 -194s77 -194 183 -194z" />
    <glyph glyph-name="p.ss02" horiz-adv-x="677" 
d="M372 542c154 0 269 -119 269 -276c0 -158 -115 -278 -269 -278c-79 0 -148 32 -187 85v-273h-86v648h-73v82h157v-80c37 57 109 92 189 92zM368 71c105 0 182 82 182 194s-77 194 -182 194s-183 -82 -183 -194s77 -194 183 -194z" />
    <glyph glyph-name="thorn" unicode="&#xfe;" horiz-adv-x="644" 
d="M340 542c149 0 268 -115 268 -276s-119 -278 -270 -278c-78 0 -147 32 -186 85v-273h-86v945h86v-293c37 56 108 90 188 90zM335 71c105 0 182 82 182 194s-78 194 -182 194c-105 0 -183 -82 -183 -194s77 -194 183 -194z" />
    <glyph glyph-name="q" unicode="q" horiz-adv-x="644" 
d="M494 530h84v-730h-86v273c-39 -53 -108 -85 -187 -85c-151 0 -269 117 -269 278s119 276 267 276c83 0 154 -35 191 -93v81zM309 71c106 0 183 82 183 194s-78 194 -183 194s-182 -82 -182 -194s77 -194 182 -194z" />
    <glyph glyph-name="q.ss02" horiz-adv-x="677" 
d="M494 530h157v-82h-73v-645h-86v270c-39 -53 -108 -85 -187 -85c-153 0 -269 120 -269 278c0 160 119 276 267 276c82 0 155 -35 191 -92v80zM310 71c105 0 182 82 182 194s-78 194 -182 194c-106 0 -183 -82 -183 -194s77 -194 183 -194z" />
    <glyph glyph-name="r" unicode="r" horiz-adv-x="361" 
d="M292 536h43v-82h-56c-76 0 -127 -50 -127 -138v-316h-86v530h83v-66c28 49 79 72 143 72z" />
    <glyph glyph-name="r.ss01" horiz-adv-x="361" 
d="M66 0v530h269v-82h-183v-448h-86z" />
    <glyph glyph-name="r.ss02" horiz-adv-x="402" 
d="M333 536h43v-82h-57c-76 0 -127 -51 -127 -138v-236h80v-80h-246v80h80v370h-80v80h163v-67c30 53 84 73 144 73z" />
    <glyph glyph-name="s" unicode="s" horiz-adv-x="472" 
d="M251 -12c-104 0 -189 55 -223 145l73 36c27 -67 84 -102 150 -102c62 0 104 32 104 76c0 38 -32 59 -81 73l-87 24c-89 25 -135 76 -135 148c0 92 74 154 184 154c98 0 176 -51 207 -134l-72 -35c-22 57 -72 90 -135 90c-57 0 -95 -28 -95 -70c0 -36 30 -60 76 -74
l90 -27c89 -26 137 -78 137 -149c0 -92 -79 -155 -193 -155z" />
    <glyph glyph-name="scaron" unicode="&#x161;" horiz-adv-x="472" 
d="M194 632l-114 154h77l79 -109l81 109h77l-116 -154h-84zM251 -12c-104 0 -189 55 -223 145l73 36c27 -67 84 -102 150 -102c62 0 104 32 104 76c0 38 -32 59 -81 73l-87 24c-89 25 -135 76 -135 148c0 92 74 154 184 154c98 0 176 -51 207 -134l-72 -35
c-22 57 -72 90 -135 90c-57 0 -95 -28 -95 -70c0 -36 30 -60 76 -74l90 -27c89 -26 137 -78 137 -149c0 -92 -79 -155 -193 -155z" />
    <glyph glyph-name="germandbls" unicode="&#xdf;" horiz-adv-x="594" 
d="M76 -160v698c0 119 89 207 227 207c136 0 223 -77 223 -193c0 -64 -28 -117 -79 -151c71 -38 109 -105 109 -183c0 -135 -96 -218 -247 -218h-64v83h68c87 0 145 54 145 135c0 82 -58 136 -145 136h-68v83h61c74 0 122 45 122 113s-50 113 -125 113
c-78 0 -132 -52 -132 -125v-698h-95z" />
    <glyph glyph-name="t" unicode="t" horiz-adv-x="377" 
d="M288 -6c-107 0 -167 61 -167 168v286h-103v82h27c46 0 76 31 76 78v94h86v-172h128v-82h-128v-286c0 -34 6 -96 97 -96c11 0 26 1 37 3v-70c-17 -4 -38 -5 -53 -5z" />
    <glyph glyph-name="t.ss01" horiz-adv-x="399" 
d="M148 0v448h-130v82h130v172h86v-172h129v-82h-129v-366h129v-82h-215z" />
    <glyph glyph-name="u" unicode="u" horiz-adv-x="557" 
d="M405 530h86v-530h-84v61c-31 -46 -88 -73 -152 -73c-115 0 -199 92 -199 205v337h86v-321c0 -84 52 -138 132 -138c78 0 131 55 131 138v321z" />
    <glyph glyph-name="u.ss01" horiz-adv-x="540" 
d="M56 0v530h86v-448h246v448h86v-530h-418z" />
    <glyph glyph-name="u.ss03" horiz-adv-x="540" 
d="M265 -12c-126 0 -209 84 -209 198v344h86v-322c0 -84 48 -137 123 -137s123 53 123 137v322h86v-344c0 -114 -83 -198 -209 -198z" />
    <glyph glyph-name="uacute" unicode="&#xfa;" horiz-adv-x="557" 
d="M407 786l-92 -154h-71l76 154h87zM405 530h86v-530h-84v61c-31 -46 -88 -73 -152 -73c-115 0 -199 92 -199 205v337h86v-321c0 -84 52 -138 132 -138c78 0 131 55 131 138v321z" />
    <glyph glyph-name="ucircumflex" unicode="&#xfb;" horiz-adv-x="557" 
d="M279 741l-79 -109h-77l114 154h84l116 -154h-77zM405 530h86v-530h-84v61c-31 -46 -88 -73 -152 -73c-115 0 -199 92 -199 205v337h86v-321c0 -84 52 -138 132 -138c78 0 131 55 131 138v321z" />
    <glyph glyph-name="udieresis" unicode="&#xfc;" horiz-adv-x="557" 
d="M190 632c-35 0 -62 27 -62 62c0 34 27 61 62 61c34 0 61 -27 61 -61c0 -35 -27 -62 -61 -62zM368 632c-35 0 -62 27 -62 62c0 34 27 61 62 61c33 0 62 -27 62 -61s-28 -62 -62 -62zM405 530h86v-530h-84v61c-31 -46 -88 -73 -152 -73c-115 0 -199 92 -199 205v337h86
v-321c0 -84 52 -138 132 -138c78 0 131 55 131 138v321z" />
    <glyph glyph-name="ugrave" unicode="&#xf9;" horiz-adv-x="557" 
d="M317 632h-71l-92 154h88zM405 530h86v-530h-84v61c-31 -46 -88 -73 -152 -73c-115 0 -199 92 -199 205v337h86v-321c0 -84 52 -138 132 -138c78 0 131 55 131 138v321z" />
    <glyph glyph-name="v" unicode="v" horiz-adv-x="536" 
d="M424 530h96l-213 -530h-79l-212 530h96l156 -412z" />
    <glyph glyph-name="w" unicode="w" horiz-adv-x="822" 
d="M709 530h97l-185 -530h-80l-129 412l-130 -412h-81l-185 530h97l129 -403l122 403h94l122 -401z" />
    <glyph glyph-name="x" unicode="x" horiz-adv-x="522" 
d="M501 530l-189 -265l188 -265h-102l-137 197l-138 -197h-102l188 265l-188 265h102l138 -197l138 197h102z" />
    <glyph glyph-name="y" unicode="y" horiz-adv-x="556" 
d="M440 531h100l-245 -597c-27 -67 -65 -151 -189 -151c-24 0 -50 3 -70 11v77c10 -3 34 -6 55 -6c78 0 98 48 114 85l23 55l-212 526h98l163 -410z" />
    <glyph glyph-name="y.ss01" horiz-adv-x="518" 
d="M423 530h98l-306 -750h-209v82h148l57 142l-213 526h99l163 -410z" />
    <glyph glyph-name="y.ss02" horiz-adv-x="555" 
d="M440 530h99l-306 -750h-93l88 224l-212 526h98l163 -410z" />
    <glyph glyph-name="yacute" unicode="&#xfd;" horiz-adv-x="556" 
d="M406 787l-92 -154h-71l76 154h87zM440 531h100l-245 -597c-27 -67 -65 -151 -189 -151c-24 0 -50 3 -70 11v77c10 -3 34 -6 55 -6c78 0 98 48 114 85l23 55l-212 526h98l163 -410z" />
    <glyph glyph-name="ydieresis" unicode="&#xff;" horiz-adv-x="556" 
d="M189 633c-35 0 -62 27 -62 62c0 34 27 61 62 61c34 0 61 -27 61 -61c0 -35 -27 -62 -61 -62zM367 633c-35 0 -62 27 -62 62c0 34 27 61 62 61c33 0 62 -27 62 -61s-28 -62 -62 -62zM440 531h100l-245 -597c-27 -67 -65 -151 -189 -151c-24 0 -50 3 -70 11v77
c10 -3 34 -6 55 -6c78 0 98 48 114 85l23 55l-212 526h98l163 -410z" />
    <glyph glyph-name="z" unicode="z" horiz-adv-x="437" 
d="M12 0v72l297 376h-282v82h397v-72l-296 -376h297v-82h-413z" />
    <glyph glyph-name="zcaron" unicode="&#x17e;" horiz-adv-x="437" 
d="M176 632l-114 154h77l79 -109l81 109h77l-116 -154h-84zM12 0v72l297 376h-282v82h397v-72l-296 -376h297v-82h-413z" />
    <glyph glyph-name="ordfeminine" unicode="&#xaa;" horiz-adv-x="401" 
d="M205 752c88 0 150 -54 150 -132v-253h-71v46c-27 -35 -68 -54 -114 -54c-79 0 -134 46 -134 113c0 54 42 92 119 109l126 28v11c0 38 -31 64 -76 64c-41 0 -76 -23 -90 -59l-65 33c23 56 85 94 155 94zM178 420c58 0 103 44 103 103v29l-110 -25c-35 -8 -57 -28 -57 -56
c0 -31 24 -51 64 -51z" />
    <glyph glyph-name="ordmasculine" unicode="&#xba;" horiz-adv-x="464" 
d="M232 359c-110 0 -196 83 -196 197s86 196 196 196s196 -82 196 -196s-86 -197 -196 -197zM232 428c68 0 119 54 119 127s-51 128 -119 128s-118 -55 -118 -128s50 -127 118 -127z" />
    <glyph glyph-name="uni0394" unicode="&#x394;" horiz-adv-x="628" 
d="M21 0v72l258 673h70l258 -673v-72h-586zM123 85h382l-191 513z" />
    <glyph glyph-name="uni03A9" unicode="&#x3a9;" horiz-adv-x="914" 
d="M51 0v94h147c-85 67 -129 166 -129 279c0 206 157 384 388 384c230 0 388 -178 388 -384c0 -114 -45 -213 -130 -279h148v-94h-322v94c127 31 210 144 210 279c0 155 -119 297 -294 297s-294 -142 -294 -297c0 -134 81 -248 210 -279v-94h-322z" />
    <glyph glyph-name="pi" unicode="&#x3c0;" horiz-adv-x="644" 
d="M150 0v455h-132v82h608v-82h-132v-455h-86v455h-172v-455h-86z" />
    <glyph glyph-name="zero" unicode="0" horiz-adv-x="715" 
d="M358 -12c-176 0 -296 155 -296 385s119 384 295 384c178 0 296 -154 296 -384c0 -231 -118 -385 -295 -385zM358 76c121 0 201 117 201 297c0 179 -80 296 -202 296c-121 0 -200 -117 -200 -296s80 -297 201 -297z" />
    <glyph glyph-name="zero.tf" horiz-adv-x="600" 
d="M301 -12c-169 0 -284 155 -284 385s114 385 283 385c170 0 283 -154 283 -385s-113 -385 -282 -385zM301 76c114 0 189 118 189 297s-75 297 -190 297c-114 0 -190 -117 -190 -297c0 -179 76 -297 191 -297z" />
    <glyph glyph-name="one" unicode="1" horiz-adv-x="408" 
d="M168 0v663h-140v82h235v-745h-95z" />
    <glyph glyph-name="one.ss01" horiz-adv-x="408" 
d="M168 0v658l-140 -50v87l150 50h85v-745h-95z" />
    <glyph glyph-name="one.ss01.tf" horiz-adv-x="600" 
d="M347 82h206v-82h-506v82h205v577l-135 -50v87l145 50h85v-664z" />
    <glyph glyph-name="one.tf" horiz-adv-x="600" 
d="M348 82h205v-82h-506v82h205v582h-146v82h242v-664z" />
    <glyph glyph-name="two" unicode="2" horiz-adv-x="596" 
d="M52 0l-1 64l207 216c122 129 169 188 169 264c0 82 -50 129 -135 129c-84 0 -144 -42 -171 -119l-75 38c34 101 129 165 248 165c133 0 228 -86 228 -209c0 -83 -49 -159 -157 -272l-184 -194h359v-82h-488z" />
    <glyph glyph-name="two.tf" horiz-adv-x="600" 
d="M53 0v64l207 216c123 130 170 188 170 265c0 82 -52 129 -136 129s-144 -42 -172 -119l-75 38c35 101 130 165 249 165c133 0 229 -86 229 -209c0 -90 -61 -172 -158 -273l-185 -194h361v-82h-490z" />
    <glyph glyph-name="three" unicode="3" horiz-adv-x="604" 
d="M353 460c112 -15 195 -112 195 -231c0 -140 -106 -241 -254 -241c-116 0 -211 62 -249 165l76 38c28 -74 93 -119 173 -119c95 0 159 63 159 155c0 91 -65 154 -160 154c-20 0 -44 -3 -60 -7l-12 51l192 237l-333 1v82h439v-80z" />
    <glyph glyph-name="three.tf" horiz-adv-x="600" 
d="M351 461c111 -16 195 -113 195 -232c0 -140 -108 -241 -254 -241c-116 0 -211 62 -249 165l76 38c28 -74 93 -119 173 -119c94 0 159 64 159 155s-66 155 -160 155c-21 0 -47 -3 -60 -7l-13 51l192 237l-332 1v82h439v-80z" />
    <glyph glyph-name="four" unicode="4" horiz-adv-x="650" 
d="M606 251v-78h-102v-173h-87v173h-379v78l377 494h89v-494h102zM135 251h282v373z" />
    <glyph glyph-name="four.tf" horiz-adv-x="600" 
d="M575 251v-78h-100v-173h-86v173h-370v78l368 495h88v-495h100zM116 251h273v374z" />
    <glyph glyph-name="five" unicode="5" horiz-adv-x="615" 
d="M308 475c147 0 251 -100 251 -241c0 -144 -107 -246 -259 -246c-119 0 -217 63 -255 165l73 38c30 -73 102 -119 182 -119c97 0 164 65 164 160c0 94 -67 159 -164 159c-61 0 -114 -25 -139 -67l-64 14l46 408h387v-82h-320l-25 -224c34 24 75 35 123 35z" />
    <glyph glyph-name="five.tf" horiz-adv-x="600" 
d="M300 476c147 0 251 -101 251 -242c0 -144 -108 -246 -258 -246c-118 0 -216 63 -254 165l73 38c30 -73 102 -119 181 -119c95 0 163 65 163 160c0 94 -67 160 -164 160c-61 0 -114 -27 -137 -68l-65 14l46 409h386v-82h-319l-25 -224c36 24 76 35 122 35z" />
    <glyph glyph-name="six" unicode="6" horiz-adv-x="582" 
d="M297 464c132 0 239 -109 239 -238c0 -136 -104 -238 -245 -238c-143 0 -245 103 -245 246c0 78 29 149 84 223l214 288h107l-220 -292c20 7 42 11 66 11zM291 72c86 0 150 66 150 155c0 90 -63 154 -150 154c-86 0 -150 -64 -150 -154c0 -89 64 -155 150 -155z" />
    <glyph glyph-name="six.tf" horiz-adv-x="600" 
d="M306 465c133 0 241 -110 241 -239c0 -136 -106 -238 -247 -238c-144 0 -247 103 -247 246c0 78 30 151 85 224l216 288h107l-223 -293c20 8 43 12 68 12zM300 72c87 0 152 67 152 155c0 90 -64 155 -152 155c-87 0 -152 -65 -152 -155c0 -88 65 -155 152 -155z" />
    <glyph glyph-name="seven" unicode="7" horiz-adv-x="528" 
d="M74 0l329 664h-368v82h465v-82l-326 -664h-100z" />
    <glyph glyph-name="seven.tf" horiz-adv-x="600" 
d="M103 0l343 665h-383v82h481v-82l-341 -665h-100z" />
    <glyph glyph-name="eight" unicode="8" horiz-adv-x="632" 
d="M450 407c79 -36 126 -107 126 -191c0 -131 -110 -228 -260 -228s-260 97 -260 228c0 84 47 155 125 191c-56 33 -88 92 -88 155c0 111 95 195 223 195s222 -81 222 -195c0 -65 -33 -122 -88 -155zM316 675c-73 0 -127 -49 -127 -115c0 -68 53 -116 127 -116
c72 0 126 48 126 116c0 67 -54 115 -126 115zM316 70c95 0 165 61 165 146s-69 146 -165 146c-95 0 -165 -61 -165 -146s70 -146 165 -146z" />
    <glyph glyph-name="eight.tf" horiz-adv-x="600" 
d="M433 408c76 -36 123 -106 123 -192c0 -131 -109 -228 -256 -228c-148 0 -257 97 -257 228c0 85 47 156 124 192c-55 33 -88 91 -88 155c0 111 95 195 221 195s219 -81 219 -195c0 -63 -31 -121 -86 -155zM300 676c-72 0 -125 -50 -125 -115c0 -68 52 -116 125 -116
c70 0 123 48 123 116c0 67 -53 115 -123 115zM300 70c93 0 162 62 162 146c0 85 -68 147 -162 147s-162 -62 -162 -147s69 -146 162 -146z" />
    <glyph glyph-name="nine" unicode="9" horiz-adv-x="582" 
d="M291 757c143 0 245 -103 245 -246c0 -77 -28 -149 -83 -223l-215 -288h-107l221 292c-20 -7 -42 -11 -66 -11c-133 0 -240 109 -240 238c0 136 105 238 245 238zM291 364c87 0 150 64 150 154c0 89 -64 155 -150 155s-150 -66 -150 -155c0 -90 64 -154 150 -154z" />
    <glyph glyph-name="nine.tf" horiz-adv-x="600" 
d="M300 758c144 0 247 -103 247 -246c0 -76 -29 -150 -85 -224l-216 -288h-107l223 292c-20 -7 -43 -11 -68 -11c-133 0 -241 110 -241 239c0 136 106 238 247 238zM300 364c88 0 152 65 152 155c0 88 -65 155 -152 155s-152 -67 -152 -155c0 -90 65 -155 152 -155z" />
    <glyph glyph-name="uni2080" unicode="&#x2080;" horiz-adv-x="483" 
d="M242 -7c-108 0 -180 93 -180 231s72 230 179 230c108 0 180 -92 180 -230s-72 -231 -179 -231zM242 63c63 0 101 62 101 161c0 98 -38 160 -102 160c-62 0 -102 -62 -102 -160s40 -161 103 -161z" />
    <glyph glyph-name="uni2081" unicode="&#x2081;" horiz-adv-x="335" 
d="M112 0v380h-84v67h162v-447h-78z" />
    <glyph glyph-name="uni2082" unicode="&#x2082;" horiz-adv-x="402" 
d="M47 0v58l121 126c69 73 92 101 92 137c0 39 -25 63 -66 63s-73 -23 -87 -62l-61 34c21 60 79 98 152 98c82 0 140 -51 140 -125c0 -51 -30 -96 -85 -152l-107 -111h200v-66h-299z" />
    <glyph glyph-name="uni2083" unicode="&#x2083;" horiz-adv-x="412" 
d="M245 276c66 -10 111 -62 111 -132c0 -87 -68 -151 -159 -151c-73 0 -130 39 -152 98l62 34c14 -37 45 -62 90 -62c48 0 81 31 81 78s-33 77 -82 77c-14 0 -32 -3 -45 -8l-15 39l115 131l-185 1v66h272v-62z" />
    <glyph glyph-name="uni2084" unicode="&#x2084;" horiz-adv-x="440" 
d="M396 164v-65h-68v-99h-76v99h-214v65l209 283h81v-283h68zM115 164h137v187z" />
    <glyph glyph-name="uni2085" unicode="&#x2085;" horiz-adv-x="414" 
d="M211 290c86 0 147 -58 147 -142c0 -89 -67 -155 -159 -155c-71 0 -132 38 -154 98l61 34c15 -37 50 -62 93 -62c47 0 81 32 81 81c0 47 -33 80 -82 80c-30 0 -55 -13 -68 -39l-58 15l36 247h238v-66h-185l-15 -107c18 11 38 16 65 16z" />
    <glyph glyph-name="uni2086" unicode="&#x2086;" horiz-adv-x="401" 
d="M212 283c81 0 143 -67 143 -144c0 -83 -65 -146 -155 -146c-89 0 -154 63 -154 148c0 45 20 82 47 120l134 186h89l-120 -165c5 1 10 1 16 1zM200 63c43 0 76 32 76 78s-33 77 -76 77c-42 0 -76 -31 -76 -77s34 -78 76 -78z" />
    <glyph glyph-name="uni2087" unicode="&#x2087;" horiz-adv-x="357" 
d="M63 0l188 381h-216v67h294v-67l-184 -381h-82z" />
    <glyph glyph-name="uni2088" unicode="&#x2088;" horiz-adv-x="434" 
d="M309 239c45 -23 69 -61 69 -107c0 -81 -69 -139 -161 -139s-161 58 -161 139c0 46 24 85 69 107c-33 20 -51 56 -51 94c0 70 61 121 143 121s143 -51 143 -121c0 -39 -19 -75 -51 -94zM217 388c-37 0 -64 -25 -64 -60s27 -59 64 -59s63 24 63 59c0 36 -26 60 -63 60z
M217 59c49 0 84 30 84 72s-35 72 -84 72s-82 -30 -82 -72s33 -72 82 -72z" />
    <glyph glyph-name="uni2089" unicode="&#x2089;" horiz-adv-x="401" 
d="M200 454c90 0 155 -63 155 -148c0 -47 -20 -83 -47 -120l-135 -186h-88l119 165c-5 -1 -10 -1 -15 -1c-81 0 -143 67 -143 144c0 83 65 146 154 146zM200 229c43 0 76 31 76 77s-33 78 -76 78c-42 0 -76 -32 -76 -78s34 -77 76 -77z" />
    <glyph glyph-name="zero.dnom" horiz-adv-x="483" 
d="M242 -7c-108 0 -180 93 -180 231s72 230 179 230c108 0 180 -92 180 -230s-72 -231 -179 -231zM242 63c63 0 101 62 101 161c0 98 -38 160 -102 160c-62 0 -102 -62 -102 -160s40 -161 103 -161z" />
    <glyph glyph-name="one.dnom" horiz-adv-x="335" 
d="M112 0v380h-84v67h162v-447h-78z" />
    <glyph glyph-name="two.dnom" horiz-adv-x="402" 
d="M47 0v58l121 126c69 73 92 101 92 137c0 39 -25 63 -66 63s-73 -23 -87 -62l-61 34c21 60 79 98 152 98c82 0 140 -51 140 -125c0 -51 -30 -96 -85 -152l-107 -111h200v-66h-299z" />
    <glyph glyph-name="three.dnom" horiz-adv-x="412" 
d="M245 276c66 -10 111 -62 111 -132c0 -87 -68 -151 -159 -151c-73 0 -130 39 -152 98l62 34c14 -37 45 -62 90 -62c48 0 81 31 81 78s-33 77 -82 77c-14 0 -32 -3 -45 -8l-15 39l115 131l-185 1v66h272v-62z" />
    <glyph glyph-name="four.dnom" horiz-adv-x="440" 
d="M396 164v-65h-68v-99h-76v99h-214v65l209 283h81v-283h68zM115 164h137v187z" />
    <glyph glyph-name="five.dnom" horiz-adv-x="414" 
d="M211 290c86 0 147 -58 147 -142c0 -89 -67 -155 -159 -155c-71 0 -132 38 -154 98l61 34c15 -37 50 -62 93 -62c47 0 81 32 81 81c0 47 -33 80 -82 80c-30 0 -55 -13 -68 -39l-58 15l36 247h238v-66h-185l-15 -107c18 11 38 16 65 16z" />
    <glyph glyph-name="six.dnom" horiz-adv-x="401" 
d="M212 283c81 0 143 -67 143 -144c0 -83 -65 -146 -155 -146c-89 0 -154 63 -154 148c0 45 20 82 47 120l134 186h89l-120 -165c5 1 10 1 16 1zM200 63c43 0 76 32 76 78s-33 77 -76 77c-42 0 -76 -31 -76 -77s34 -78 76 -78z" />
    <glyph glyph-name="seven.dnom" horiz-adv-x="357" 
d="M63 0l188 381h-216v67h294v-67l-184 -381h-82z" />
    <glyph glyph-name="eight.dnom" horiz-adv-x="434" 
d="M309 239c45 -23 69 -61 69 -107c0 -81 -69 -139 -161 -139s-161 58 -161 139c0 46 24 85 69 107c-33 20 -51 56 -51 94c0 70 61 121 143 121s143 -51 143 -121c0 -39 -19 -75 -51 -94zM217 388c-37 0 -64 -25 -64 -60s27 -59 64 -59s63 24 63 59c0 36 -26 60 -63 60z
M217 59c49 0 84 30 84 72s-35 72 -84 72s-82 -30 -82 -72s33 -72 82 -72z" />
    <glyph glyph-name="nine.dnom" horiz-adv-x="401" 
d="M200 454c90 0 155 -63 155 -148c0 -47 -20 -83 -47 -120l-135 -186h-88l119 165c-5 -1 -10 -1 -15 -1c-81 0 -143 67 -143 144c0 83 65 146 154 146zM200 229c43 0 76 31 76 77s-33 78 -76 78c-42 0 -76 -32 -76 -78s34 -77 76 -77z" />
    <glyph glyph-name="zero.numr" horiz-adv-x="483" 
d="M242 291c-108 0 -180 93 -180 231s72 230 179 230c108 0 180 -92 180 -230s-72 -231 -179 -231zM242 361c63 0 101 62 101 161c0 98 -38 160 -102 160c-62 0 -102 -62 -102 -160s40 -161 103 -161z" />
    <glyph glyph-name="one.numr" horiz-adv-x="335" 
d="M112 298v380h-84v67h162v-447h-78z" />
    <glyph glyph-name="two.numr" horiz-adv-x="402" 
d="M47 298v58l121 126c69 73 92 101 92 137c0 39 -25 63 -66 63s-73 -23 -87 -62l-61 34c21 60 79 98 152 98c82 0 140 -51 140 -125c0 -51 -30 -96 -85 -152l-107 -111h200v-66h-299z" />
    <glyph glyph-name="three.numr" horiz-adv-x="412" 
d="M245 574c66 -10 111 -62 111 -132c0 -87 -68 -151 -159 -151c-73 0 -130 39 -152 98l62 34c14 -37 45 -62 90 -62c48 0 81 31 81 78s-33 77 -82 77c-14 0 -32 -3 -45 -8l-15 39l115 131l-185 1v66h272v-62z" />
    <glyph glyph-name="four.numr" horiz-adv-x="440" 
d="M396 462v-65h-68v-99h-76v99h-214v65l209 283h81v-283h68zM115 462h137v187z" />
    <glyph glyph-name="five.numr" horiz-adv-x="414" 
d="M211 588c86 0 147 -58 147 -142c0 -89 -67 -155 -159 -155c-71 0 -132 38 -154 98l61 34c15 -37 50 -62 93 -62c47 0 81 32 81 81c0 47 -33 80 -82 80c-30 0 -55 -13 -68 -39l-58 15l36 247h238v-66h-185l-15 -107c18 11 38 16 65 16z" />
    <glyph glyph-name="six.numr" horiz-adv-x="401" 
d="M212 581c81 0 143 -67 143 -144c0 -83 -65 -146 -155 -146c-89 0 -154 63 -154 148c0 45 20 82 47 120l134 186h89l-120 -165c5 1 10 1 16 1zM200 361c43 0 76 32 76 78s-33 77 -76 77c-42 0 -76 -31 -76 -77s34 -78 76 -78z" />
    <glyph glyph-name="seven.numr" horiz-adv-x="357" 
d="M63 297l188 381h-216v67h294v-67l-184 -381h-82z" />
    <glyph glyph-name="eight.numr" horiz-adv-x="434" 
d="M309 537c45 -23 69 -61 69 -107c0 -81 -69 -139 -161 -139s-161 58 -161 139c0 46 24 85 69 107c-33 20 -51 56 -51 94c0 70 61 121 143 121s143 -51 143 -121c0 -39 -19 -75 -51 -94zM217 686c-37 0 -64 -25 -64 -60s27 -59 64 -59s63 24 63 59c0 36 -26 60 -63 60z
M217 357c49 0 84 30 84 72s-35 72 -84 72s-82 -30 -82 -72s33 -72 82 -72z" />
    <glyph glyph-name="nine.numr" horiz-adv-x="401" 
d="M200 752c90 0 155 -63 155 -148c0 -47 -20 -83 -47 -120l-135 -186h-88l119 165c-5 -1 -10 -1 -15 -1c-81 0 -143 67 -143 144c0 83 65 146 154 146zM200 527c43 0 76 31 76 77s-33 78 -76 78c-42 0 -76 -32 -76 -78s34 -77 76 -77z" />
    <glyph glyph-name="uni2070" unicode="&#x2070;" horiz-adv-x="483" 
d="M242 291c-108 0 -180 93 -180 231s72 230 179 230c108 0 180 -92 180 -230s-72 -231 -179 -231zM242 361c63 0 101 62 101 161c0 98 -38 160 -102 160c-62 0 -102 -62 -102 -160s40 -161 103 -161z" />
    <glyph glyph-name="uni00B9" unicode="&#xb9;" horiz-adv-x="335" 
d="M112 298v380h-84v67h162v-447h-78z" />
    <glyph glyph-name="uni00B2" unicode="&#xb2;" horiz-adv-x="402" 
d="M47 298v58l121 126c69 73 92 101 92 137c0 39 -25 63 -66 63s-73 -23 -87 -62l-61 34c21 60 79 98 152 98c82 0 140 -51 140 -125c0 -51 -30 -96 -85 -152l-107 -111h200v-66h-299z" />
    <glyph glyph-name="uni00B3" unicode="&#xb3;" horiz-adv-x="412" 
d="M245 574c66 -10 111 -62 111 -132c0 -87 -68 -151 -159 -151c-73 0 -130 39 -152 98l62 34c14 -37 45 -62 90 -62c48 0 81 31 81 78s-33 77 -82 77c-14 0 -32 -3 -45 -8l-15 39l115 131l-185 1v66h272v-62z" />
    <glyph glyph-name="uni2074" unicode="&#x2074;" horiz-adv-x="440" 
d="M396 462v-65h-68v-99h-76v99h-214v65l209 283h81v-283h68zM115 462h137v187z" />
    <glyph glyph-name="uni2075" unicode="&#x2075;" horiz-adv-x="414" 
d="M211 588c86 0 147 -58 147 -142c0 -89 -67 -155 -159 -155c-71 0 -132 38 -154 98l61 34c15 -37 50 -62 93 -62c47 0 81 32 81 81c0 47 -33 80 -82 80c-30 0 -55 -13 -68 -39l-58 15l36 247h238v-66h-185l-15 -107c18 11 38 16 65 16z" />
    <glyph glyph-name="uni2076" unicode="&#x2076;" horiz-adv-x="401" 
d="M212 581c81 0 143 -67 143 -144c0 -83 -65 -146 -155 -146c-89 0 -154 63 -154 148c0 45 20 82 47 120l134 186h89l-120 -165c5 1 10 1 16 1zM200 361c43 0 76 32 76 78s-33 77 -76 77c-42 0 -76 -31 -76 -77s34 -78 76 -78z" />
    <glyph glyph-name="uni2077" unicode="&#x2077;" horiz-adv-x="357" 
d="M63 297l188 381h-216v67h294v-67l-184 -381h-82z" />
    <glyph glyph-name="uni2078" unicode="&#x2078;" horiz-adv-x="434" 
d="M309 537c45 -23 69 -61 69 -107c0 -81 -69 -139 -161 -139s-161 58 -161 139c0 46 24 85 69 107c-33 20 -51 56 -51 94c0 70 61 121 143 121s143 -51 143 -121c0 -39 -19 -75 -51 -94zM217 686c-37 0 -64 -25 -64 -60s27 -59 64 -59s63 24 63 59c0 36 -26 60 -63 60z
M217 357c49 0 84 30 84 72s-35 72 -84 72s-82 -30 -82 -72s33 -72 82 -72z" />
    <glyph glyph-name="uni2079" unicode="&#x2079;" horiz-adv-x="401" 
d="M200 752c90 0 155 -63 155 -148c0 -47 -20 -83 -47 -120l-135 -186h-88l119 165c-5 -1 -10 -1 -15 -1c-81 0 -143 67 -143 144c0 83 65 146 154 146zM200 527c43 0 76 31 76 77s-33 78 -76 78c-42 0 -76 -32 -76 -78s34 -77 76 -77z" />
    <glyph glyph-name="fraction" unicode="&#x2044;" horiz-adv-x="212" 
d="M-104 0l336 745h84l-337 -745h-83z" />
    <glyph glyph-name="onehalf" unicode="&#xbd;" horiz-adv-x="949" 
d="M112 298v380h-84v67h162v-447h-78zM231 0l336 745h84l-337 -745h-83zM594 0v58l121 126c69 73 92 101 92 137c0 39 -25 63 -66 63s-73 -23 -87 -62l-61 34c21 60 79 98 152 98c82 0 140 -51 140 -125c0 -51 -30 -96 -85 -152l-107 -111h200v-66h-299z" />
    <glyph glyph-name="onequarter" unicode="&#xbc;" horiz-adv-x="987" 
d="M112 298v380h-84v67h162v-447h-78zM231 0l336 745h84l-337 -745h-83zM943 164v-65h-68v-99h-76v99h-214v65l209 283h81v-283h68zM662 164h137v187z" />
    <glyph glyph-name="threequarters" unicode="&#xbe;" horiz-adv-x="1064" 
d="M356 442c0 -87 -68 -151 -159 -151c-73 0 -130 39 -152 98l62 34c14 -37 45 -62 90 -62c48 0 81 31 81 78s-33 77 -82 77c-14 0 -32 -3 -45 -8l-15 39l115 131l-185 1v66h272v-62l-93 -109c66 -10 111 -62 111 -132zM644 745h84l-337 -745h-83zM952 164h68v-65h-68v-99
h-76v99h-214v65l209 283h81v-283zM876 164v187l-137 -187h137z" />
    <glyph glyph-name="oneeighth" unicode="&#x215b;" horiz-adv-x="981" 
d="M28 678v67h162v-447h-78v380h-84zM567 745h84l-337 -745h-83zM856 239c45 -23 69 -61 69 -107c0 -81 -69 -139 -161 -139s-161 58 -161 139c0 46 24 85 69 107c-33 20 -51 56 -51 94c0 70 61 121 143 121s143 -51 143 -121c0 -39 -19 -75 -51 -94zM764 388
c-37 0 -64 -25 -64 -60s27 -59 64 -59s63 24 63 59c0 36 -26 60 -63 60zM764 59c49 0 84 30 84 72s-35 72 -84 72s-82 -30 -82 -72s33 -72 82 -72z" />
    <glyph glyph-name="threeeighths" unicode="&#x215c;" horiz-adv-x="1058" 
d="M356 442c0 -87 -68 -151 -159 -151c-73 0 -130 39 -152 98l62 34c14 -37 45 -62 90 -62c48 0 81 31 81 78s-33 77 -82 77c-14 0 -32 -3 -45 -8l-15 39l115 131l-185 1v66h272v-62l-93 -109c66 -10 111 -62 111 -132zM644 745h84l-337 -745h-83zM933 239
c45 -23 69 -61 69 -107c0 -81 -69 -139 -161 -139s-161 58 -161 139c0 46 24 85 69 107c-33 20 -51 56 -51 94c0 70 61 121 143 121s143 -51 143 -121c0 -39 -19 -75 -51 -94zM841 388c-37 0 -64 -25 -64 -60s27 -59 64 -59s63 24 63 59c0 36 -26 60 -63 60zM841 59
c49 0 84 30 84 72s-35 72 -84 72s-82 -30 -82 -72s33 -72 82 -72z" />
    <glyph glyph-name="fiveeighths" unicode="&#x215d;" horiz-adv-x="1060" 
d="M358 446c0 -89 -67 -155 -159 -155c-71 0 -132 38 -154 98l61 34c15 -37 50 -62 93 -62c47 0 81 32 81 81c0 47 -33 80 -82 80c-30 0 -55 -13 -68 -39l-58 15l36 247h238v-66h-185l-15 -107c18 11 38 16 65 16c86 0 147 -58 147 -142zM646 745h84l-337 -745h-83zM935 239
c45 -23 69 -61 69 -107c0 -81 -69 -139 -161 -139s-161 58 -161 139c0 46 24 85 69 107c-33 20 -51 56 -51 94c0 70 61 121 143 121s143 -51 143 -121c0 -39 -19 -75 -51 -94zM843 388c-37 0 -64 -25 -64 -60s27 -59 64 -59s63 24 63 59c0 36 -26 60 -63 60zM843 59
c49 0 84 30 84 72s-35 72 -84 72s-82 -30 -82 -72s33 -72 82 -72z" />
    <glyph glyph-name="seveneighths" unicode="&#x215e;" horiz-adv-x="1003" 
d="M329 745v-67l-184 -381h-82l188 381h-216v67h294zM589 745h84l-337 -745h-83zM878 239c45 -23 69 -61 69 -107c0 -81 -69 -139 -161 -139s-161 58 -161 139c0 46 24 85 69 107c-33 20 -51 56 -51 94c0 70 61 121 143 121s143 -51 143 -121c0 -39 -19 -75 -51 -94z
M786 388c-37 0 -64 -25 -64 -60s27 -59 64 -59s63 24 63 59c0 36 -26 60 -63 60zM786 59c49 0 84 30 84 72s-35 72 -84 72s-82 -30 -82 -72s33 -72 82 -72z" />
    <glyph glyph-name="period" unicode="." horiz-adv-x="288" 
d="M97 0v118h94v-118h-94z" />
    <glyph glyph-name="comma" unicode="," horiz-adv-x="318" 
d="M87 -119l39 237h95l-70 -237h-64z" />
    <glyph glyph-name="colon" unicode=":" horiz-adv-x="288" 
d="M97 420v118h94v-118h-94zM97 0v118h94v-118h-94z" />
    <glyph glyph-name="semicolon" unicode=";" horiz-adv-x="332" 
d="M141 420v118h94v-118h-94zM97 -119l39 237h95l-70 -237h-64z" />
    <glyph glyph-name="ellipsis" unicode="&#x2026;" horiz-adv-x="888" 
d="M97 0v118h94v-118h-94zM397 0v118h94v-118h-94zM697 0v118h94v-118h-94z" />
    <glyph glyph-name="exclam" unicode="!" horiz-adv-x="278" 
d="M98 217l-6 528h94l-6 -528h-82zM92 0v118h94v-118h-94z" />
    <glyph glyph-name="exclamdown" unicode="&#xa1;" horiz-adv-x="278" 
d="M92 538h94v-118h-94v118zM98 321h82l6 -528h-94z" />
    <glyph glyph-name="question" unicode="?" horiz-adv-x="569" 
d="M207 217v13c0 89 54 144 105 193c48 47 95 88 95 149c0 53 -36 101 -117 101c-82 0 -134 -42 -157 -119l-76 38c31 101 120 165 233 165c133 0 212 -88 212 -185c0 -87 -65 -141 -121 -196c-43 -43 -82 -87 -82 -148v-11h-92zM209 0v118h94v-118h-94z" />
    <glyph glyph-name="questiondown" unicode="&#xbf;" horiz-adv-x="569" 
d="M360 757v-118h-94v118h94zM361 540v-13c0 -89 -53 -144 -105 -193c-47 -47 -94 -88 -94 -149c0 -53 36 -101 117 -101c82 0 134 42 157 119l76 -38c-32 -101 -120 -165 -233 -165c-134 0 -212 88 -212 185c0 87 64 141 120 196c44 43 82 87 82 148v11h92z" />
    <glyph glyph-name="periodcentered" unicode="&#xb7;" horiz-adv-x="288" 
d="M97 310v118h94v-118h-94z" />
    <glyph glyph-name="bullet" unicode="&#x2022;" horiz-adv-x="430" 
d="M216 252c-67 0 -119 51 -119 119c0 65 52 117 119 117c66 0 116 -52 117 -117c1 -68 -51 -119 -117 -119z" />
    <glyph glyph-name="asterisk" unicode="*" horiz-adv-x="491" 
d="M162 378l-64 46l83 110l-124 42l24 75l125 -41v135h79v-135l125 41l24 -75l-124 -42l83 -110l-64 -46l-83 110z" />
    <glyph glyph-name="numbersign" unicode="#" horiz-adv-x="777" 
d="M88 0l54 187h-120v82h143l60 208h-120v82h144l53 186h94l-53 -186h198l53 186h94l-53 -186h120v-82h-144l-60 -208h120v-82h-143l-54 -187h-94l54 187h-198l-54 -187h-94zM259 269h198l60 208h-198z" />
    <glyph glyph-name="slash" unicode="/" horiz-adv-x="462" 
d="M12 0l336 745h102l-337 -745h-101z" />
    <glyph glyph-name="backslash" unicode="\" horiz-adv-x="462" 
d="M348 0l-336 745h101l337 -745h-102z" />
    <glyph glyph-name="parenleft" unicode="(" horiz-adv-x="380" 
d="M266 -148c-108 123 -164 276 -164 447s56 324 164 446h77c-96 -136 -146 -289 -146 -446s50 -310 146 -447h-77z" />
    <glyph glyph-name="parenright" unicode=")" horiz-adv-x="380" 
d="M37 -148c96 137 146 290 146 447s-50 310 -146 446h77c108 -122 164 -275 164 -446s-56 -324 -164 -447h-77z" />
    <glyph glyph-name="braceleft" unicode="{" horiz-adv-x="369" 
d="M294 -148c-93 0 -152 57 -152 146v189c0 42 -20 69 -61 69h-29v82h29c41 0 61 27 61 69v192c0 89 59 146 152 146h38v-82h-38c-36 0 -60 -26 -58 -65v-185c2 -47 -16 -87 -51 -116c33 -25 52 -67 51 -112v-186c-2 -39 22 -65 58 -65h38v-82h-38z" />
    <glyph glyph-name="braceright" unicode="}" horiz-adv-x="369" 
d="M37 -148v82h37c37 0 61 26 59 65v186c-2 45 17 87 51 112c-35 29 -53 69 -51 116v185c2 39 -22 65 -59 65h-37v82h37c93 0 153 -57 153 -146v-192c0 -42 20 -69 61 -69h29v-82h-29c-41 0 -61 -27 -61 -69v-189c0 -89 -60 -146 -153 -146h-37z" />
    <glyph glyph-name="bracketleft" unicode="[" horiz-adv-x="375" 
d="M102 -148v893h216v-82h-122v-729h122v-82h-216z" />
    <glyph glyph-name="bracketright" unicode="]" horiz-adv-x="375" 
d="M57 -148v82h122v729h-122v82h216v-893h-216z" />
    <glyph glyph-name="hyphen" unicode="-" horiz-adv-x="544" 
d="M87 228v82h370v-82h-370z" />
    <glyph glyph-name="uni00AD" unicode="&#xad;" horiz-adv-x="544" 
d="M87 228v82h370v-82h-370z" />
    <glyph glyph-name="endash" unicode="&#x2013;" horiz-adv-x="610" 
d="M87 228v82h436v-82h-436z" />
    <glyph glyph-name="emdash" unicode="&#x2014;" horiz-adv-x="863" 
d="M87 228v82h689v-82h-689z" />
    <glyph glyph-name="underscore" unicode="_" horiz-adv-x="474" 
d="M467 0v-82h-460v82h460z" />
    <glyph glyph-name="quotesinglbase" unicode="&#x201a;" horiz-adv-x="318" 
d="M87 -147l39 265h95l-70 -265h-64z" />
    <glyph glyph-name="quotedblbase" unicode="&#x201e;" horiz-adv-x="501" 
d="M87 -147l39 265h95l-70 -265h-64zM270 -147l39 265h95l-70 -265h-64z" />
    <glyph glyph-name="quotedblleft" unicode="&#x201c;" horiz-adv-x="501" 
d="M87 480l70 265h64l-39 -265h-95zM270 480l70 265h64l-39 -265h-95z" />
    <glyph glyph-name="quotedblright" unicode="&#x201d;" horiz-adv-x="501" 
d="M87 480l39 265h95l-70 -265h-64zM270 480l39 265h95l-70 -265h-64z" />
    <glyph glyph-name="quoteleft" unicode="&#x2018;" horiz-adv-x="318" 
d="M87 480l70 265h64l-39 -265h-95z" />
    <glyph glyph-name="quoteright" unicode="&#x2019;" horiz-adv-x="318" 
d="M87 480l39 265h95l-70 -265h-64z" />
    <glyph glyph-name="guillemotleft" unicode="&#xab;" horiz-adv-x="643" 
d="M209 77l-152 192l152 192h105l-152 -192l152 -192h-105zM461 77l-152 192l152 192h105l-152 -192l152 -192h-105z" />
    <glyph glyph-name="guillemotright" unicode="&#xbb;" horiz-adv-x="643" 
d="M77 77l152 192l-152 192h105l152 -192l-152 -192h-105zM329 77l152 192l-152 192h105l152 -192l-152 -192h-105z" />
    <glyph glyph-name="guilsinglleft" unicode="&#x2039;" horiz-adv-x="391" 
d="M209 77l-152 192l152 192h105l-152 -192l152 -192h-105z" />
    <glyph glyph-name="guilsinglright" unicode="&#x203a;" horiz-adv-x="391" 
d="M182 77h-105l152 192l-152 192h105l152 -192z" />
    <glyph glyph-name="quotedbl" unicode="&#x22;" horiz-adv-x="464" 
d="M97 480v265h90v-265h-90zM277 480v265h90v-265h-90z" />
    <glyph glyph-name="quotesingle" unicode="'" horiz-adv-x="284" 
d="M97 480v265h90v-265h-90z" />
    <glyph glyph-name="uni00A0" unicode="&#xa0;" horiz-adv-x="172" 
 />
    <glyph glyph-name="cent" unicode="&#xa2;" horiz-adv-x="560" 
d="M334 73c56 9 100 45 123 97l77 -41c-31 -72 -108 -130 -200 -139v-121h-76v123c-130 22 -222 133 -222 278s92 254 222 276v123h76v-120c93 -10 169 -67 200 -140l-77 -41c-23 52 -67 88 -123 97v-392zM127 269c0 -95 53 -170 131 -191v383c-78 -22 -131 -96 -131 -192z
" />
    <glyph glyph-name="currency" unicode="&#xa4;" horiz-adv-x="640" 
d="M132 25l-56 56l77 77c-22 31 -35 70 -35 111c0 40 13 79 35 111l-77 77l56 56l77 -77c32 22 71 35 111 35s78 -12 112 -35l76 77l56 -56l-76 -77c21 -32 34 -70 34 -111c0 -42 -13 -80 -34 -111l76 -77l-56 -56l-76 76c-32 -21 -70 -34 -112 -34c-38 0 -77 11 -111 34z
M320 154c64 0 116 51 116 115s-52 116 -116 116s-116 -52 -116 -116s52 -115 116 -115z" />
    <glyph glyph-name="dollar" unicode="$" horiz-adv-x="633" 
d="M587 195c0 -115 -90 -196 -224 -206v-89h-76v91c-122 18 -214 99 -246 199l84 37c29 -84 87 -136 162 -151v260l-44 13c-119 35 -179 110 -179 202c0 115 91 198 223 205v99h76v-103c109 -18 189 -90 218 -175l-83 -39c-24 69 -72 114 -135 130v-261l41 -12
c122 -37 183 -100 183 -200zM271 435l16 -5v243c-78 -7 -128 -52 -128 -116c0 -57 39 -101 112 -122zM363 72c79 9 129 54 129 116c0 63 -36 97 -110 119l-19 6v-241z" />
    <glyph glyph-name="Euro" unicode="&#x20ac;" horiz-adv-x="826" 
d="M505 72c88 0 159 53 191 145l84 -41c-42 -117 -147 -188 -275 -188c-156 0 -276 105 -316 263h-153l22 76h118c-1 15 -2 30 -2 45c0 10 0 19 1 29h-107l22 76h94c36 169 157 280 321 280c129 0 233 -71 275 -189l-84 -41c-31 92 -103 146 -191 146
c-107 0 -192 -79 -224 -196h287l-22 -76h-277c-1 -10 -1 -19 -1 -29c0 -15 1 -30 2 -45h266l-22 -76h-229c34 -110 115 -179 220 -179z" />
    <glyph glyph-name="florin" unicode="&#x192;" horiz-adv-x="630" 
d="M521 757c21 0 52 -4 73 -11l-16 -76c-14 4 -40 9 -56 9c-53 0 -95 -30 -107 -89l-56 -269h145v-78h-162l-53 -253c-22 -105 -101 -158 -191 -158c-21 0 -52 4 -73 11l16 76c14 -5 32 -9 59 -9c49 0 92 30 104 89l51 244h-153v78h170l58 278c22 104 101 158 191 158z" />
    <glyph glyph-name="lira" unicode="&#x20a4;" horiz-adv-x="801" 
d="M351 245v-163h335v-82h-549v82h120v163h-141l16 76h125v80h-117l16 76h101v56c0 133 94 224 234 224c114 0 204 -62 238 -165l-75 -38c-26 76 -84 119 -163 119c-88 0 -140 -52 -140 -140v-56h273l-16 -76h-257v-80h249l-16 -76h-233z" />
    <glyph glyph-name="sterling" unicode="&#xa3;" horiz-adv-x="784" 
d="M340 331v-249h334v-82h-548v82h120v249h-135l21 76h114v126c0 133 93 224 234 224c114 0 204 -62 238 -165l-76 -38c-25 76 -83 119 -162 119c-88 0 -140 -52 -140 -140v-126h271l-22 -76h-249z" />
    <glyph glyph-name="yen" unicode="&#xa5;" horiz-adv-x="653" 
d="M632 745l-237 -372h196v-76h-216v-74h216v-76h-216v-147h-95v147h-221v76h221v74h-221v76h201l-239 372h105l201 -314l200 314h105z" />
    <glyph glyph-name="uni2219" unicode="&#x2219;" horiz-adv-x="491" 
d="M247 219c-85 0 -150 65 -150 151c0 82 65 147 150 147c83 0 147 -65 147 -147c1 -86 -64 -151 -147 -151z" />
    <glyph glyph-name="uni2215" unicode="&#x2215;" horiz-adv-x="442" 
d="M12 0l336 745h102l-337 -745h-101z" />
    <glyph glyph-name="plus" unicode="+" horiz-adv-x="610" 
d="M263 155v172h-172v85h172v171h85v-171h171v-85h-171v-172h-85z" />
    <glyph glyph-name="minus" unicode="&#x2212;" horiz-adv-x="660" 
d="M116 327v85h428v-85h-428z" />
    <glyph glyph-name="multiply" unicode="&#xd7;" horiz-adv-x="588" 
d="M151 167l-60 60l143 143l-142 143l60 60l142 -143l142 143l61 -60l-143 -143l143 -143l-60 -60l-143 143z" />
    <glyph glyph-name="divide" unicode="&#xf7;" horiz-adv-x="662" 
d="M284 526v118h94v-118h-94zM96 327v85h470v-85h-470zM284 95v118h94v-118h-94z" />
    <glyph glyph-name="equal" unicode="=" horiz-adv-x="654" 
d="M116 447v85h422v-85h-422zM116 207v85h422v-85h-422z" />
    <glyph glyph-name="notequal" unicode="&#x2260;" horiz-adv-x="654" 
d="M538 447h-142l-43 -155h185v-85h-208l-27 -100h-83l27 100h-131v85h154l43 155h-197v85h220l27 100h83l-27 -100h119v-85z" />
    <glyph glyph-name="greater" unicode="&#x3e;" horiz-adv-x="554" 
d="M75 0v95l317 174l-317 174v95l424 -227v-84z" />
    <glyph glyph-name="less" unicode="&#x3c;" horiz-adv-x="574" 
d="M499 0l-424 227v84l424 227v-95l-317 -174l317 -174v-95z" />
    <glyph glyph-name="greaterequal" unicode="&#x2265;" horiz-adv-x="602" 
d="M100 176v95l316 174l-316 174v95l423 -227v-84zM75 0v80h472v-80h-472z" />
    <glyph glyph-name="lessequal" unicode="&#x2264;" horiz-adv-x="622" 
d="M523 176l-424 227v84l424 227v-95l-317 -174l317 -174v-95zM75 0v80h472v-80h-472z" />
    <glyph glyph-name="plusminus" unicode="&#xb1;" horiz-adv-x="610" 
d="M263 168v172h-172v85h172v171h85v-171h171v-85h-171v-172h-85zM91 0v84h428v-84h-428z" />
    <glyph glyph-name="approxequal" unicode="&#x2248;" horiz-adv-x="730" 
d="M116 407v79c39 42 94 61 148 61c96 0 121 -58 207 -58c51 0 105 20 143 59v-79c-36 -40 -88 -61 -144 -61c-98 0 -124 58 -211 58c-50 0 -105 -21 -143 -59zM116 191v79c37 39 89 61 148 61c96 0 121 -58 207 -58c51 0 105 20 143 59v-79c-36 -40 -89 -61 -144 -61
c-98 0 -124 58 -211 58c-50 0 -105 -21 -143 -59z" />
    <glyph glyph-name="asciitilde" unicode="~" horiz-adv-x="678" 
d="M437 293c-89 0 -118 69 -180 69c-37 0 -62 -23 -68 -65h-78c8 96 59 146 135 146c89 0 118 -69 180 -69c33 0 55 19 63 65h78c-8 -95 -54 -146 -130 -146z" />
    <glyph glyph-name="logicalnot" unicode="&#xac;" horiz-adv-x="620" 
d="M439 182v145h-343v85h428v-230h-85z" />
    <glyph glyph-name="asciicircum" unicode="^" horiz-adv-x="605" 
d="M514 424h-101l-109 211l-111 -211h-102l169 321h85z" />
    <glyph glyph-name="infinity" unicode="&#x221e;" horiz-adv-x="848" 
d="M283 189c-98 0 -177 79 -177 177s79 177 177 177c57 0 110 -28 141 -71c33 45 85 71 141 71c99 0 177 -80 177 -177c0 -98 -79 -177 -177 -177c-56 0 -108 26 -141 71c-31 -43 -84 -71 -141 -71zM283 261c57 0 105 48 105 105c0 56 -48 105 -105 105s-105 -49 -105 -105
c0 -57 48 -105 105 -105zM565 261c57 0 105 48 105 105s-49 105 -105 105c-57 0 -105 -48 -105 -105s48 -105 105 -105z" />
    <glyph glyph-name="integral" unicode="&#x222b;" horiz-adv-x="438" 
d="M75 -200c-12 0 -37 2 -50 5v76c13 -2 32 -3 46 -3c57 0 99 34 99 99v603c0 115 80 177 182 177c12 0 36 -2 50 -5v-76c-13 2 -32 3 -46 3c-57 0 -100 -34 -100 -99v-603c0 -115 -79 -177 -181 -177z" />
    <glyph glyph-name="product" unicode="&#x220f;" horiz-adv-x="829" 
d="M219 0v662h-147v83h685v-83h-146v-662h-95v662h-202v-662h-95z" />
    <glyph glyph-name="summation" unicode="&#x2211;" horiz-adv-x="572" 
d="M65 0v67l193 306l-193 305v67h452v-82h-351l180 -290l-180 -291h351v-82h-452z" />
    <glyph glyph-name="radical" unicode="&#x221a;" horiz-adv-x="811" 
d="M243 0l-157 369h84l113 -271l266 647h176v-82h-121l-282 -663h-79z" />
    <glyph glyph-name="uni00B5" unicode="&#xb5;" horiz-adv-x="547" 
d="M56 -200v738h82v-349c0 -77 47 -124 119 -124c49 0 103 19 142 51v422h82v-538h-82v35c-43 -29 -100 -47 -153 -47c-41 0 -79 12 -108 35v-223h-82z" />
    <glyph glyph-name="partialdiff" unicode="&#x2202;" horiz-adv-x="613" 
d="M201 819c213 0 382 -220 382 -495c0 -206 -104 -336 -277 -336c-160 0 -276 118 -276 282c0 163 119 280 284 280c45 0 93 -8 140 -24c-42 132 -140 211 -257 211c-35 0 -67 -7 -105 -22l-14 79c43 17 82 25 123 25zM306 71c110 0 186 91 185 240c0 29 -4 64 -12 114
c-51 26 -110 42 -163 42c-119 0 -195 -78 -195 -198c0 -114 78 -198 185 -198z" />
    <glyph glyph-name="percent" unicode="%" horiz-adv-x="1040" 
d="M276 398c-100 0 -180 80 -180 179c0 100 80 180 180 180c98 0 178 -80 178 -180c0 -99 -80 -179 -178 -179zM301 0l336 745h98l-337 -745h-97zM276 478c53 0 99 46 99 99c0 54 -46 99 -99 99c-55 0 -99 -45 -99 -99c0 -53 44 -99 99 -99zM764 -12c-98 0 -178 79 -178 179
c0 99 80 179 178 179c100 0 180 -80 180 -179c0 -100 -80 -179 -180 -179zM764 68c55 0 99 45 99 99c0 53 -44 99 -99 99c-53 0 -99 -46 -99 -99c0 -54 46 -99 99 -99z" />
    <glyph glyph-name="perthousand" unicode="&#x2030;" horiz-adv-x="1219" 
d="M276 398c-100 0 -180 80 -180 179c0 100 80 180 180 180c98 0 178 -80 178 -180c0 -99 -80 -179 -178 -179zM943 399c-99 0 -179 79 -179 179c0 99 80 179 179 179s180 -80 180 -179c0 -100 -81 -179 -180 -179zM301 0l336 745h98l-337 -745h-97zM943 479
c54 0 99 45 99 99c0 53 -45 99 -99 99s-99 -46 -99 -99c0 -54 45 -99 99 -99zM276 478c53 0 99 46 99 99c0 54 -46 99 -99 99c-55 0 -99 -45 -99 -99c0 -53 44 -99 99 -99zM764 -12c-98 0 -178 79 -178 179c0 99 80 179 178 179c100 0 180 -80 180 -179
c0 -100 -80 -179 -180 -179zM764 68c55 0 99 45 99 99c0 53 -44 99 -99 99c-53 0 -99 -46 -99 -99c0 -54 46 -99 99 -99z" />
    <glyph glyph-name="lozenge" unicode="&#x25ca;" horiz-adv-x="685" 
d="M613 373l-239 -373h-63l-239 373l239 372h63zM342 90l180 283l-180 282l-180 -282z" />
    <glyph glyph-name="uniF8FF" unicode="&#xf8ff;" horiz-adv-x="600" 
d="M50 400v100h100v-2l-98 -98h-2zM250 400v100h100v-100h-100zM50 200v100h100v-100h-100zM250 200v100h100v-100h-100zM450 200v100h100v-100h-100zM250 0v100h100v-100h-100z" />
    <glyph glyph-name="at" unicode="@" horiz-adv-x="945" 
d="M473 757c234 0 418 -183 418 -416c0 -136 -67 -221 -173 -221c-61 0 -108 29 -127 76c-30 -41 -82 -63 -142 -63c-116 0 -205 90 -205 213c0 122 90 215 205 215c60 0 113 -26 140 -71v61h78v-278c0 -48 22 -76 58 -76c50 0 81 55 81 144c0 197 -138 338 -333 338
c-194 0 -333 -142 -333 -338c0 -195 140 -338 333 -338c63 0 120 14 166 40l36 -67c-57 -33 -128 -51 -202 -51c-238 0 -419 181 -419 416s183 416 419 416zM455 210c74 0 129 59 129 138c0 77 -55 134 -129 134c-74 1 -129 -57 -129 -136c0 -77 56 -136 129 -136z" />
    <glyph glyph-name="ampersand" unicode="&#x26;" horiz-adv-x="878" 
d="M787 346l-170 -175l165 -171h-113l-108 114c-92 -91 -158 -126 -245 -126c-132 0 -225 81 -225 196c0 88 50 155 160 210l29 14l-2 2c-56 58 -82 113 -82 168c0 101 85 179 195 179c107 0 187 -73 187 -172c0 -77 -48 -131 -157 -186l-15 -8l159 -165l123 120h99z
M350 449l4 -4l19 9c90 45 123 80 123 131c0 59 -43 100 -105 100c-64 0 -113 -46 -113 -107c0 -39 21 -77 72 -129zM502 165l5 5l-175 184l-37 -19c-72 -36 -110 -87 -110 -149c0 -72 52 -118 134 -118c68 0 120 36 183 97z" />
    <glyph glyph-name="paragraph" unicode="&#xb6;" horiz-adv-x="404" 
d="M57 569c0 99 75 176 175 176h95v-845h-95v493c-100 0 -175 76 -175 176z" />
    <glyph glyph-name="section" unicode="&#xa7;" horiz-adv-x="621" 
d="M449 237c51 -29 76 -71 76 -121c0 -93 -80 -157 -196 -157c-107 0 -193 56 -228 147l73 36c27 -66 83 -104 155 -104c63 0 107 32 107 78c0 35 -27 59 -84 75l-88 24c-91 25 -138 76 -138 150c0 52 24 93 69 118c-47 28 -69 68 -69 118c0 94 75 156 187 156
c100 0 180 -51 211 -136l-73 -35c-23 58 -73 91 -138 91c-60 0 -98 -28 -98 -71c0 -35 25 -60 78 -76l93 -27c91 -26 139 -79 139 -151c0 -54 -27 -92 -76 -115zM357 274c50 8 82 38 82 78c0 36 -27 61 -86 77l-70 19c-44 -10 -71 -41 -71 -78s27 -61 80 -77z" />
    <glyph glyph-name="copyright" unicode="&#xa9;" horiz-adv-x="961" 
d="M481 -12c-214 0 -385 171 -385 385c0 211 170 384 385 384c213 0 384 -172 384 -384c0 -214 -172 -385 -384 -385zM481 64c172 0 308 136 308 309c0 171 -136 308 -308 308c-173 0 -309 -136 -309 -308c0 -173 136 -309 309 -309zM485 167c-113 0 -198 87 -198 206
s85 205 198 205c85 0 149 -48 169 -104l-65 -32c-15 40 -52 70 -104 70c-74 0 -125 -58 -125 -139c0 -82 51 -140 125 -140c54 0 90 32 104 71l65 -33c-20 -56 -83 -104 -169 -104z" />
    <glyph glyph-name="registered" unicode="&#xae;" horiz-adv-x="961" 
d="M481 757c213 0 384 -172 384 -384c0 -214 -172 -385 -384 -385c-214 0 -385 171 -385 385c0 211 170 384 385 384zM481 64c172 0 308 136 308 309c0 171 -136 308 -308 308c-173 0 -309 -136 -309 -308c0 -173 136 -309 309 -309zM641 449c0 -56 -28 -94 -72 -113
l92 -160h-84l-82 147h-78v-147h-74v399h158c83 0 140 -46 140 -126zM417 511v-123h85c39 0 65 25 65 61s-26 62 -65 62h-85z" />
    <glyph glyph-name="trademark" unicode="&#x2122;" horiz-adv-x="1101" 
d="M91 674v71h357v-71h-137v-451h-81v451h-139zM934 745h76v-522h-81v376l-166 -228h-9l-165 232v-380h-81v522h76l174 -244z" />
    <glyph glyph-name="degree" unicode="&#xb0;" horiz-adv-x="514" 
d="M257 435c-88 0 -161 72 -161 161s72 161 161 161s161 -72 161 -161s-72 -161 -161 -161zM256 505c50 0 92 41 92 91s-42 91 -92 91c-49 0 -90 -41 -90 -91s41 -91 90 -91z" />
    <glyph glyph-name="bar" unicode="|" horiz-adv-x="346" 
d="M126 -190v1035h94v-1035h-94z" />
    <glyph glyph-name="brokenbar" unicode="&#xa6;" horiz-adv-x="346" 
d="M126 469v376h94v-376h-94zM126 -190v376h94v-376h-94z" />
    <glyph glyph-name="dagger" unicode="&#x2020;" horiz-adv-x="732" 
d="M319 -195v651h-223v82h223v207h94v-207h223v-82h-223v-651h-94z" />
    <glyph glyph-name="uni2113" unicode="&#x2113;" horiz-adv-x="532" 
d="M307 -2c-70 0 -126 46 -160 124c-55 -26 -100 -41 -123 -47l-15 61c26 6 70 21 119 45c-11 40 -17 87 -17 140c0 225 106 401 237 401c92 0 156 -88 156 -197c0 -175 -162 -301 -298 -375c23 -58 59 -92 104 -92c60 0 112 54 121 129l62 -7c-15 -107 -96 -182 -186 -182z
M193 216c116 64 243 169 243 310c0 75 -37 134 -91 134c-85 0 -162 -145 -165 -323c0 -46 5 -86 13 -121z" />
    <glyph glyph-name="daggerdbl" unicode="&#x2021;" horiz-adv-x="732" 
d="M319 -195v207h-223v82h223v362h-223v82h223v207h94v-207h223v-82h-223v-362h223v-82h-223v-207h-94z" />
    <glyph glyph-name="estimated" unicode="&#x212e;" horiz-adv-x="822" 
d="M419 -10c-228 0 -383 161 -383 359c0 200 159 361 380 361s380 -161 380 -360v-9h-609c-3 0 -5 -3 -5 -6v-195c0 -9 0 -11 10 -22c52 -60 117 -106 227 -106c108 0 172 44 236 117h58c-70 -83 -150 -139 -294 -139zM187 360h458c3 0 4 3 4 6v196c0 4 0 14 -10 24
c-61 64 -114 102 -223 102s-174 -48 -223 -105c-11 -13 -11 -14 -11 -24v-193c0 -3 2 -6 5 -6z" />
    <glyph glyph-name="uni0308" unicode="&#x308;" 
d="M-260 640c-35 0 -62 27 -62 62c0 34 27 61 62 61c34 0 61 -27 61 -61c0 -35 -27 -62 -61 -62zM-82 640c-35 0 -62 27 -62 62c0 34 27 61 62 61c33 0 62 -27 62 -61s-28 -62 -62 -62z" />
    <glyph glyph-name="uni0307" unicode="&#x307;" 
d="M-81 640c-35 0 -62 27 -62 62c0 34 27 61 62 61c34 0 61 -27 61 -61c0 -35 -27 -62 -61 -62z" />
    <glyph glyph-name="gravecomb" unicode="&#x300;" 
d="M-20 640h-71l-92 154h88z" />
    <glyph glyph-name="acutecomb" unicode="&#x301;" 
d="M-183 640l76 154h87l-92 -154h-71z" />
    <glyph glyph-name="uni030B" unicode="&#x30b;" 
d="M-334 640l76 155h87l-92 -155h-71zM-184 640l77 155h87l-93 -155h-71z" />
    <glyph glyph-name="uni030C.alt" 
d="M-103 503l-21 242h104l-20 -242h-63z" />
    <glyph glyph-name="uni0302" unicode="&#x302;" 
d="M-220 794h84l116 -154h-77l-81 109l-79 -109h-77z" />
    <glyph glyph-name="uni030C" unicode="&#x30c;" 
d="M-220 640l-114 154h77l79 -109l81 109h77l-116 -154h-84z" />
    <glyph glyph-name="uni0306" unicode="&#x306;" 
d="M-162 640c-78 0 -141 63 -141 138h63c0 -43 36 -79 78 -79c43 0 80 36 80 79h62c0 -76 -63 -138 -142 -138z" />
    <glyph glyph-name="uni030A" unicode="&#x30a;" 
d="M-123 640c-57 0 -102 44 -102 99s44 99 102 99s103 -44 103 -99c0 -54 -45 -99 -103 -99zM-123 693c27 0 48 21 48 46s-21 45 -48 45s-47 -20 -47 -45s21 -46 47 -46z" />
    <glyph glyph-name="tildecomb" unicode="&#x303;" 
d="M-121 640c-61 0 -87 45 -128 45c-16 0 -34 -9 -37 -39h-67c4 68 52 103 102 103c58 0 86 -45 127 -45c16 0 35 10 38 40h66c-5 -69 -50 -104 -101 -104z" />
    <glyph glyph-name="uni0304" unicode="&#x304;" 
d="M-249 640v67h229v-67h-229z" />
    <glyph glyph-name="uni0326" unicode="&#x326;" 
d="M-190 -240l65 190h105l-108 -190h-62z" />
    <glyph glyph-name="uni0327" unicode="&#x327;" 
d="M-134 -207c-39 0 -81 14 -116 46l28 46c18 -19 49 -33 81 -33c35 0 57 19 57 50c0 37 -33 75 -104 101l41 15c81 -24 127 -72 127 -130c0 -62 -54 -95 -114 -95z" />
    <glyph glyph-name="uni0328" unicode="&#x328;" 
d="M-137 -203c-60 0 -113 32 -113 95c0 56 46 105 134 128l34 -14c-73 -27 -104 -66 -104 -100c0 -32 22 -50 57 -50c31 0 62 13 81 32l28 -47c-33 -29 -73 -44 -117 -44z" />
    <glyph glyph-name="uni0335" unicode="&#x335;" 
d="M-427 285v82h407v-82h-407z" />
    <glyph glyph-name="uni0335.alt" 
d="M-327 287v77h307v-77h-307z" />
    <glyph glyph-name="uni0336" unicode="&#x336;" 
d="M-694 287v77h674v-77h-674z" />
    <glyph glyph-name="dieresis" unicode="&#xa8;" horiz-adv-x="342" 
d="M82 640c-35 0 -62 27 -62 62c0 34 27 61 62 61c34 0 61 -27 61 -61c0 -35 -27 -62 -61 -62zM260 640c-35 0 -62 27 -62 62c0 34 27 61 62 61c33 0 62 -27 62 -61s-28 -62 -62 -62z" />
    <glyph glyph-name="dotaccent" unicode="&#x2d9;" horiz-adv-x="163" 
d="M82 640c-35 0 -62 27 -62 62c0 34 27 61 62 61c34 0 61 -27 61 -61c0 -35 -27 -62 -61 -62z" />
    <glyph glyph-name="grave" unicode="`" horiz-adv-x="203" 
d="M183 640h-71l-92 154h88z" />
    <glyph glyph-name="acute" unicode="&#xb4;" horiz-adv-x="203" 
d="M20 640l76 154h87l-92 -154h-71z" />
    <glyph glyph-name="hungarumlaut" unicode="&#x2dd;" horiz-adv-x="354" 
d="M20 640l76 155h87l-92 -155h-71zM170 640l77 155h87l-93 -155h-71z" />
    <glyph glyph-name="circumflex" unicode="&#x2c6;" horiz-adv-x="354" 
d="M134 794h84l116 -154h-77l-81 109l-79 -109h-77z" />
    <glyph glyph-name="caron" unicode="&#x2c7;" horiz-adv-x="354" 
d="M134 640l-114 154h77l79 -109l81 109h77l-116 -154h-84z" />
    <glyph glyph-name="breve" unicode="&#x2d8;" horiz-adv-x="323" 
d="M161 640c-78 0 -141 63 -141 138h63c0 -43 36 -79 78 -79c43 0 80 36 80 79h62c0 -76 -63 -138 -142 -138z" />
    <glyph glyph-name="ring" unicode="&#x2da;" horiz-adv-x="245" 
d="M122 640c-57 0 -102 44 -102 99s44 99 102 99s103 -44 103 -99c0 -54 -45 -99 -103 -99zM122 693c27 0 48 21 48 46s-21 45 -48 45s-47 -20 -47 -45s21 -46 47 -46z" />
    <glyph glyph-name="tilde" unicode="&#x2dc;" horiz-adv-x="373" 
d="M252 640c-61 0 -87 45 -128 45c-16 0 -34 -9 -37 -39h-67c4 68 52 103 102 103c58 0 86 -45 127 -45c16 0 35 10 38 40h66c-5 -69 -50 -104 -101 -104z" />
    <glyph glyph-name="macron" unicode="&#xaf;" horiz-adv-x="269" 
d="M20 640v67h229v-67h-229z" />
    <glyph glyph-name="cedilla" unicode="&#xb8;" horiz-adv-x="270" 
d="M136 -207c-39 0 -81 14 -116 46l28 46c18 -19 49 -33 81 -33c35 0 57 19 57 50c0 37 -33 75 -104 101l41 15c81 -24 127 -72 127 -130c0 -62 -54 -95 -114 -95z" />
    <glyph glyph-name="ogonek" unicode="&#x2db;" horiz-adv-x="270" 
d="M133 -203c-60 0 -113 32 -113 95c0 56 46 105 134 128l34 -14c-73 -27 -104 -66 -104 -100c0 -32 22 -50 57 -50c31 0 62 13 81 32l28 -47c-33 -29 -73 -44 -117 -44z" />
    </font>
</defs>
</svg>
