<?xml version="1.0" standalone="no"?>
<!DOCTYPE svg PUBLIC "-//W3C//DTD SVG 1.1//EN" "http://www.w3.org/Graphics/SVG/1.1/DTD/svg11.dtd" >
<svg xmlns="http://www.w3.org/2000/svg" xmlns:xlink="http://www.w3.org/1999/xlink" version="1.1">
<metadata>
Created by FontForge 20190801 at Sat Feb 22 17:45:23 2020
 By Jimmy Wärting
Copyright 2020 The Plus Jakarta Display Project Authors \(https://github.com/tokotype/PlusJakartaSans\)
</metadata>
<defs>
<font id="PlusJakartaDisplay-Medium" horiz-adv-x="0" >
  <font-face 
    font-family="Plus Jakarta Display Medium"
    font-weight="500"
    font-stretch="normal"
    units-per-em="1000"
    panose-1="0 0 6 0 0 0 0 0 0 0"
    ascent="800"
    descent="-200"
    x-height="539"
    cap-height="745"
    bbox="-720 -240 1197 1059"
    underline-thickness="79"
    underline-position="-220"
    stemh="111"
    stemv="124"
    unicode-range="U+000D-FB02"
  />
<missing-glyph horiz-adv-x="640" 
d="M60 675v70h520v-70h-520zM60 450v70h520v-70h-520zM60 225v70h520v-70h-520zM60 0v70h520v-70h-520z" />
    <glyph glyph-name="fi" unicode="fi" horiz-adv-x="595" 
d="M105 0v431h-97v108h97v31c0 121 79 190 197 190c16 0 39 -2 52 -5v-104c-12 2 -28 3 -37 3c-57 0 -92 -29 -92 -84v-31h122v-108h-122v-431h-120zM422 610v135h120v-135h-120zM422 0v539h120v-539h-120z" />
    <glyph glyph-name="fl" unicode="fl" horiz-adv-x="603" 
d="M105 0v431h-97v108h97v31c0 121 79 190 197 190c16 0 39 -2 52 -5v-104c-12 2 -28 3 -37 3c-57 0 -92 -29 -92 -84v-31h122v-108h-122v-431h-120zM426 0v745h120v-745h-120z" />
    <glyph glyph-name=".notdef" horiz-adv-x="640" 
d="M60 675v70h520v-70h-520zM60 450v70h520v-70h-520zM60 225v70h520v-70h-520zM60 0v70h520v-70h-520z" />
    <glyph glyph-name="NULL" 
 />
    <glyph glyph-name="NULL" 
 />
    <glyph glyph-name="CR" unicode="&#xd;" horiz-adv-x="176" 
 />
    <glyph glyph-name="space" unicode=" " horiz-adv-x="176" 
 />
    <glyph glyph-name="A" unicode="A" horiz-adv-x="708" 
d="M434 745l262 -745h-134l-56 164h-304l-55 -164h-134l261 745h160zM239 275h230l-115 338z" />
    <glyph glyph-name="A.ss02" horiz-adv-x="734" 
d="M447 745l262 -745h-134l-56 164h-304l-55 -164h-134l224 638h-123v107h320zM252 275h230l-114 341z" />
    <glyph glyph-name="Aacute" unicode="&#xc1;" horiz-adv-x="708" 
d="M492 1005l-94 -158h-88l71 158h111zM434 745l262 -745h-134l-56 164h-304l-55 -164h-134l261 745h160zM239 275h230l-115 338z" />
    <glyph glyph-name="Acircumflex" unicode="&#xc2;" horiz-adv-x="708" 
d="M355 952l-74 -105h-96l117 157h105l118 -157h-94zM434 745l262 -745h-134l-56 164h-304l-55 -164h-134l261 745h160zM239 275h230l-115 338z" />
    <glyph glyph-name="Adieresis" unicode="&#xc4;" horiz-adv-x="708" 
d="M256 847c-40 0 -71 31 -71 71c0 38 31 70 71 70c38 0 70 -32 70 -70c0 -40 -32 -71 -70 -71zM454 847c-40 0 -71 31 -71 71c0 39 32 70 71 70s70 -32 70 -70c0 -40 -32 -71 -70 -71zM434 745l262 -745h-134l-56 164h-304l-55 -164h-134l261 745h160zM239 275h230
l-115 338z" />
    <glyph glyph-name="Agrave" unicode="&#xc0;" horiz-adv-x="708" 
d="M402 847h-88l-94 158h112zM434 745l262 -745h-134l-56 164h-304l-55 -164h-134l261 745h160zM239 275h230l-115 338z" />
    <glyph glyph-name="Aring" unicode="&#xc5;" horiz-adv-x="708" 
d="M355 847c-64 0 -112 48 -112 105c0 60 48 107 112 107s112 -48 112 -107c0 -56 -48 -105 -112 -105zM355 994c-25 0 -44 -18 -44 -41s19 -42 44 -42s44 19 44 42s-19 41 -44 41zM434 745l262 -745h-134l-56 164h-304l-55 -164h-134l261 745h160zM239 275h230l-115 338z
" />
    <glyph glyph-name="Atilde" unicode="&#xc3;" horiz-adv-x="708" 
d="M287 893c-17 0 -31 -9 -35 -39h-85c7 89 70 120 118 120c59 0 97 -45 136 -45c18 0 34 10 36 38h85c-7 -79 -57 -120 -119 -120c-65 0 -95 46 -136 46zM434 745l262 -745h-134l-56 164h-304l-55 -164h-134l261 745h160zM239 275h230l-115 338z" />
    <glyph glyph-name="AE" unicode="&#xc6;" horiz-adv-x="1005" 
d="M13 0l261 745h684v-111h-367v-205h347v-111h-347v-207h367l-1 -111h-493v164h-262l-55 -164h-134zM239 275h225v359h-102z" />
    <glyph glyph-name="B" unicode="B" horiz-adv-x="677" 
d="M549 401c68 -43 94 -105 94 -175c0 -142 -100 -226 -262 -226h-313v745h313c143 0 232 -79 232 -206c0 -54 -20 -102 -64 -138zM194 638v-186h191c60 0 99 37 99 93c0 55 -39 93 -99 93h-191zM392 111c74 0 123 46 123 115s-49 115 -123 115h-198v-230h198z" />
    <glyph glyph-name="C" unicode="C" horiz-adv-x="763" 
d="M414 -12c-213 0 -371 163 -371 385s157 384 371 384c157 0 273 -90 311 -194l-112 -54c-31 79 -102 134 -199 134c-145 0 -245 -110 -245 -270c0 -161 100 -271 245 -271c97 0 168 55 199 134l112 -54c-38 -104 -154 -194 -311 -194z" />
    <glyph glyph-name="Ccedilla" unicode="&#xc7;" horiz-adv-x="763" 
d="M414 102c97 0 168 55 199 134l112 -54c-31 -86 -116 -162 -233 -186c42 -25 64 -61 64 -103c0 -70 -61 -102 -124 -102c-37 0 -84 11 -126 47l34 58c18 -19 50 -33 83 -33c32 0 55 18 55 49c0 26 -19 54 -66 76c-212 1 -369 164 -369 385c0 222 157 384 371 384
c157 0 273 -90 311 -194l-112 -54c-31 79 -102 134 -199 134c-145 0 -245 -110 -245 -270c0 -161 100 -271 245 -271z" />
    <glyph glyph-name="D" unicode="D" horiz-adv-x="739" 
d="M68 0v745h243c234 0 385 -152 385 -372s-151 -373 -385 -373h-243zM194 111h120c155 0 254 103 254 262s-100 261 -254 261h-120v-523z" />
    <glyph glyph-name="Eth" unicode="&#xd0;" horiz-adv-x="739" 
d="M68 0v319h-115v108h115v318h243c234 0 385 -152 385 -372s-151 -373 -385 -373h-243zM194 111h120c155 0 254 103 254 262s-100 261 -254 261h-120v-207h188v-108h-188v-208z" />
    <glyph glyph-name="E" unicode="E" horiz-adv-x="608" 
d="M68 0v745h493v-111h-367v-205h347v-111h-347v-207h367l-1 -111h-492z" />
    <glyph glyph-name="E.ss02" horiz-adv-x="694" 
d="M188 0v638h-120v107h579v-107h-329v-211h309v-108h-309v-211h329v-108h-459z" />
    <glyph glyph-name="Eacute" unicode="&#xc9;" horiz-adv-x="608" 
d="M260 847l71 158h111l-94 -158h-88zM68 0v745h493v-111h-367v-205h347v-111h-347v-207h367l-1 -111h-492z" />
    <glyph glyph-name="Ecircumflex" unicode="&#xca;" horiz-adv-x="608" 
d="M251 1004h105l118 -157h-94l-76 105l-74 -105h-96zM68 0v745h493v-111h-367v-205h347v-111h-347v-207h367l-1 -111h-492z" />
    <glyph glyph-name="Edieresis" unicode="&#xcb;" horiz-adv-x="608" 
d="M206 847c-40 0 -71 31 -71 71c0 38 31 70 71 70c38 0 70 -32 70 -70c0 -40 -32 -71 -70 -71zM404 847c-40 0 -71 31 -71 71c0 39 32 70 71 70s70 -32 70 -70c0 -40 -32 -71 -70 -71zM68 0v745h493v-111h-367v-205h347v-111h-347v-207h367l-1 -111h-492z" />
    <glyph glyph-name="Egrave" unicode="&#xc8;" horiz-adv-x="608" 
d="M352 847h-88l-94 158h112zM68 0v745h493v-111h-367v-205h347v-111h-347v-207h367l-1 -111h-492z" />
    <glyph glyph-name="F" unicode="F" horiz-adv-x="594" 
d="M68 0v745h498v-111h-372v-218h334v-110h-334v-306h-126z" />
    <glyph glyph-name="F.ss02" horiz-adv-x="674" 
d="M188 0v638h-120v107h579v-107h-329v-224h290v-107h-290v-307h-130z" />
    <glyph glyph-name="G" unicode="G" horiz-adv-x="785" 
d="M424 -12c-220 0 -381 164 -381 385c0 220 158 384 371 384c151 0 270 -84 311 -194l-112 -54c-31 81 -104 134 -199 134c-145 0 -245 -111 -245 -270c0 -161 101 -271 255 -271c104 0 175 47 201 108v86h-200v111h322v-207c-36 -121 -153 -212 -323 -212z" />
    <glyph glyph-name="G.ss02" horiz-adv-x="790" 
d="M392 404h360v-404h-113l1 87c-57 -68 -138 -99 -226 -99c-211 0 -371 167 -371 387c0 215 157 382 371 382c150 0 271 -84 312 -194l-113 -54c-32 83 -105 134 -199 134c-143 0 -245 -115 -245 -269c0 -161 103 -272 250 -272c120 0 218 70 219 194h-246v108z" />
    <glyph glyph-name="G.ss03" horiz-adv-x="806" 
d="M769 361c1 -261 -173 -373 -351 -373c-217 0 -375 163 -375 385s157 384 371 384c157 0 273 -90 311 -194l-112 -54c-31 79 -102 134 -199 134c-145 0 -245 -110 -245 -270c0 -161 100 -271 249 -271c107 0 211 58 216 201h-243v107h378v-49z" />
    <glyph glyph-name="H" unicode="H" horiz-adv-x="720" 
d="M68 0v745h126v-334h332v334h127v-745h-127v300h-332v-300h-126z" />
    <glyph glyph-name="I" unicode="I" horiz-adv-x="262" 
d="M68 0v745h126v-745h-126z" />
    <glyph glyph-name="I.ss02" horiz-adv-x="462" 
d="M45 0v111h121v523h-121v111h371v-111h-120v-523h120v-111h-371z" />
    <glyph glyph-name="Iacute" unicode="&#xcd;" horiz-adv-x="262" 
d="M87 847l71 158h111l-94 -158h-88zM68 0v745h126v-745h-126z" />
    <glyph glyph-name="Icircumflex" unicode="&#xce;" horiz-adv-x="262" 
d="M78 1004h105l118 -157h-94l-76 105l-74 -105h-96zM68 0v745h126v-745h-126z" />
    <glyph glyph-name="Idieresis" unicode="&#xcf;" horiz-adv-x="262" 
d="M33 847c-40 0 -71 31 -71 71c0 38 31 70 71 70c38 0 70 -32 70 -70c0 -40 -32 -71 -70 -71zM231 847c-40 0 -71 31 -71 71c0 39 32 70 71 70s70 -32 70 -70c0 -40 -32 -71 -70 -71zM68 0v745h126v-745h-126z" />
    <glyph glyph-name="Igrave" unicode="&#xcc;" horiz-adv-x="262" 
d="M178 847h-88l-94 158h112zM68 0v745h126v-745h-126z" />
    <glyph glyph-name="J" unicode="J" horiz-adv-x="363" 
d="M18 0v118h44c65 0 107 41 107 105v522h127v-518c0 -137 -91 -227 -234 -227h-44z" />
    <glyph glyph-name="J.ss03" horiz-adv-x="590" 
d="M275 -12c-143 0 -234 86 -257 215l118 33c18 -85 63 -134 139 -134c73 0 121 49 121 128v515h126v-515c0 -146 -98 -242 -247 -242z" />
    <glyph glyph-name="K" unicode="K" horiz-adv-x="664" 
d="M380 469l276 -469h-144l-215 370l-103 -118v-252h-126v745h126v-318l275 318h147z" />
    <glyph glyph-name="K.ss03" horiz-adv-x="703" 
d="M662 102h33v-108h-33c-119 0 -166 35 -239 160l-127 216l-102 -118v-252h-126v745h126v-318l275 318h147l-236 -276l166 -279c38 -65 64 -88 116 -88z" />
    <glyph glyph-name="L" unicode="L" horiz-adv-x="555" 
d="M68 0v745h126v-634h334v-111h-460z" />
    <glyph glyph-name="Lslash" unicode="&#x141;" horiz-adv-x="555" 
d="M68 0v292l-132 -34v108l132 34v345h126v-313l130 34v-108l-130 -33v-214h334v-111h-460z" />
    <glyph glyph-name="M" unicode="M" horiz-adv-x="870" 
d="M683 745h120v-745h-127v520l-234 -315h-14l-234 323v-528h-126v745h120l247 -337z" />
    <glyph glyph-name="N" unicode="N" horiz-adv-x="726" 
d="M532 745h127v-745h-101l-364 506v-506h-126v745h100l364 -501v501z" />
    <glyph glyph-name="Ntilde" unicode="&#xd1;" horiz-adv-x="726" 
d="M295 893c-17 0 -31 -9 -35 -39h-85c7 89 70 120 118 120c59 0 97 -45 136 -45c18 0 34 10 36 38h85c-7 -79 -57 -120 -119 -120c-65 0 -95 46 -136 46zM532 745h127v-745h-101l-364 506v-506h-126v745h100l364 -501v501z" />
    <glyph glyph-name="O" unicode="O" horiz-adv-x="859" 
d="M429 -12c-218 0 -386 164 -386 385s167 384 386 384s387 -163 387 -384s-168 -385 -387 -385zM429 104c150 0 260 115 260 269c0 153 -110 268 -260 268s-260 -115 -260 -268c0 -154 111 -269 260 -269z" />
    <glyph glyph-name="Oacute" unicode="&#xd3;" horiz-adv-x="859" 
d="M385 847l71 158h111l-94 -158h-88zM429 -12c-218 0 -386 164 -386 385s167 384 386 384s387 -163 387 -384s-168 -385 -387 -385zM429 104c150 0 260 115 260 269c0 153 -110 268 -260 268s-260 -115 -260 -268c0 -154 111 -269 260 -269z" />
    <glyph glyph-name="Ocircumflex" unicode="&#xd4;" horiz-adv-x="859" 
d="M376 1004h105l118 -157h-94l-76 105l-74 -105h-96zM429 -12c-218 0 -386 164 -386 385s167 384 386 384s387 -163 387 -384s-168 -385 -387 -385zM429 104c150 0 260 115 260 269c0 153 -110 268 -260 268s-260 -115 -260 -268c0 -154 111 -269 260 -269z" />
    <glyph glyph-name="Odieresis" unicode="&#xd6;" horiz-adv-x="859" 
d="M331 847c-40 0 -71 31 -71 71c0 38 31 70 71 70c38 0 70 -32 70 -70c0 -40 -32 -71 -70 -71zM529 847c-40 0 -71 31 -71 71c0 39 32 70 71 70s70 -32 70 -70c0 -40 -32 -71 -70 -71zM429 -12c-218 0 -386 164 -386 385s167 384 386 384s387 -163 387 -384
s-168 -385 -387 -385zM429 104c150 0 260 115 260 269c0 153 -110 268 -260 268s-260 -115 -260 -268c0 -154 111 -269 260 -269z" />
    <glyph glyph-name="Ograve" unicode="&#xd2;" horiz-adv-x="859" 
d="M477 847h-88l-94 158h112zM429 -12c-218 0 -386 164 -386 385s167 384 386 384s387 -163 387 -384s-168 -385 -387 -385zM429 104c150 0 260 115 260 269c0 153 -110 268 -260 268s-260 -115 -260 -268c0 -154 111 -269 260 -269z" />
    <glyph glyph-name="Oslash" unicode="&#xd8;" horiz-adv-x="859" 
d="M740 608c48 -64 76 -145 76 -235c0 -221 -168 -385 -387 -385c-89 0 -169 27 -234 74l-76 -76l-76 76l76 76c-48 64 -76 145 -76 235c0 221 167 384 386 384c89 0 170 -27 234 -74l76 76l76 -76zM169 373c0 -55 14 -105 39 -146l369 370c-41 28 -92 44 -148 44
c-150 0 -260 -115 -260 -268zM429 104c150 0 260 115 260 269c0 54 -14 104 -39 145l-369 -369c42 -29 92 -45 148 -45z" />
    <glyph glyph-name="Otilde" unicode="&#xd5;" horiz-adv-x="859" 
d="M497 847c-65 0 -95 46 -136 46c-17 0 -31 -9 -35 -39h-85c7 89 70 120 118 120c59 0 97 -45 136 -45c18 0 34 10 36 38h85c-7 -79 -57 -120 -119 -120zM429 -12c-218 0 -386 164 -386 385s167 384 386 384s387 -163 387 -384s-168 -385 -387 -385zM429 104
c150 0 260 115 260 269c0 153 -110 268 -260 268s-260 -115 -260 -268c0 -154 111 -269 260 -269z" />
    <glyph glyph-name="OE" unicode="&#x152;" horiz-adv-x="1244" 
d="M1197 634h-367v-205h347v-111h-347v-207h367l-1 -111h-492v99c-69 -69 -166 -111 -275 -111c-218 0 -386 164 -386 385s167 384 386 384c110 0 206 -40 275 -110v98h493v-111zM429 104c150 0 260 115 260 269c0 153 -110 268 -260 268s-260 -115 -260 -268
c0 -154 111 -269 260 -269z" />
    <glyph glyph-name="P" unicode="P" horiz-adv-x="648" 
d="M68 0v745h287c153 0 260 -86 260 -234c0 -147 -108 -233 -260 -233h-161v-278h-126zM194 388h161c79 0 132 49 132 123s-53 123 -132 123h-161v-246z" />
    <glyph glyph-name="Thorn" unicode="&#xde;" horiz-adv-x="648" 
d="M68 0v745h126v-135h161c153 0 260 -86 260 -234c0 -147 -108 -234 -260 -234h-161v-142h-126zM194 253h161c79 0 132 49 132 123s-53 123 -132 123h-161v-246z" />
    <glyph glyph-name="Q" unicode="Q" horiz-adv-x="859" 
d="M816 373c0 -137 -65 -252 -166 -320l105 -183h-136l-75 134c-36 -10 -75 -16 -115 -16c-218 0 -386 164 -386 385s167 384 386 384s387 -163 387 -384zM429 104c19 0 38 2 56 6l-105 188h130l80 -140c61 48 99 125 99 215c0 153 -110 268 -260 268s-260 -115 -260 -268
c0 -154 111 -269 260 -269z" />
    <glyph glyph-name="Q.ss03" horiz-adv-x="871" 
d="M492 -7c12 -56 59 -91 125 -91h156v-107h-156c-138 0 -233 78 -246 197c-190 26 -329 180 -329 381c0 221 168 384 387 384s386 -163 386 -384c0 -199 -136 -352 -323 -380zM169 373c0 -154 110 -269 260 -269c149 0 260 115 260 269c0 153 -110 268 -260 268
s-260 -115 -260 -268z" />
    <glyph glyph-name="R" unicode="R" horiz-adv-x="681" 
d="M68 0v745h287c153 0 260 -86 260 -234c0 -103 -53 -177 -138 -211l172 -300h-144l-157 278h-154v-278h-126zM194 388h161c79 0 132 49 132 123s-53 123 -132 123h-161v-246z" />
    <glyph glyph-name="R.ss03" horiz-adv-x="688" 
d="M535 335c54 -23 76 -65 76 -146v-189h-130v197c0 54 -25 81 -78 81h-209v-278h-126v745h287c152 0 260 -86 260 -234c0 -78 -29 -135 -80 -176zM355 388c79 0 132 49 132 123s-53 123 -132 123h-161v-246h161z" />
    <glyph glyph-name="S" unicode="S" horiz-adv-x="640" 
d="M338 -12c-147 0 -267 86 -305 206l108 49c35 -93 112 -144 197 -144c84 0 138 41 138 96c0 51 -31 78 -90 96l-146 45c-123 37 -183 111 -183 207c0 127 104 214 256 214c141 0 248 -80 286 -185l-109 -50c-27 79 -91 124 -176 124c-78 0 -130 -40 -130 -97
c0 -46 32 -80 92 -98l141 -43c123 -38 186 -104 186 -204c0 -129 -107 -216 -265 -216z" />
    <glyph glyph-name="Scaron" unicode="&#x160;" horiz-adv-x="640" 
d="M267 847l-117 157h96l74 -105l76 105h94l-118 -157h-105zM338 -12c-147 0 -267 86 -305 206l108 49c35 -93 112 -144 197 -144c84 0 138 41 138 96c0 51 -31 78 -90 96l-146 45c-123 37 -183 111 -183 207c0 127 104 214 256 214c141 0 248 -80 286 -185l-109 -50
c-27 79 -91 124 -176 124c-78 0 -130 -40 -130 -97c0 -46 32 -80 92 -98l141 -43c123 -38 186 -104 186 -204c0 -129 -107 -216 -265 -216z" />
    <glyph glyph-name="T" unicode="T" horiz-adv-x="561" 
d="M218 0v634h-195v111h516v-111h-194v-634h-127z" />
    <glyph glyph-name="U" unicode="U" horiz-adv-x="715" 
d="M520 745h128v-481c0 -160 -116 -276 -290 -276c-175 0 -290 116 -290 276v481h127v-481c0 -96 67 -162 163 -162c95 0 162 67 162 162v481z" />
    <glyph glyph-name="U.ss01" horiz-adv-x="685" 
d="M68 0v745h126v-634h297v634h127v-745h-550z" />
    <glyph glyph-name="Uacute" unicode="&#xda;" horiz-adv-x="715" 
d="M313 847l71 158h111l-94 -158h-88zM520 745h128v-481c0 -160 -116 -276 -290 -276c-175 0 -290 116 -290 276v481h127v-481c0 -96 67 -162 163 -162c95 0 162 67 162 162v481z" />
    <glyph glyph-name="Ucircumflex" unicode="&#xdb;" horiz-adv-x="715" 
d="M305 1004h105l118 -157h-94l-76 105l-74 -105h-96zM520 745h128v-481c0 -160 -116 -276 -290 -276c-175 0 -290 116 -290 276v481h127v-481c0 -96 67 -162 163 -162c95 0 162 67 162 162v481z" />
    <glyph glyph-name="Udieresis" unicode="&#xdc;" horiz-adv-x="715" 
d="M259 847c-40 0 -71 31 -71 71c0 38 31 70 71 70c38 0 70 -32 70 -70c0 -40 -32 -71 -70 -71zM457 847c-40 0 -71 31 -71 71c0 39 32 70 71 70s70 -32 70 -70c0 -40 -32 -71 -70 -71zM520 745h128v-481c0 -160 -116 -276 -290 -276c-175 0 -290 116 -290 276v481h127v-481
c0 -96 67 -162 163 -162c95 0 162 67 162 162v481z" />
    <glyph glyph-name="Ugrave" unicode="&#xd9;" horiz-adv-x="715" 
d="M405 847h-88l-94 158h112zM520 745h128v-481c0 -160 -116 -276 -290 -276c-175 0 -290 116 -290 276v481h127v-481c0 -96 67 -162 163 -162c95 0 162 67 162 162v481z" />
    <glyph glyph-name="V" unicode="V" horiz-adv-x="694" 
d="M541 745h140l-249 -745h-170l-249 745h140l194 -606z" />
    <glyph glyph-name="W" unicode="W" horiz-adv-x="1037" 
d="M885 745h130l-196 -745h-158l-142 576l-143 -576h-158l-195 745h136l146 -579l140 579h153l140 -579z" />
    <glyph glyph-name="X" unicode="X" horiz-adv-x="661" 
d="M638 0h-141l-166 264l-167 -264h-141l237 376l-234 369h142l163 -257l162 257h142l-234 -369z" />
    <glyph glyph-name="Y" unicode="Y" horiz-adv-x="657" 
d="M503 745h142l-252 -411v-334h-127v333l-253 412h141l175 -288z" />
    <glyph glyph-name="Yacute" unicode="&#xdd;" horiz-adv-x="657" 
d="M467 1005l-94 -158h-88l71 158h111zM503 745h142l-252 -411v-334h-127v333l-253 412h141l175 -288z" />
    <glyph glyph-name="Ydieresis" unicode="&#x178;" horiz-adv-x="657" 
d="M231 847c-40 0 -71 31 -71 71c0 38 31 70 71 70c38 0 70 -32 70 -70c0 -40 -32 -71 -70 -71zM429 847c-40 0 -71 31 -71 71c0 39 32 70 71 70s70 -32 70 -70c0 -40 -32 -71 -70 -71zM503 745h142l-252 -411v-334h-127v333l-253 412h141l175 -288z" />
    <glyph glyph-name="Z" unicode="Z" horiz-adv-x="577" 
d="M171 111h389v-111h-542v97l378 537h-357v111h511v-96z" />
    <glyph glyph-name="Zcaron" unicode="&#x17d;" horiz-adv-x="577" 
d="M239 834l-117 157h96l74 -105l76 105h94l-118 -157h-105zM171 111h389v-111h-542v97l378 537h-357v111h511v-96z" />
    <glyph glyph-name="a" unicode="a" horiz-adv-x="535" 
d="M276 551c131 0 221 -79 221 -191v-360h-113v60c-40 -48 -95 -72 -160 -72c-120 0 -196 68 -196 160c0 80 63 133 172 157l177 38v17c0 50 -41 83 -101 83c-58 0 -104 -32 -124 -83l-104 52c31 82 121 139 228 139zM238 83c80 0 139 58 139 134v35l-153 -34
c-45 -10 -71 -36 -71 -69c0 -41 33 -66 85 -66z" />
    <glyph glyph-name="a.ss01" horiz-adv-x="555" 
d="M90 539h407v-539h-113v60c-40 -48 -95 -72 -160 -72c-120 0 -196 68 -196 160c0 80 63 133 172 157l177 38v88h-287v108zM238 83c80 0 139 58 139 134v35l-153 -34c-45 -10 -71 -36 -71 -69c0 -41 33 -66 85 -66z" />
    <glyph glyph-name="a.ss02" horiz-adv-x="593" 
d="M497 101h79v-101h-192v60c-40 -48 -95 -72 -160 -72c-120 0 -196 68 -196 160c0 80 63 133 172 157l177 38v17c0 50 -41 83 -101 83c-58 0 -104 -32 -124 -83l-104 52c31 82 121 139 228 139c131 0 221 -79 221 -191v-259zM238 83c80 0 139 58 139 134v35l-153 -34
c-45 -10 -71 -36 -71 -69c0 -41 33 -66 85 -66z" />
    <glyph glyph-name="aacute" unicode="&#xe1;" horiz-adv-x="535" 
d="M411 799l-94 -158h-88l71 158h111zM276 551c131 0 221 -79 221 -191v-360h-113v60c-40 -48 -95 -72 -160 -72c-120 0 -196 68 -196 160c0 80 63 133 172 157l177 38v17c0 50 -41 83 -101 83c-58 0 -104 -32 -124 -83l-104 52c31 82 121 139 228 139zM238 83
c80 0 139 58 139 134v35l-153 -34c-45 -10 -71 -36 -71 -69c0 -41 33 -66 85 -66z" />
    <glyph glyph-name="acircumflex" unicode="&#xe2;" horiz-adv-x="535" 
d="M274 746l-74 -105h-96l117 157h105l118 -157h-94zM276 551c131 0 221 -79 221 -191v-360h-113v60c-40 -48 -95 -72 -160 -72c-120 0 -196 68 -196 160c0 80 63 133 172 157l177 38v17c0 50 -41 83 -101 83c-58 0 -104 -32 -124 -83l-104 52c31 82 121 139 228 139z
M238 83c80 0 139 58 139 134v35l-153 -34c-45 -10 -71 -36 -71 -69c0 -41 33 -66 85 -66z" />
    <glyph glyph-name="adieresis" unicode="&#xe4;" horiz-adv-x="535" 
d="M175 641c-40 0 -71 31 -71 71c0 38 31 70 71 70c38 0 70 -32 70 -70c0 -40 -32 -71 -70 -71zM373 641c-40 0 -71 31 -71 71c0 39 32 70 71 70s70 -32 70 -70c0 -40 -32 -71 -70 -71zM276 551c131 0 221 -79 221 -191v-360h-113v60c-40 -48 -95 -72 -160 -72
c-120 0 -196 68 -196 160c0 80 63 133 172 157l177 38v17c0 50 -41 83 -101 83c-58 0 -104 -32 -124 -83l-104 52c31 82 121 139 228 139zM238 83c80 0 139 58 139 134v35l-153 -34c-45 -10 -71 -36 -71 -69c0 -41 33 -66 85 -66z" />
    <glyph glyph-name="agrave" unicode="&#xe0;" horiz-adv-x="535" 
d="M321 641h-88l-94 158h112zM276 551c131 0 221 -79 221 -191v-360h-113v60c-40 -48 -95 -72 -160 -72c-120 0 -196 68 -196 160c0 80 63 133 172 157l177 38v17c0 50 -41 83 -101 83c-58 0 -104 -32 -124 -83l-104 52c31 82 121 139 228 139zM238 83c80 0 139 58 139 134
v35l-153 -34c-45 -10 -71 -36 -71 -69c0 -41 33 -66 85 -66z" />
    <glyph glyph-name="aring" unicode="&#xe5;" horiz-adv-x="535" 
d="M274 641c-64 0 -112 48 -112 105c0 60 48 107 112 107s112 -48 112 -107c0 -56 -48 -105 -112 -105zM274 788c-25 0 -44 -18 -44 -41s19 -42 44 -42s44 19 44 42s-19 41 -44 41zM276 551c131 0 221 -79 221 -191v-360h-113v60c-40 -48 -95 -72 -160 -72
c-120 0 -196 68 -196 160c0 80 63 133 172 157l177 38v17c0 50 -41 83 -101 83c-58 0 -104 -32 -124 -83l-104 52c31 82 121 139 228 139zM238 83c80 0 139 58 139 134v35l-153 -34c-45 -10 -71 -36 -71 -69c0 -41 33 -66 85 -66z" />
    <glyph glyph-name="atilde" unicode="&#xe3;" horiz-adv-x="535" 
d="M206 687c-17 0 -31 -9 -35 -39h-85c7 89 70 120 118 120c59 0 97 -45 136 -45c18 0 34 10 36 38h85c-7 -79 -57 -120 -119 -120c-65 0 -95 46 -136 46zM276 551c131 0 221 -79 221 -191v-360h-113v60c-40 -48 -95 -72 -160 -72c-120 0 -196 68 -196 160
c0 80 63 133 172 157l177 38v17c0 50 -41 83 -101 83c-58 0 -104 -32 -124 -83l-104 52c31 82 121 139 228 139zM238 83c80 0 139 58 139 134v35l-153 -34c-45 -10 -71 -36 -71 -69c0 -41 33 -66 85 -66z" />
    <glyph glyph-name="ae" unicode="&#xe6;" horiz-adv-x="925" 
d="M908 289c0 -18 -2 -38 -6 -54h-396c7 -86 70 -141 151 -141c67 0 111 34 132 75l99 -48c-33 -79 -122 -133 -232 -133c-64 0 -121 20 -167 56v-44h-109v58c-39 -47 -94 -70 -160 -70c-113 0 -192 68 -192 160c0 82 61 132 172 157l175 38v17c0 49 -41 83 -99 83
s-104 -32 -123 -83l-104 52c31 82 120 139 227 139c81 0 145 -31 182 -80c48 50 114 80 190 80c152 0 260 -119 260 -262zM509 328h270c-4 71 -60 120 -132 120c-69 0 -125 -45 -138 -120zM375 217v36l-152 -35c-43 -10 -70 -34 -70 -70c0 -39 32 -65 84 -65
c78 0 138 58 138 134z" />
    <glyph glyph-name="b" unicode="b" horiz-adv-x="649" 
d="M350 551c152 0 272 -122 272 -282c0 -159 -119 -281 -273 -281c-74 0 -139 27 -178 76v-64h-113v745h120v-265c38 45 99 71 172 71zM337 99c92 0 160 71 160 170s-68 171 -160 171c-93 0 -159 -72 -159 -171c0 -100 66 -170 159 -170z" />
    <glyph glyph-name="c" unicode="c" horiz-adv-x="564" 
d="M305 -12c-158 0 -277 121 -277 282s118 281 277 281c114 0 208 -64 241 -155l-104 -52c-21 58 -72 96 -137 96c-88 0 -152 -71 -152 -171c0 -98 64 -170 152 -170c66 0 116 37 137 96l104 -53c-32 -88 -126 -154 -241 -154z" />
    <glyph glyph-name="ccedilla" unicode="&#xe7;" horiz-adv-x="564" 
d="M305 99c66 0 116 37 137 96l104 -53c-25 -68 -86 -123 -166 -144c44 -25 67 -62 67 -105c0 -70 -61 -102 -124 -102c-37 0 -84 11 -126 47l34 58c18 -19 50 -33 83 -33c32 0 55 18 55 49c0 26 -19 54 -66 76c-157 1 -275 122 -275 282c0 161 118 281 277 281
c114 0 208 -64 241 -155l-104 -52c-21 58 -72 96 -137 96c-88 0 -152 -71 -152 -171c0 -98 64 -170 152 -170z" />
    <glyph glyph-name="d" unicode="d" horiz-adv-x="649" 
d="M472 745h120v-745h-114v63c-40 -48 -105 -75 -177 -75c-155 0 -273 122 -273 281c0 160 120 282 272 282c72 0 134 -26 172 -72v266zM313 99c92 0 159 70 159 170c0 99 -67 171 -159 171c-93 0 -160 -72 -160 -171s67 -170 160 -170z" />
    <glyph glyph-name="eth" unicode="&#xf0;" horiz-adv-x="616" 
d="M476 670c72 -92 113 -217 113 -348c0 -228 -124 -334 -278 -334c-163 0 -283 118 -283 280c0 160 118 279 278 279c42 0 96 -8 133 -40c-12 50 -38 92 -71 124l-157 -57v59l104 38c-40 22 -85 34 -129 34c-38 0 -75 -8 -109 -23l-14 104c38 18 85 27 132 27
c95 0 177 -37 241 -98l108 39v-60zM310 99c93 0 154 69 154 167c0 100 -61 170 -156 170c-90 0 -155 -71 -155 -169c0 -97 64 -168 157 -168z" />
    <glyph glyph-name="e" unicode="e" horiz-adv-x="573" 
d="M555 289c0 -19 -2 -38 -6 -54h-396c6 -86 69 -141 152 -141c64 0 107 31 131 75l99 -48c-33 -77 -121 -133 -231 -133c-163 0 -276 124 -276 282c0 162 115 281 267 281s260 -119 260 -262zM155 328h271c-4 72 -62 123 -131 123c-70 0 -126 -44 -140 -123z" />
    <glyph glyph-name="eacute" unicode="&#xe9;" horiz-adv-x="573" 
d="M433 799l-94 -158h-88l71 158h111zM555 289c0 -19 -2 -38 -6 -54h-396c6 -86 69 -141 152 -141c64 0 107 31 131 75l99 -48c-33 -77 -121 -133 -231 -133c-163 0 -276 124 -276 282c0 162 115 281 267 281s260 -119 260 -262zM155 328h271c-4 72 -62 123 -131 123
c-70 0 -126 -44 -140 -123z" />
    <glyph glyph-name="ecircumflex" unicode="&#xea;" horiz-adv-x="573" 
d="M295 746l-74 -105h-96l117 157h105l118 -157h-94zM555 289c0 -19 -2 -38 -6 -54h-396c6 -86 69 -141 152 -141c64 0 107 31 131 75l99 -48c-33 -77 -121 -133 -231 -133c-163 0 -276 124 -276 282c0 162 115 281 267 281s260 -119 260 -262zM155 328h271
c-4 72 -62 123 -131 123c-70 0 -126 -44 -140 -123z" />
    <glyph glyph-name="edieresis" unicode="&#xeb;" horiz-adv-x="573" 
d="M196 641c-40 0 -71 31 -71 71c0 38 31 70 71 70c38 0 70 -32 70 -70c0 -40 -32 -71 -70 -71zM394 641c-40 0 -71 31 -71 71c0 39 32 70 71 70s70 -32 70 -70c0 -40 -32 -71 -70 -71zM555 289c0 -19 -2 -38 -6 -54h-396c6 -86 69 -141 152 -141c64 0 107 31 131 75l99 -48
c-33 -77 -121 -133 -231 -133c-163 0 -276 124 -276 282c0 162 115 281 267 281s260 -119 260 -262zM155 328h271c-4 72 -62 123 -131 123c-70 0 -126 -44 -140 -123z" />
    <glyph glyph-name="egrave" unicode="&#xe8;" horiz-adv-x="573" 
d="M342 641h-88l-94 158h112zM555 289c0 -19 -2 -38 -6 -54h-396c6 -86 69 -141 152 -141c64 0 107 31 131 75l99 -48c-33 -77 -121 -133 -231 -133c-163 0 -276 124 -276 282c0 162 115 281 267 281s260 -119 260 -262zM155 328h271c-4 72 -62 123 -131 123
c-70 0 -126 -44 -140 -123z" />
    <glyph glyph-name="f" unicode="f" horiz-adv-x="368" 
d="M105 0v431h-97v108h97v31c0 121 79 190 197 190c16 0 39 -2 52 -5v-104c-12 2 -28 3 -37 3c-57 0 -92 -29 -92 -84v-31h122v-108h-122v-431h-120z" />
    <glyph glyph-name="f.ss01" horiz-adv-x="364" 
d="M105 0v431h-97v108h97v206h245v-99h-125v-107h125v-108h-125v-431h-120z" />
    <glyph glyph-name="g" unicode="g" horiz-adv-x="635" 
d="M464 539h114v-513c0 -147 -120 -247 -270 -247c-118 0 -212 62 -246 153l104 52c19 -55 68 -95 141 -95c84 0 151 52 151 137v67c-39 -43 -97 -66 -164 -66c-146 0 -266 109 -266 263c0 157 122 261 264 261c74 0 134 -29 172 -77v65zM306 138c89 0 152 63 152 151
c0 89 -66 151 -153 151c-85 0 -152 -61 -152 -151c0 -89 64 -151 153 -151z" />
    <glyph glyph-name="g.ss03" horiz-adv-x="635" 
d="M464 539h114v-532c0 -134 -109 -229 -261 -229h-189v108h189c81 0 141 47 141 122v85c-39 -43 -97 -66 -164 -66c-146 0 -266 109 -266 263c0 157 122 261 264 261c74 0 134 -29 172 -77v65zM306 138c89 0 152 63 152 151s-66 151 -153 151c-85 0 -152 -61 -152 -151
c0 -89 64 -151 153 -151z" />
    <glyph glyph-name="h" unicode="h" horiz-adv-x="575" 
d="M324 551c120 0 203 -82 203 -201v-350h-120v320c0 73 -46 120 -114 120c-69 0 -115 -47 -115 -120v-320h-120v745h120v-259c31 42 84 65 146 65z" />
    <glyph glyph-name="h.ss01" horiz-adv-x="557" 
d="M58 0v745h120v-206h332v-539h-120v440h-212v-440h-120z" />
    <glyph glyph-name="i" unicode="i" horiz-adv-x="228" 
d="M54 610v135h120v-135h-120zM54 0v539h120v-539h-120z" />
    <glyph glyph-name="i.ss02" horiz-adv-x="271" 
d="M97 610v135h120v-135h-120zM97 0v431h-83v108h203v-539h-120z" />
    <glyph glyph-name="dotlessi" unicode="&#x131;" horiz-adv-x="268" 
d="M74 0v539h120v-539h-120z" />
    <glyph glyph-name="iacute" unicode="&#xed;" horiz-adv-x="268" 
d="M89 641l71 158h111l-94 -158h-88zM74 0v539h120v-539h-120z" />
    <glyph glyph-name="icircumflex" unicode="&#xee;" horiz-adv-x="268" 
d="M81 798h105l118 -157h-94l-76 105l-74 -105h-96zM74 0v539h120v-539h-120z" />
    <glyph glyph-name="idieresis" unicode="&#xef;" horiz-adv-x="268" 
d="M35 641c-40 0 -71 31 -71 71c0 38 31 70 71 70c38 0 70 -32 70 -70c0 -40 -32 -71 -70 -71zM233 641c-40 0 -71 31 -71 71c0 39 32 70 71 70s70 -32 70 -70c0 -40 -32 -71 -70 -71zM74 0v539h120v-539h-120z" />
    <glyph glyph-name="igrave" unicode="&#xec;" horiz-adv-x="268" 
d="M181 641h-88l-94 158h112zM74 0v539h120v-539h-120z" />
    <glyph glyph-name="j" unicode="j" horiz-adv-x="222" 
d="M64 610v135h120v-135h-120zM-13 -221c-17 0 -39 1 -52 4v104c12 -2 26 -3 38 -3c56 0 91 28 91 84v571h120v-571c0 -122 -79 -189 -197 -189z" />
    <glyph glyph-name="j.ss01" horiz-adv-x="224" 
d="M67 610v135h120v-135h-120zM-65 -221v105h132v655h120v-760h-252z" />
    <glyph glyph-name="k" unicode="k" horiz-adv-x="535" 
d="M537 539l-197 -217l197 -322h-133l-142 236l-84 -91v-145h-120v745h120v-438l218 232h141z" />
    <glyph glyph-name="k.ss01" horiz-adv-x="535" 
d="M58 0v745h120v-377h63l152 171h144l-197 -229l197 -310h-139l-160 263h-60v-263h-120z" />
    <glyph glyph-name="l" unicode="l" horiz-adv-x="235" 
d="M58 0v745h120v-745h-120z" />
    <glyph glyph-name="l.ss01" horiz-adv-x="303" 
d="M58 0v745h120v-637h107v-108h-227z" />
    <glyph glyph-name="lslash" unicode="&#x142;" horiz-adv-x="235" 
d="M58 0v288l-91 -30v108l91 30v349h120v-309l90 30v-108l-90 -30v-328h-120z" />
    <glyph glyph-name="m" unicode="m" horiz-adv-x="889" 
d="M649 551c112 0 192 -81 192 -201v-350h-120v320c0 75 -42 120 -106 120c-63 0 -106 -45 -106 -120v-320h-120v320c0 75 -42 120 -106 120c-63 0 -105 -45 -105 -120v-320h-120v539h113v-66c28 51 80 78 145 78c72 0 131 -33 165 -89c32 55 94 89 168 89z" />
    <glyph glyph-name="m.ss02" horiz-adv-x="889" 
d="M58 0v539h783v-539h-120v433h-212v-433h-120v433h-211v-433h-120z" />
    <glyph glyph-name="m.ss03" horiz-adv-x="889" 
d="M58 0v539h557c138 0 226 -81 226 -202v-337h-120v323c0 68 -41 110 -106 110h-106v-433h-120v433h-211v-433h-120z" />
    <glyph glyph-name="n" unicode="n" horiz-adv-x="575" 
d="M324 551c120 0 203 -83 203 -201v-350h-120v320c0 73 -46 120 -114 120c-69 0 -115 -47 -115 -120v-320h-120v539h113v-65c30 50 86 77 153 77z" />
    <glyph glyph-name="n.ss01" horiz-adv-x="567" 
d="M58 0v539h452v-539h-120v433h-212v-433h-120z" />
    <glyph glyph-name="n.ss03" horiz-adv-x="557" 
d="M58 0v539h226c138 0 226 -81 226 -202v-337h-120v323c0 68 -42 110 -106 110h-106v-433h-120z" />
    <glyph glyph-name="ntilde" unicode="&#xf1;" horiz-adv-x="575" 
d="M256 687c-17 0 -31 -9 -35 -39h-85c7 89 70 120 118 120c59 0 97 -45 136 -45c18 0 34 10 36 38h85c-7 -79 -57 -120 -119 -120c-65 0 -95 46 -136 46zM324 551c120 0 203 -83 203 -201v-350h-120v320c0 73 -46 120 -114 120c-69 0 -115 -47 -115 -120v-320h-120v539h113
v-65c30 50 86 77 153 77z" />
    <glyph glyph-name="o" unicode="o" horiz-adv-x="621" 
d="M311 -12c-158 0 -283 119 -283 282s124 281 283 281c158 0 283 -118 283 -281s-126 -282 -283 -282zM311 99c91 0 158 71 158 170s-67 171 -158 171c-92 0 -158 -72 -158 -171s66 -170 158 -170z" />
    <glyph glyph-name="oacute" unicode="&#xf3;" horiz-adv-x="621" 
d="M266 641l71 158h111l-94 -158h-88zM311 -12c-158 0 -283 119 -283 282s124 281 283 281c158 0 283 -118 283 -281s-126 -282 -283 -282zM311 99c91 0 158 71 158 170s-67 171 -158 171c-92 0 -158 -72 -158 -171s66 -170 158 -170z" />
    <glyph glyph-name="ocircumflex" unicode="&#xf4;" horiz-adv-x="621" 
d="M258 798h105l118 -157h-94l-76 105l-74 -105h-96zM311 -12c-158 0 -283 119 -283 282s124 281 283 281c158 0 283 -118 283 -281s-126 -282 -283 -282zM311 99c91 0 158 71 158 170s-67 171 -158 171c-92 0 -158 -72 -158 -171s66 -170 158 -170z" />
    <glyph glyph-name="odieresis" unicode="&#xf6;" horiz-adv-x="621" 
d="M212 641c-40 0 -71 31 -71 71c0 38 31 70 71 70c38 0 70 -32 70 -70c0 -40 -32 -71 -70 -71zM410 641c-40 0 -71 31 -71 71c0 39 32 70 71 70s70 -32 70 -70c0 -40 -32 -71 -70 -71zM311 -12c-158 0 -283 119 -283 282s124 281 283 281c158 0 283 -118 283 -281
s-126 -282 -283 -282zM311 99c91 0 158 71 158 170s-67 171 -158 171c-92 0 -158 -72 -158 -171s66 -170 158 -170z" />
    <glyph glyph-name="ograve" unicode="&#xf2;" horiz-adv-x="621" 
d="M358 641h-88l-94 158h112zM311 -12c-158 0 -283 119 -283 282s124 281 283 281c158 0 283 -118 283 -281s-126 -282 -283 -282zM311 99c91 0 158 71 158 170s-67 171 -158 171c-92 0 -158 -72 -158 -171s66 -170 158 -170z" />
    <glyph glyph-name="oslash" unicode="&#xf8;" horiz-adv-x="621" 
d="M637 522l-91 -91c30 -45 48 -100 48 -161c0 -163 -126 -282 -283 -282c-60 0 -115 17 -161 47l-93 -93l-73 74l92 92c-30 45 -48 101 -48 162c0 163 124 281 283 281c60 0 115 -17 161 -47l92 92zM153 269c0 -26 5 -50 13 -71l222 222c-22 13 -48 20 -77 20
c-92 0 -158 -72 -158 -171zM469 269c0 26 -5 50 -13 72l-222 -222c22 -13 48 -20 77 -20c91 0 158 71 158 170z" />
    <glyph glyph-name="otilde" unicode="&#xf5;" horiz-adv-x="621" 
d="M379 641c-65 0 -95 46 -136 46c-17 0 -31 -9 -35 -39h-85c7 89 70 120 118 120c59 0 97 -45 136 -45c18 0 34 10 36 38h85c-7 -79 -57 -120 -119 -120zM311 -12c-158 0 -283 119 -283 282s124 281 283 281c158 0 283 -118 283 -281s-126 -282 -283 -282zM311 99
c91 0 158 71 158 170s-67 171 -158 171c-92 0 -158 -72 -158 -171s66 -170 158 -170z" />
    <glyph glyph-name="oe" unicode="&#x153;" horiz-adv-x="1013" 
d="M996 289c0 -18 -2 -38 -6 -54h-396c7 -90 74 -141 152 -141c62 0 108 31 131 75l99 -48c-34 -80 -124 -133 -233 -133c-89 0 -165 38 -214 101c-51 -64 -129 -101 -219 -101c-158 0 -282 119 -282 282c0 162 124 281 282 281c89 0 169 -38 219 -100
c47 61 120 100 207 100c152 0 260 -119 260 -262zM597 328h270c-4 71 -60 120 -133 120c-68 0 -124 -44 -137 -120zM310 99c92 0 158 71 158 170s-66 171 -158 171c-91 0 -157 -72 -157 -171s66 -170 157 -170z" />
    <glyph glyph-name="p" unicode="p" horiz-adv-x="649" 
d="M349 551c152 0 273 -121 273 -281s-120 -282 -274 -282c-71 0 -132 25 -170 67v-255h-120v739h113v-68c37 50 102 80 178 80zM337 99c92 0 160 72 160 170c0 99 -68 171 -160 171c-93 0 -159 -71 -159 -171c0 -99 66 -170 159 -170z" />
    <glyph glyph-name="p.ss02" horiz-adv-x="689" 
d="M388 551c154 0 273 -123 273 -282c0 -157 -116 -281 -273 -281c-71 0 -131 26 -170 68v-256h-120v631h-80v108h193v-68c37 50 103 80 177 80zM376 99c93 0 160 71 160 170c0 98 -67 171 -160 171c-92 0 -158 -72 -158 -171s65 -170 158 -170z" />
    <glyph glyph-name="thorn" unicode="&#xfe;" horiz-adv-x="649" 
d="M349 551c152 0 273 -121 273 -281s-120 -282 -274 -282c-71 0 -132 25 -170 67v-255h-120v945h120v-266c38 46 100 72 171 72zM337 99c92 0 160 72 160 170c0 99 -68 171 -160 171c-93 0 -159 -71 -159 -171c0 -99 66 -170 159 -170z" />
    <glyph glyph-name="q" unicode="q" horiz-adv-x="649" 
d="M478 539h114v-739h-120v256c-39 -43 -100 -68 -171 -68c-154 0 -273 122 -273 282s120 281 272 281c76 0 140 -29 178 -79v67zM313 99c92 0 159 71 159 170c0 100 -67 171 -159 171c-93 0 -160 -72 -160 -171c0 -98 67 -170 160 -170z" />
    <glyph glyph-name="q.ss02" horiz-adv-x="689" 
d="M478 539h193v-108h-80v-630h-120v255c-39 -42 -99 -68 -170 -68c-157 0 -273 124 -273 281c0 160 120 282 272 282c75 0 141 -30 178 -80v68zM313 99c93 0 158 71 158 170s-66 171 -158 171c-93 0 -160 -73 -160 -171c0 -99 67 -170 160 -170z" />
    <glyph glyph-name="r" unicode="r" horiz-adv-x="384" 
d="M317 545h50v-108h-65c-74 0 -124 -48 -124 -132v-305h-120v539h113v-75c28 59 80 81 146 81z" />
    <glyph glyph-name="r.ss01" horiz-adv-x="384" 
d="M58 0v539h309v-108h-189v-431h-120z" />
    <glyph glyph-name="r.ss02" horiz-adv-x="446" 
d="M378 545h51v-108h-65c-75 0 -125 -49 -125 -133v-203h102v-101h-323v101h101v336h-101v102h215v-76c30 65 87 82 145 82z" />
    <glyph glyph-name="s" unicode="s" horiz-adv-x="494" 
d="M262 -12c-112 0 -204 57 -238 151l93 45c28 -64 81 -98 145 -98c54 0 89 25 89 62s-38 53 -71 62l-92 24c-94 26 -141 81 -141 154c0 97 81 163 200 163c106 0 190 -53 223 -139l-94 -44c-20 51 -68 82 -129 82c-50 0 -81 -23 -81 -57s34 -51 65 -60l96 -27
c93 -26 143 -80 143 -155c0 -97 -85 -163 -208 -163z" />
    <glyph glyph-name="scaron" unicode="&#x161;" horiz-adv-x="494" 
d="M194 641l-117 157h96l74 -105l76 105h94l-118 -157h-105zM262 -12c-112 0 -204 57 -238 151l93 45c28 -64 81 -98 145 -98c54 0 89 25 89 62s-38 53 -71 62l-92 24c-94 26 -141 81 -141 154c0 97 81 163 200 163c106 0 190 -53 223 -139l-94 -44c-20 51 -68 82 -129 82
c-50 0 -81 -23 -81 -57s34 -51 65 -60l96 -27c93 -26 143 -80 143 -155c0 -97 -85 -163 -208 -163z" />
    <glyph glyph-name="germandbls" unicode="&#xdf;" horiz-adv-x="620" 
d="M68 -160v678c0 134 99 227 250 227c144 0 238 -82 238 -206c0 -55 -22 -102 -65 -137c68 -42 95 -105 95 -176c0 -142 -100 -226 -262 -226h-53v111h64c74 0 123 46 123 115s-49 115 -123 115h-64v111h58c60 0 98 37 98 93c0 55 -43 93 -109 93c-74 0 -124 -49 -124 -120
v-678h-126z" />
    <glyph glyph-name="t" unicode="t" horiz-adv-x="390" 
d="M301 -6c-121 0 -189 68 -189 187v250h-98v108h16c52 0 82 29 82 81v86h120v-167h128v-108h-128v-250c0 -46 19 -89 95 -89c10 0 23 1 36 3v-96c-19 -3 -43 -5 -62 -5z" />
    <glyph glyph-name="t.ss01" horiz-adv-x="419" 
d="M143 0v431h-129v108h129v167h120v-167h128v-108h-128v-323h128v-108h-248z" />
    <glyph glyph-name="u" unicode="u" horiz-adv-x="575" 
d="M397 539h120v-539h-114v62c-30 -47 -85 -74 -151 -74c-120 0 -204 92 -204 216v335h120v-320c0 -73 46 -120 115 -120c68 0 114 47 114 120v320z" />
    <glyph glyph-name="u.ss01" horiz-adv-x="557" 
d="M48 0v539h120v-431h212v431h120v-539h-452z" />
    <glyph glyph-name="u.ss03" horiz-adv-x="557" 
d="M274 -12c-136 0 -226 88 -226 213v338h120v-323c0 -72 42 -117 106 -117c63 0 106 45 106 117v323h120v-338c0 -125 -91 -213 -226 -213z" />
    <glyph glyph-name="uacute" unicode="&#xfa;" horiz-adv-x="575" 
d="M425 799l-94 -158h-88l71 158h111zM397 539h120v-539h-114v62c-30 -47 -85 -74 -151 -74c-120 0 -204 92 -204 216v335h120v-320c0 -73 46 -120 115 -120c68 0 114 47 114 120v320z" />
    <glyph glyph-name="ucircumflex" unicode="&#xfb;" horiz-adv-x="575" 
d="M288 746l-74 -105h-96l117 157h105l118 -157h-94zM397 539h120v-539h-114v62c-30 -47 -85 -74 -151 -74c-120 0 -204 92 -204 216v335h120v-320c0 -73 46 -120 115 -120c68 0 114 47 114 120v320z" />
    <glyph glyph-name="udieresis" unicode="&#xfc;" horiz-adv-x="575" 
d="M189 641c-40 0 -71 31 -71 71c0 38 31 70 71 70c38 0 70 -32 70 -70c0 -40 -32 -71 -70 -71zM387 641c-40 0 -71 31 -71 71c0 39 32 70 71 70s70 -32 70 -70c0 -40 -32 -71 -70 -71zM397 539h120v-539h-114v62c-30 -47 -85 -74 -151 -74c-120 0 -204 92 -204 216v335h120
v-320c0 -73 46 -120 115 -120c68 0 114 47 114 120v320z" />
    <glyph glyph-name="ugrave" unicode="&#xf9;" horiz-adv-x="575" 
d="M335 641h-88l-94 158h112zM397 539h120v-539h-114v62c-30 -47 -85 -74 -151 -74c-120 0 -204 92 -204 216v335h120v-320c0 -73 46 -120 115 -120c68 0 114 47 114 120v320z" />
    <glyph glyph-name="v" unicode="v" horiz-adv-x="548" 
d="M413 539h127l-213 -539h-107l-212 539h127l139 -379z" />
    <glyph glyph-name="w" unicode="w" horiz-adv-x="859" 
d="M723 539h128l-187 -539h-107l-127 386l-128 -386h-108l-186 539h127l114 -362l114 362h133l114 -362z" />
    <glyph glyph-name="x" unicode="x" horiz-adv-x="548" 
d="M536 539l-191 -269l190 -270h-141l-120 176l-120 -176h-141l190 270l-190 269h140l121 -176l122 176h140z" />
    <glyph glyph-name="y" unicode="y" horiz-adv-x="568" 
d="M429 539h131l-240 -602c-24 -59 -66 -157 -202 -157c-29 0 -57 4 -79 14v101c15 -4 41 -8 62 -8c69 0 87 40 101 73l18 42l-212 537h131l145 -381z" />
    <glyph glyph-name="y.ss01" horiz-adv-x="540" 
d="M415 539h132l-303 -760h-242v107h160l46 116l-214 537h132l145 -382z" />
    <glyph glyph-name="y.ss02" horiz-adv-x="567" 
d="M429 539h131l-303 -760h-124l88 223l-213 537h131l145 -381z" />
    <glyph glyph-name="yacute" unicode="&#xfd;" horiz-adv-x="568" 
d="M421 799l-94 -158h-88l71 158h111zM429 539h131l-240 -602c-24 -59 -66 -157 -202 -157c-29 0 -57 4 -79 14v101c15 -4 41 -8 62 -8c69 0 87 40 101 73l18 42l-212 537h131l145 -381z" />
    <glyph glyph-name="ydieresis" unicode="&#xff;" horiz-adv-x="568" 
d="M185 641c-40 0 -71 31 -71 71c0 38 31 70 71 70c38 0 70 -32 70 -70c0 -40 -32 -71 -70 -71zM383 641c-40 0 -71 31 -71 71c0 39 32 70 71 70s70 -32 70 -70c0 -40 -32 -71 -70 -71zM429 539h131l-240 -602c-24 -59 -66 -157 -202 -157c-29 0 -57 4 -79 14v101
c15 -4 41 -8 62 -8c69 0 87 40 101 73l18 42l-212 537h131l145 -381z" />
    <glyph glyph-name="z" unicode="z" horiz-adv-x="474" 
d="M16 0v98l283 333h-270v108h428v-98l-279 -333h280v-108h-442z" />
    <glyph glyph-name="zcaron" unicode="&#x17e;" horiz-adv-x="474" 
d="M185 641l-117 157h96l74 -105l76 105h94l-118 -157h-105zM16 0v98l283 333h-270v108h428v-98l-279 -333h280v-108h-442z" />
    <glyph glyph-name="ordfeminine" unicode="&#xaa;" horiz-adv-x="398" 
d="M204 752c92 0 156 -55 156 -135v-250h-87v38c-28 -31 -64 -46 -109 -46c-81 0 -136 45 -136 112c0 54 41 92 119 109l120 25v12c0 32 -25 53 -63 53s-70 -22 -82 -57l-80 40c22 60 85 99 162 99zM178 430c50 0 89 37 89 85v22l-102 -23c-23 -6 -40 -20 -40 -43
c0 -25 19 -41 53 -41z" />
    <glyph glyph-name="ordmasculine" unicode="&#xba;" horiz-adv-x="454" 
d="M227 359c-111 0 -199 83 -199 197c0 113 88 196 199 196s200 -83 200 -196c0 -115 -89 -197 -200 -197zM227 444c60 0 103 46 103 111s-43 112 -103 112c-61 0 -102 -47 -102 -112s42 -111 102 -111z" />
    <glyph glyph-name="uni0394" unicode="&#x394;" horiz-adv-x="622" 
d="M13 0v87l257 658h83l257 -658v-87h-597zM146 107h331l-166 434z" />
    <glyph glyph-name="uni03A9" unicode="&#x3a9;" horiz-adv-x="896" 
d="M43 1v113h129c-77 66 -111 157 -111 255c0 221 161 388 387 388c223 0 386 -166 386 -388c0 -101 -35 -191 -110 -255h129v-113l-325 -1v114c115 31 183 134 183 255c0 157 -108 277 -263 277c-154 0 -263 -120 -263 -277c0 -120 68 -224 184 -255v-114z" />
    <glyph glyph-name="pi" unicode="&#x3c0;" horiz-adv-x="670" 
d="M142 0v430h-128v107h642v-107h-128v-430h-120v430h-146v-430h-120z" />
    <glyph glyph-name="zero" unicode="0" horiz-adv-x="687" 
d="M344 -12c-178 0 -299 154 -299 385s120 384 298 384c180 0 299 -154 299 -384s-118 -385 -298 -385zM344 104c107 0 173 102 173 269c0 166 -66 268 -174 268c-106 0 -172 -102 -172 -268s67 -269 173 -269z" />
    <glyph glyph-name="zero.tf" horiz-adv-x="600" 
d="M301 -12c-172 0 -289 155 -289 385c0 231 116 385 288 385c173 0 288 -155 288 -385s-115 -385 -287 -385zM301 104c100 0 163 103 163 269s-63 269 -164 269s-163 -102 -163 -269c0 -166 63 -269 164 -269z" />
    <glyph glyph-name="one" unicode="1" horiz-adv-x="425" 
d="M164 0v637h-140v107l267 1v-745h-127z" />
    <glyph glyph-name="one.ss01" horiz-adv-x="425" 
d="M164 0v632l-140 -50v112l150 51h117v-745h-127z" />
    <glyph glyph-name="one.ss01.tf" horiz-adv-x="600" 
d="M361 108h198v-108h-518v108h195v525l-134 -50v112l144 51h115v-638z" />
    <glyph glyph-name="one.tf" horiz-adv-x="600" 
d="M364 108h195v-108h-518v108h195v530h-145v107l273 1v-638z" />
    <glyph glyph-name="two" unicode="2" horiz-adv-x="583" 
d="M38 0l-1 94l203 211c120 124 156 170 156 231c0 67 -43 107 -113 107s-123 -38 -146 -105l-101 55c35 101 132 164 253 164c138 0 234 -85 234 -209c0 -82 -47 -154 -145 -255l-178 -185h336v-108h-498z" />
    <glyph glyph-name="two.tf" horiz-adv-x="600" 
d="M44 0l-1 94l206 211c122 125 158 171 158 232c0 67 -45 107 -116 107s-125 -38 -149 -105l-100 55c35 101 134 164 256 164c138 0 236 -85 236 -209c0 -87 -56 -163 -147 -256l-180 -185h340v-108h-503z" />
    <glyph glyph-name="three" unicode="3" horiz-adv-x="599" 
d="M366 461c110 -18 185 -106 185 -223c0 -144 -112 -250 -265 -250c-118 0 -214 63 -252 164l101 55c25 -67 80 -105 151 -105c83 0 139 53 139 133c0 78 -55 130 -139 130c-26 0 -53 -5 -73 -13l-25 63l192 222l-311 1v107h453v-101z" />
    <glyph glyph-name="three.tf" horiz-adv-x="600" 
d="M366 462c109 -18 186 -105 186 -224c0 -144 -113 -250 -265 -250c-119 0 -215 63 -252 164l100 55c25 -67 80 -105 152 -105c83 0 139 53 139 133c0 78 -56 131 -140 131c-25 0 -53 -5 -73 -13l-25 63l193 222l-312 1v107h454v-101z" />
    <glyph glyph-name="four" unicode="4" horiz-adv-x="660" 
d="M629 272v-106h-114v-166h-123v166h-358v106l352 473h129v-473h114zM160 272h232v317z" />
    <glyph glyph-name="four.tf" horiz-adv-x="600" 
d="M591 272v-106h-111v-166h-122v166h-346v106l340 474h128v-474h111zM136 272h222v318z" />
    <glyph glyph-name="five" unicode="5" horiz-adv-x="604" 
d="M310 484c144 0 246 -99 246 -239c0 -149 -112 -257 -265 -257c-120 0 -220 64 -257 164l100 55c25 -64 87 -105 157 -105c81 0 138 55 138 137c0 81 -56 136 -139 136c-52 0 -95 -23 -115 -65l-95 23l59 412h394v-107l-306 1l-26 -184c29 19 65 29 109 29z" />
    <glyph glyph-name="five.tf" horiz-adv-x="600" 
d="M308 485c145 0 246 -100 246 -240c0 -149 -112 -257 -265 -257c-119 0 -220 64 -256 164l99 55c26 -64 88 -105 157 -105c81 0 138 55 138 137c0 81 -56 137 -139 137c-54 0 -95 -25 -115 -66l-95 23l59 413h394v-107l-306 1l-26 -184c30 20 66 29 109 29z" />
    <glyph glyph-name="six" unicode="6" horiz-adv-x="588" 
d="M311 472c136 0 239 -111 239 -241c0 -139 -108 -243 -256 -243c-150 0 -256 105 -256 247c0 72 29 134 79 202l223 308h143l-200 -275c9 1 19 2 28 2zM294 102c72 0 129 55 129 132c0 78 -56 131 -129 131s-130 -53 -130 -131c0 -77 57 -132 130 -132z" />
    <glyph glyph-name="six.tf" horiz-adv-x="600" 
d="M318 473c136 0 240 -112 240 -242c0 -139 -110 -243 -258 -243c-150 0 -258 105 -258 247c0 74 31 137 80 203l225 308h143l-203 -276c10 2 20 3 31 3zM300 102c73 0 131 55 131 132c0 78 -57 132 -131 132c-73 0 -131 -54 -131 -132c0 -77 58 -132 131 -132z" />
    <glyph glyph-name="seven" unicode="7" horiz-adv-x="536" 
d="M70 0l315 639h-361v107h488v-107l-308 -639h-134z" />
    <glyph glyph-name="seven.tf" horiz-adv-x="600" 
d="M96 0l329 640h-376v107h504v-107l-323 -640h-134z" />
    <glyph glyph-name="eight" unicode="8" horiz-adv-x="631" 
d="M468 399c74 -38 116 -101 116 -180c0 -133 -115 -231 -269 -231s-267 98 -267 231c0 79 41 143 115 180c-53 32 -85 92 -85 157c0 116 100 201 237 201s237 -84 237 -201c0 -65 -32 -124 -84 -157zM315 650c-63 0 -108 -42 -108 -102c0 -59 44 -100 108 -100
c63 0 108 41 108 100c0 60 -45 102 -108 102zM315 96c83 0 141 50 141 122s-58 122 -141 122c-82 0 -140 -50 -140 -122s58 -122 140 -122z" />
    <glyph glyph-name="eight.tf" horiz-adv-x="600" 
d="M450 400c74 -39 114 -103 114 -181c0 -132 -113 -231 -265 -231c-151 0 -263 99 -263 231c0 78 39 143 113 180c-52 33 -84 93 -84 158c0 116 100 201 234 201c135 0 234 -84 234 -201c0 -64 -31 -124 -83 -157zM299 651c-62 0 -106 -43 -106 -102s44 -100 106 -100
s106 41 106 100s-44 102 -106 102zM299 96c81 0 138 50 138 122s-56 123 -138 123c-81 0 -136 -51 -136 -123s56 -122 136 -122z" />
    <glyph glyph-name="nine" unicode="9" horiz-adv-x="588" 
d="M294 757c149 0 256 -104 256 -247c0 -70 -28 -132 -79 -202l-223 -308h-143l200 275c-10 -1 -19 -2 -29 -2c-135 0 -238 112 -238 241c0 139 108 243 256 243zM294 380c73 0 129 54 129 131c0 78 -57 132 -129 132c-73 0 -130 -54 -130 -132c0 -77 57 -131 130 -131z" />
    <glyph glyph-name="nine.tf" horiz-adv-x="600" 
d="M300 758c150 0 258 -105 258 -247c0 -71 -29 -134 -80 -203l-224 -308h-143l202 276c-10 -2 -20 -3 -30 -3c-136 0 -241 113 -241 242c0 139 110 243 258 243zM300 380c74 0 131 55 131 132s-58 132 -131 132s-131 -55 -131 -132s58 -132 131 -132z" />
    <glyph glyph-name="uni2080" unicode="&#x2080;" horiz-adv-x="453" 
d="M227 -7c-109 0 -182 92 -182 231c0 138 73 230 181 230c109 0 182 -93 182 -230c0 -138 -73 -231 -181 -231zM227 79c54 0 85 54 85 145c0 90 -31 144 -86 144s-86 -53 -86 -144s32 -145 87 -145z" />
    <glyph glyph-name="uni2081" unicode="&#x2081;" horiz-adv-x="338" 
d="M108 0v366h-84v80l180 1v-447h-96z" />
    <glyph glyph-name="uni2082" unicode="&#x2082;" horiz-adv-x="388" 
d="M36 0l-1 75l120 123c64 66 84 90 84 119c0 30 -21 51 -53 51c-34 0 -62 -21 -73 -55l-75 44c20 60 80 97 154 97c84 0 143 -50 143 -125c0 -49 -28 -90 -78 -143l-104 -106h187v-80h-304z" />
    <glyph glyph-name="uni2083" unicode="&#x2083;" horiz-adv-x="400" 
d="M248 277c63 -11 105 -59 105 -128c0 -89 -71 -156 -166 -156c-72 0 -131 38 -153 97l76 44c13 -34 39 -55 77 -55c43 0 70 26 70 66s-26 64 -70 64c-17 0 -36 -4 -52 -12l-22 47l115 122l-173 1v80h280v-73z" />
    <glyph glyph-name="uni2084" unicode="&#x2084;" horiz-adv-x="439" 
d="M407 176v-81h-75v-95h-96v95h-202v81l195 271h103v-271h75zM127 176h109v155z" />
    <glyph glyph-name="uni2085" unicode="&#x2085;" horiz-adv-x="399" 
d="M207 296c85 0 145 -59 145 -142c0 -92 -70 -161 -163 -161c-72 0 -134 39 -155 97l76 44c13 -32 42 -55 79 -55c39 0 67 28 67 69c0 40 -27 67 -67 67c-26 0 -45 -12 -56 -37l-75 19l43 250h242v-80h-178l-14 -83c16 8 34 12 56 12z" />
    <glyph glyph-name="uni2086" unicode="&#x2086;" horiz-adv-x="396" 
d="M218 287c82 -1 141 -69 141 -145c0 -85 -67 -149 -161 -149c-93 0 -160 64 -160 148c0 42 18 73 44 109l139 197h109zM198 79c35 0 64 27 64 66s-29 64 -64 64s-64 -25 -64 -64s30 -66 64 -66z" />
    <glyph glyph-name="uni2087" unicode="&#x2087;" horiz-adv-x="354" 
d="M56 0l180 367h-212v81h307v-81l-174 -367h-101z" />
    <glyph glyph-name="uni2088" unicode="&#x2088;" horiz-adv-x="426" 
d="M316 234c41 -23 63 -57 63 -101c0 -81 -71 -140 -166 -140c-94 0 -165 59 -165 140c0 44 21 79 62 101c-30 19 -48 56 -48 95c0 73 63 125 151 125c87 0 151 -52 151 -125c0 -38 -19 -75 -48 -95zM213 374c-32 0 -54 -21 -54 -52c0 -30 22 -51 54 -51c31 0 53 21 53 51
c0 31 -22 52 -53 52zM213 73c41 0 70 24 70 59s-28 59 -70 59s-69 -24 -69 -59s27 -59 69 -59z" />
    <glyph glyph-name="uni2089" unicode="&#x2089;" horiz-adv-x="396" 
d="M198 454c94 0 161 -64 161 -148c0 -41 -19 -72 -45 -109l-139 -197h-108l112 160c-83 1 -141 68 -141 145c0 85 67 149 160 149zM198 238c35 0 64 25 64 64s-29 66 -64 66c-34 0 -64 -27 -64 -66s29 -64 64 -64z" />
    <glyph glyph-name="zero.dnom" horiz-adv-x="453" 
d="M227 -7c-109 0 -182 92 -182 231c0 138 73 230 181 230c109 0 182 -93 182 -230c0 -138 -73 -231 -181 -231zM227 79c54 0 85 54 85 145c0 90 -31 144 -86 144s-86 -53 -86 -144s32 -145 87 -145z" />
    <glyph glyph-name="one.dnom" horiz-adv-x="338" 
d="M108 0v366h-84v80l180 1v-447h-96z" />
    <glyph glyph-name="two.dnom" horiz-adv-x="388" 
d="M36 0l-1 75l120 123c64 66 84 90 84 119c0 30 -21 51 -53 51c-34 0 -62 -21 -73 -55l-75 44c20 60 80 97 154 97c84 0 143 -50 143 -125c0 -49 -28 -90 -78 -143l-104 -106h187v-80h-304z" />
    <glyph glyph-name="three.dnom" horiz-adv-x="400" 
d="M248 277c63 -11 105 -59 105 -128c0 -89 -71 -156 -166 -156c-72 0 -131 38 -153 97l76 44c13 -34 39 -55 77 -55c43 0 70 26 70 66s-26 64 -70 64c-17 0 -36 -4 -52 -12l-22 47l115 122l-173 1v80h280v-73z" />
    <glyph glyph-name="four.dnom" horiz-adv-x="439" 
d="M407 176v-81h-75v-95h-96v95h-202v81l195 271h103v-271h75zM127 176h109v155z" />
    <glyph glyph-name="five.dnom" horiz-adv-x="399" 
d="M207 296c85 0 145 -59 145 -142c0 -92 -70 -161 -163 -161c-72 0 -134 39 -155 97l76 44c13 -32 42 -55 79 -55c39 0 67 28 67 69c0 40 -27 67 -67 67c-26 0 -45 -12 -56 -37l-75 19l43 250h242v-80h-178l-14 -83c16 8 34 12 56 12z" />
    <glyph glyph-name="six.dnom" horiz-adv-x="396" 
d="M218 287c82 -1 141 -69 141 -145c0 -85 -67 -149 -161 -149c-93 0 -160 64 -160 148c0 42 18 73 44 109l139 197h109zM198 79c35 0 64 27 64 66s-29 64 -64 64s-64 -25 -64 -64s30 -66 64 -66z" />
    <glyph glyph-name="seven.dnom" horiz-adv-x="354" 
d="M56 0l180 367h-212v81h307v-81l-174 -367h-101z" />
    <glyph glyph-name="eight.dnom" horiz-adv-x="426" 
d="M316 234c41 -23 63 -57 63 -101c0 -81 -71 -140 -166 -140c-94 0 -165 59 -165 140c0 44 21 79 62 101c-30 19 -48 56 -48 95c0 73 63 125 151 125c87 0 151 -52 151 -125c0 -38 -19 -75 -48 -95zM213 374c-32 0 -54 -21 -54 -52c0 -30 22 -51 54 -51c31 0 53 21 53 51
c0 31 -22 52 -53 52zM213 73c41 0 70 24 70 59s-28 59 -70 59s-69 -24 -69 -59s27 -59 69 -59z" />
    <glyph glyph-name="nine.dnom" horiz-adv-x="396" 
d="M198 454c94 0 161 -64 161 -148c0 -41 -19 -72 -45 -109l-139 -197h-108l112 160c-83 1 -141 68 -141 145c0 85 67 149 160 149zM198 238c35 0 64 25 64 64s-29 66 -64 66c-34 0 -64 -27 -64 -66s29 -64 64 -64z" />
    <glyph glyph-name="zero.numr" horiz-adv-x="453" 
d="M227 291c-109 0 -182 92 -182 231c0 138 73 230 181 230c109 0 182 -93 182 -230c0 -138 -73 -231 -181 -231zM227 377c54 0 85 54 85 145c0 90 -31 144 -86 144s-86 -53 -86 -144s32 -145 87 -145z" />
    <glyph glyph-name="one.numr" horiz-adv-x="338" 
d="M108 298v366h-84v80l180 1v-447h-96z" />
    <glyph glyph-name="two.numr" horiz-adv-x="388" 
d="M36 298l-1 75l120 123c64 66 84 90 84 119c0 30 -21 51 -53 51c-34 0 -62 -21 -73 -55l-75 44c20 60 80 97 154 97c84 0 143 -50 143 -125c0 -49 -28 -90 -78 -143l-104 -106h187v-80h-304z" />
    <glyph glyph-name="three.numr" horiz-adv-x="400" 
d="M248 575c63 -11 105 -59 105 -128c0 -89 -71 -156 -166 -156c-72 0 -131 38 -153 97l76 44c13 -34 39 -55 77 -55c43 0 70 26 70 66s-26 64 -70 64c-17 0 -36 -4 -52 -12l-22 47l115 122l-173 1v80h280v-73z" />
    <glyph glyph-name="four.numr" horiz-adv-x="439" 
d="M407 474v-81h-75v-95h-96v95h-202v81l195 271h103v-271h75zM127 474h109v155z" />
    <glyph glyph-name="five.numr" horiz-adv-x="399" 
d="M207 594c85 0 145 -59 145 -142c0 -92 -70 -161 -163 -161c-72 0 -134 39 -155 97l76 44c13 -32 42 -55 79 -55c39 0 67 28 67 69c0 40 -27 67 -67 67c-26 0 -45 -12 -56 -37l-75 19l43 250h242v-80h-178l-14 -83c16 8 34 12 56 12z" />
    <glyph glyph-name="six.numr" horiz-adv-x="396" 
d="M218 585c82 -1 141 -69 141 -145c0 -85 -67 -149 -161 -149c-93 0 -160 64 -160 148c0 42 18 73 44 109l139 197h109zM198 377c35 0 64 27 64 66s-29 64 -64 64s-64 -25 -64 -64s30 -66 64 -66z" />
    <glyph glyph-name="seven.numr" horiz-adv-x="354" 
d="M56 297l180 367h-212v81h307v-81l-174 -367h-101z" />
    <glyph glyph-name="eight.numr" horiz-adv-x="426" 
d="M316 532c41 -23 63 -57 63 -101c0 -81 -71 -140 -166 -140c-94 0 -165 59 -165 140c0 44 21 79 62 101c-30 19 -48 56 -48 95c0 73 63 125 151 125c87 0 151 -52 151 -125c0 -38 -19 -75 -48 -95zM213 672c-32 0 -54 -21 -54 -52c0 -30 22 -51 54 -51c31 0 53 21 53 51
c0 31 -22 52 -53 52zM213 371c41 0 70 24 70 59s-28 59 -70 59s-69 -24 -69 -59s27 -59 69 -59z" />
    <glyph glyph-name="nine.numr" horiz-adv-x="396" 
d="M198 752c94 0 161 -64 161 -148c0 -41 -19 -72 -45 -109l-139 -197h-108l112 160c-83 1 -141 68 -141 145c0 85 67 149 160 149zM198 536c35 0 64 25 64 64s-29 66 -64 66c-34 0 -64 -27 -64 -66s29 -64 64 -64z" />
    <glyph glyph-name="uni2070" unicode="&#x2070;" horiz-adv-x="453" 
d="M227 291c-109 0 -182 92 -182 231c0 138 73 230 181 230c109 0 182 -93 182 -230c0 -138 -73 -231 -181 -231zM227 377c54 0 85 54 85 145c0 90 -31 144 -86 144s-86 -53 -86 -144s32 -145 87 -145z" />
    <glyph glyph-name="uni00B9" unicode="&#xb9;" horiz-adv-x="338" 
d="M108 298v366h-84v80l180 1v-447h-96z" />
    <glyph glyph-name="uni00B2" unicode="&#xb2;" horiz-adv-x="388" 
d="M36 298l-1 75l120 123c64 66 84 90 84 119c0 30 -21 51 -53 51c-34 0 -62 -21 -73 -55l-75 44c20 60 80 97 154 97c84 0 143 -50 143 -125c0 -49 -28 -90 -78 -143l-104 -106h187v-80h-304z" />
    <glyph glyph-name="uni00B3" unicode="&#xb3;" horiz-adv-x="400" 
d="M248 575c63 -11 105 -59 105 -128c0 -89 -71 -156 -166 -156c-72 0 -131 38 -153 97l76 44c13 -34 39 -55 77 -55c43 0 70 26 70 66s-26 64 -70 64c-17 0 -36 -4 -52 -12l-22 47l115 122l-173 1v80h280v-73z" />
    <glyph glyph-name="uni2074" unicode="&#x2074;" horiz-adv-x="439" 
d="M407 474v-81h-75v-95h-96v95h-202v81l195 271h103v-271h75zM127 474h109v155z" />
    <glyph glyph-name="uni2075" unicode="&#x2075;" horiz-adv-x="399" 
d="M207 594c85 0 145 -59 145 -142c0 -92 -70 -161 -163 -161c-72 0 -134 39 -155 97l76 44c13 -32 42 -55 79 -55c39 0 67 28 67 69c0 40 -27 67 -67 67c-26 0 -45 -12 -56 -37l-75 19l43 250h242v-80h-178l-14 -83c16 8 34 12 56 12z" />
    <glyph glyph-name="uni2076" unicode="&#x2076;" horiz-adv-x="396" 
d="M218 585c82 -1 141 -69 141 -145c0 -85 -67 -149 -161 -149c-93 0 -160 64 -160 148c0 42 18 73 44 109l139 197h109zM198 377c35 0 64 27 64 66s-29 64 -64 64s-64 -25 -64 -64s30 -66 64 -66z" />
    <glyph glyph-name="uni2077" unicode="&#x2077;" horiz-adv-x="354" 
d="M56 297l180 367h-212v81h307v-81l-174 -367h-101z" />
    <glyph glyph-name="uni2078" unicode="&#x2078;" horiz-adv-x="426" 
d="M316 532c41 -23 63 -57 63 -101c0 -81 -71 -140 -166 -140c-94 0 -165 59 -165 140c0 44 21 79 62 101c-30 19 -48 56 -48 95c0 73 63 125 151 125c87 0 151 -52 151 -125c0 -38 -19 -75 -48 -95zM213 672c-32 0 -54 -21 -54 -52c0 -30 22 -51 54 -51c31 0 53 21 53 51
c0 31 -22 52 -53 52zM213 371c41 0 70 24 70 59s-28 59 -70 59s-69 -24 -69 -59s27 -59 69 -59z" />
    <glyph glyph-name="uni2079" unicode="&#x2079;" horiz-adv-x="396" 
d="M198 752c94 0 161 -64 161 -148c0 -41 -19 -72 -45 -109l-139 -197h-108l112 160c-83 1 -141 68 -141 145c0 85 67 149 160 149zM198 536c35 0 64 25 64 64s-29 66 -64 66c-34 0 -64 -27 -64 -66s29 -64 64 -64z" />
    <glyph glyph-name="fraction" unicode="&#x2044;" horiz-adv-x="207" 
d="M-113 0l334 745h98l-333 -745h-99z" />
    <glyph glyph-name="onehalf" unicode="&#xbd;" horiz-adv-x="933" 
d="M108 298v366h-84v80l180 1v-447h-96zM226 0l333 745h98l-333 -745h-98zM581 0l-1 75l120 123c64 66 84 90 84 119c0 30 -21 51 -53 51c-34 0 -62 -21 -73 -55l-75 44c20 60 80 97 154 97c84 0 143 -50 143 -125c0 -49 -28 -90 -78 -143l-104 -106h187v-80h-304z" />
    <glyph glyph-name="onequarter" unicode="&#xbc;" horiz-adv-x="984" 
d="M108 298v366h-84v80l180 1v-447h-96zM226 0l333 745h98l-333 -745h-98zM952 176v-81h-75v-95h-96v95h-202v81l195 271h103v-271h75zM672 176h109v155z" />
    <glyph glyph-name="threequarters" unicode="&#xbe;" horiz-adv-x="1046" 
d="M353 447c0 -89 -71 -156 -166 -156c-72 0 -131 38 -153 97l76 44c13 -34 39 -55 77 -55c43 0 70 26 70 66s-26 64 -70 64c-17 0 -36 -4 -52 -12l-22 47l115 122l-173 1v80h280v-73l-87 -97c63 -11 105 -59 105 -128zM621 745h98l-333 -745h-98zM939 176h75v-81h-75v-95
h-96v95h-202v81l195 271h103v-271zM843 176v155l-109 -155h109z" />
    <glyph glyph-name="oneeighth" unicode="&#x215b;" horiz-adv-x="971" 
d="M24 664v80l180 1v-447h-96v366h-84zM559 745h98l-333 -745h-98zM861 234c41 -23 63 -57 63 -101c0 -81 -71 -140 -166 -140c-94 0 -165 59 -165 140c0 44 21 79 62 101c-30 19 -48 56 -48 95c0 73 63 125 151 125c87 0 151 -52 151 -125c0 -38 -19 -75 -48 -95zM758 374
c-32 0 -54 -21 -54 -52c0 -30 22 -51 54 -51c31 0 53 21 53 51c0 31 -22 52 -53 52zM758 73c41 0 70 24 70 59s-28 59 -70 59s-69 -24 -69 -59s27 -59 69 -59z" />
    <glyph glyph-name="threeeighths" unicode="&#x215c;" horiz-adv-x="1033" 
d="M353 447c0 -89 -71 -156 -166 -156c-72 0 -131 38 -153 97l76 44c13 -34 39 -55 77 -55c43 0 70 26 70 66s-26 64 -70 64c-17 0 -36 -4 -52 -12l-22 47l115 122l-173 1v80h280v-73l-87 -97c63 -11 105 -59 105 -128zM621 745h98l-333 -745h-98zM923 234
c41 -23 63 -57 63 -101c0 -81 -71 -140 -166 -140c-94 0 -165 59 -165 140c0 44 21 79 62 101c-30 19 -48 56 -48 95c0 73 63 125 151 125c87 0 151 -52 151 -125c0 -38 -19 -75 -48 -95zM820 374c-32 0 -54 -21 -54 -52c0 -30 22 -51 54 -51c31 0 53 21 53 51
c0 31 -22 52 -53 52zM820 73c41 0 70 24 70 59s-28 59 -70 59s-69 -24 -69 -59s27 -59 69 -59z" />
    <glyph glyph-name="fiveeighths" unicode="&#x215d;" horiz-adv-x="1032" 
d="M352 452c0 -92 -70 -161 -163 -161c-72 0 -134 39 -155 97l76 44c13 -32 42 -55 79 -55c39 0 67 28 67 69c0 40 -27 67 -67 67c-26 0 -45 -12 -56 -37l-75 19l43 250h242v-80h-178l-14 -83c16 8 34 12 56 12c85 0 145 -59 145 -142zM620 745h98l-333 -745h-98zM922 234
c41 -23 63 -57 63 -101c0 -81 -71 -140 -166 -140c-94 0 -165 59 -165 140c0 44 21 79 62 101c-30 19 -48 56 -48 95c0 73 63 125 151 125c87 0 151 -52 151 -125c0 -38 -19 -75 -48 -95zM819 374c-32 0 -54 -21 -54 -52c0 -30 22 -51 54 -51c31 0 53 21 53 51
c0 31 -22 52 -53 52zM819 73c41 0 70 24 70 59s-28 59 -70 59s-69 -24 -69 -59s27 -59 69 -59z" />
    <glyph glyph-name="seveneighths" unicode="&#x215e;" horiz-adv-x="987" 
d="M331 745v-81l-174 -367h-101l180 367h-212v81h307zM575 745h98l-333 -745h-98zM877 234c41 -23 63 -57 63 -101c0 -81 -71 -140 -166 -140c-94 0 -165 59 -165 140c0 44 21 79 62 101c-30 19 -48 56 -48 95c0 73 63 125 151 125c87 0 151 -52 151 -125
c0 -38 -19 -75 -48 -95zM774 374c-32 0 -54 -21 -54 -52c0 -30 22 -51 54 -51c31 0 53 21 53 51c0 31 -22 52 -53 52zM774 73c41 0 70 24 70 59s-28 59 -70 59s-69 -24 -69 -59s27 -59 69 -59z" />
    <glyph glyph-name="period" unicode="." horiz-adv-x="284" 
d="M80 0v135h124v-135h-124z" />
    <glyph glyph-name="comma" unicode="," horiz-adv-x="307" 
d="M70 -117l40 252h117l-74 -252h-83z" />
    <glyph glyph-name="colon" unicode=":" horiz-adv-x="284" 
d="M80 403v135h124v-135h-124zM80 0v135h124v-135h-124z" />
    <glyph glyph-name="semicolon" unicode=";" horiz-adv-x="321" 
d="M118 403v135h123v-135h-123zM80 -117l40 252h117l-74 -252h-83z" />
    <glyph glyph-name="ellipsis" unicode="&#x2026;" horiz-adv-x="884" 
d="M80 0v135h124v-135h-124zM380 0v135h124v-135h-124zM680 0v135h124v-135h-124z" />
    <glyph glyph-name="exclam" unicode="!" horiz-adv-x="274" 
d="M83 224l-8 521h124l-8 -521h-108zM75 0v135h124v-135h-124z" />
    <glyph glyph-name="exclamdown" unicode="&#xa1;" horiz-adv-x="274" 
d="M75 538h124v-135h-124v135zM83 314h108l8 -521h-124z" />
    <glyph glyph-name="question" unicode="?" horiz-adv-x="561" 
d="M206 224v18c0 89 48 143 95 189c42 42 84 78 84 129c0 47 -36 83 -105 83c-70 0 -118 -36 -140 -105l-100 55c32 99 126 164 240 164c146 0 231 -96 231 -198c0 -81 -56 -131 -107 -181c-43 -41 -81 -83 -81 -142v-12h-117zM204 0v135h124v-135h-124z" />
    <glyph glyph-name="questiondown" unicode="&#xbf;" horiz-adv-x="561" 
d="M357 757v-135h-123v135h123zM356 533v-18c0 -89 -49 -143 -95 -189c-43 -42 -84 -78 -84 -129c0 -47 36 -83 104 -83c70 0 118 36 140 105l100 -55c-31 -99 -126 -164 -240 -164c-145 0 -231 97 -231 198c0 81 57 131 108 182c42 40 80 82 80 141v12h118z" />
    <glyph glyph-name="periodcentered" unicode="&#xb7;" horiz-adv-x="284" 
d="M80 294v135h124v-135h-124z" />
    <glyph glyph-name="bullet" unicode="&#x2022;" horiz-adv-x="463" 
d="M233 210c-87 0 -153 67 -153 154c0 84 66 150 153 150c85 0 150 -66 150 -150c1 -87 -65 -154 -150 -154z" />
    <glyph glyph-name="asterisk" unicode="*" horiz-adv-x="468" 
d="M158 367l-76 56l75 102l-117 40l30 89l116 -38v129h96v-129l117 38l29 -89l-117 -40l76 -102l-77 -56l-76 102z" />
    <glyph glyph-name="numbersign" unicode="#" horiz-adv-x="787" 
d="M77 0l48 169h-120v107h151l55 193h-120v108h151l49 168h123l-48 -168h172l48 168h124l-48 -168h120v-108h-151l-55 -193h120v-107h-152l-47 -169h-124l48 169h-172l-49 -169h-123zM279 276h173l55 193h-172z" />
    <glyph glyph-name="slash" unicode="/" horiz-adv-x="457" 
d="M-5 0l333 745h134l-333 -745h-134z" />
    <glyph glyph-name="backslash" unicode="\" horiz-adv-x="457" 
d="M328 0l-333 745h134l333 -745h-134z" />
    <glyph glyph-name="parenleft" unicode="(" horiz-adv-x="375" 
d="M253 -165c-111 129 -168 282 -168 456c0 173 56 326 168 454h102c-95 -142 -143 -294 -143 -454c0 -161 48 -315 143 -456h-102z" />
    <glyph glyph-name="parenright" unicode=")" horiz-adv-x="375" 
d="M20 -165c95 141 143 295 143 456c0 160 -48 312 -143 454h103c111 -128 167 -281 167 -454c0 -174 -56 -327 -167 -456h-103z" />
    <glyph glyph-name="braceleft" unicode="{" horiz-adv-x="355" 
d="M291 -165c-108 0 -171 60 -171 157v179c0 38 -19 61 -54 61h-31v108h31c35 0 54 23 54 61v187c0 97 63 157 171 157h44v-107h-44c-30 0 -48 -21 -48 -53v-174c1 -52 -19 -97 -57 -124c37 -24 58 -68 57 -118v-174c0 -32 18 -53 48 -53h44v-107h-44z" />
    <glyph glyph-name="braceright" unicode="}" horiz-adv-x="355" 
d="M20 -165v107h44c30 0 49 21 48 53v174c-1 50 20 94 57 118c-38 27 -58 72 -57 124v174c1 32 -18 53 -48 53h-44v107h44c108 0 172 -60 172 -157v-187c0 -38 18 -61 54 -61h30v-108h-30c-36 0 -54 -23 -54 -61v-179c0 -97 -64 -157 -172 -157h-44z" />
    <glyph glyph-name="bracketleft" unicode="[" horiz-adv-x="375" 
d="M85 -165v910h250v-107h-126v-696h126v-107h-250z" />
    <glyph glyph-name="bracketright" unicode="]" horiz-adv-x="375" 
d="M40 -165v107h126v696h-126v107h250v-910h-250z" />
    <glyph glyph-name="hyphen" unicode="-" horiz-adv-x="553" 
d="M70 215v108h413v-108h-413z" />
    <glyph glyph-name="uni00AD" unicode="&#xad;" horiz-adv-x="553" 
d="M70 215v108h413v-108h-413z" />
    <glyph glyph-name="endash" unicode="&#x2013;" horiz-adv-x="610" 
d="M70 215v108h470v-108h-470z" />
    <glyph glyph-name="emdash" unicode="&#x2014;" horiz-adv-x="891" 
d="M70 215v108h751v-108h-751z" />
    <glyph glyph-name="underscore" unicode="_" horiz-adv-x="461" 
d="M471 0v-108h-481v108h481z" />
    <glyph glyph-name="quotesinglbase" unicode="&#x201a;" horiz-adv-x="307" 
d="M70 -130l40 265h117l-74 -265h-83z" />
    <glyph glyph-name="quotedblbase" unicode="&#x201e;" horiz-adv-x="507" 
d="M70 -130l40 265h117l-74 -265h-83zM270 -130l40 265h117l-74 -265h-83z" />
    <glyph glyph-name="quotedblleft" unicode="&#x201c;" horiz-adv-x="507" 
d="M70 480l73 265h84l-41 -265h-116zM270 480l73 265h84l-41 -265h-116z" />
    <glyph glyph-name="quotedblright" unicode="&#x201d;" horiz-adv-x="507" 
d="M70 480l40 265h117l-74 -265h-83zM270 480l40 265h117l-74 -265h-83z" />
    <glyph glyph-name="quoteleft" unicode="&#x2018;" horiz-adv-x="307" 
d="M70 480l73 265h84l-41 -265h-116z" />
    <glyph glyph-name="quoteright" unicode="&#x2019;" horiz-adv-x="307" 
d="M70 480l40 265h117l-74 -265h-83z" />
    <glyph glyph-name="guillemotleft" unicode="&#xab;" horiz-adv-x="666" 
d="M193 73l-153 196l153 196h136l-152 -196l152 -196h-136zM471 73l-153 196l153 196h135l-152 -196l152 -196h-135z" />
    <glyph glyph-name="guillemotright" unicode="&#xbb;" horiz-adv-x="666" 
d="M60 73l152 196l-152 196h136l153 -196l-153 -196h-136zM338 73l152 196l-152 196h135l153 -196l-153 -196h-135z" />
    <glyph glyph-name="guilsinglleft" unicode="&#x2039;" horiz-adv-x="389" 
d="M193 73l-153 196l153 196h136l-152 -196l152 -196h-136z" />
    <glyph glyph-name="guilsinglright" unicode="&#x203a;" horiz-adv-x="389" 
d="M196 73h-136l152 196l-152 196h136l153 -196z" />
    <glyph glyph-name="quotedbl" unicode="&#x22;" horiz-adv-x="473" 
d="M80 480v265h111v-265h-111zM281 480v265h112v-265h-112z" />
    <glyph glyph-name="quotesingle" unicode="'" horiz-adv-x="271" 
d="M80 480v265h111v-265h-111z" />
    <glyph glyph-name="uni00A0" unicode="&#xa0;" horiz-adv-x="176" 
 />
    <glyph glyph-name="cent" unicode="&#xa2;" horiz-adv-x="563" 
d="M337 102c50 10 88 44 105 92l104 -52c-30 -81 -110 -141 -209 -152v-121h-89v124c-129 26 -220 136 -220 277s91 250 220 275v124h89v-121c99 -11 179 -71 209 -152l-104 -52c-17 48 -55 82 -105 92v-334zM153 269c0 -76 37 -136 95 -159v318c-58 -23 -95 -82 -95 -159z
" />
    <glyph glyph-name="currency" unicode="&#xa4;" horiz-adv-x="646" 
d="M139 14l-71 71l78 78c-19 31 -30 67 -30 106c0 38 11 74 30 105l-78 79l71 71l79 -78c31 19 67 30 105 30s74 -11 106 -30l78 78l71 -71l-78 -79c19 -31 30 -67 30 -105c0 -39 -11 -75 -30 -106l78 -78l-71 -71l-78 78c-31 -19 -67 -30 -106 -30c-37 0 -74 10 -105 30z
M323 172c53 0 97 43 97 97s-44 98 -97 98c-54 0 -98 -44 -98 -98s44 -97 98 -97z" />
    <glyph glyph-name="dollar" unicode="$" horiz-adv-x="640" 
d="M603 204c0 -116 -86 -198 -218 -213v-91h-89v90c-128 15 -229 96 -263 204l108 49c29 -77 87 -126 155 -140v216l-56 17c-123 37 -183 111 -183 207c0 122 96 207 239 214v93h89v-100c105 -22 183 -92 214 -178l-109 -50c-19 55 -56 94 -105 112v-216l32 -10
c123 -38 186 -104 186 -204zM276 451l20 -6v200c-68 -5 -112 -44 -112 -96c0 -46 32 -80 92 -98zM385 104c57 12 91 47 91 91c0 51 -31 78 -90 96h-1v-187z" />
    <glyph glyph-name="Euro" unicode="&#x20ac;" horiz-adv-x="804" 
d="M483 102c81 0 145 50 172 134l112 -54c-41 -120 -150 -194 -284 -194c-157 0 -278 102 -320 258h-135l25 89h95c-1 12 -1 25 -1 38v23h-83l25 89h70c38 165 160 272 324 272c135 0 243 -74 284 -194l-112 -54c-27 84 -91 134 -172 134c-90 0 -162 -62 -193 -158h278
l-25 -89h-269c-1 -8 -1 -15 -1 -23c0 -13 1 -26 2 -38h257l-25 -89h-213c33 -89 102 -144 189 -144z" />
    <glyph glyph-name="florin" unicode="&#x192;" horiz-adv-x="614" 
d="M507 757c23 0 58 -5 79 -12l-21 -103c-13 4 -37 8 -51 8c-48 0 -82 -25 -93 -75l-52 -247h137v-106h-159l-46 -221c-23 -111 -102 -170 -204 -170c-23 0 -59 4 -80 11l22 104c13 -4 33 -8 51 -8c48 0 82 25 92 75l44 209h-148v106h170l55 259c23 111 102 170 204 170z
" />
    <glyph glyph-name="lira" unicode="&#x20a4;" horiz-adv-x="802" 
d="M383 227v-119h326v-108h-570v108h120v119h-130l8 89h122v80h-118l7 89h111v33c0 143 98 239 245 239c117 0 209 -62 243 -164l-101 -55c-22 68 -73 105 -142 105c-77 0 -121 -45 -121 -125v-33h213l-8 -89h-205v-80h201l-7 -89h-194z" />
    <glyph glyph-name="sterling" unicode="&#xa3;" horiz-adv-x="783" 
d="M369 317v-209h325v-108h-569v108h120v209h-144l25 89h119v112c0 143 97 239 244 239c117 0 210 -62 243 -164l-100 -55c-22 68 -73 105 -143 105c-76 0 -120 -45 -120 -125v-112h237l-25 -89h-212z" />
    <glyph glyph-name="yen" unicode="&#xa5;" horiz-adv-x="657" 
d="M645 745l-229 -373h191v-89h-214v-61h214v-89h-214v-133h-127v133h-200v89h200v61h-200v89h176l-229 373h141l175 -288l174 288h142z" />
    <glyph glyph-name="uni2219" unicode="&#x2219;" horiz-adv-x="511" 
d="M257 183c-100 0 -177 77 -177 177c0 98 77 175 177 175c98 0 174 -77 174 -175c1 -100 -76 -177 -174 -177z" />
    <glyph glyph-name="uni2215" unicode="&#x2215;" horiz-adv-x="441" 
d="M-5 0l333 745h134l-333 -745h-134z" />
    <glyph glyph-name="plus" unicode="+" horiz-adv-x="610" 
d="M252 139v170h-169v106h169v169h107v-169h169v-106h-169v-170h-107z" />
    <glyph glyph-name="minus" unicode="&#x2212;" horiz-adv-x="660" 
d="M108 309v106h445v-106h-445z" />
    <glyph glyph-name="multiply" unicode="&#xd7;" horiz-adv-x="598" 
d="M157 146l-74 75l141 142l-141 140l75 75l141 -140l140 140l76 -75l-141 -140l141 -142l-75 -75l-141 141z" />
    <glyph glyph-name="divide" unicode="&#xf7;" horiz-adv-x="667" 
d="M272 517v135h124v-135h-124zM88 309v106h491v-106h-491zM272 73v135h124v-135h-124z" />
    <glyph glyph-name="equal" unicode="=" horiz-adv-x="641" 
d="M108 429v106h426v-106h-426zM108 189v106h426v-106h-426z" />
    <glyph glyph-name="notequal" unicode="&#x2260;" horiz-adv-x="641" 
d="M534 429h-142l-36 -134h178v-106h-206l-27 -100h-101l27 100h-119v106h147l36 134h-183v106h211l27 100h101l-27 -100h114v-106z" />
    <glyph glyph-name="greater" unicode="&#x3e;" horiz-adv-x="543" 
d="M57 0v125l300 144l-300 145v125l450 -211v-118z" />
    <glyph glyph-name="less" unicode="&#x3c;" horiz-adv-x="563" 
d="M507 0l-450 210v118l450 211v-125l-301 -145l301 -144v-125z" />
    <glyph glyph-name="greaterequal" unicode="&#x2265;" horiz-adv-x="591" 
d="M80 189v125l301 144l-301 145v124l451 -210v-118zM57 0v101h497v-101h-497z" />
    <glyph glyph-name="lessequal" unicode="&#x2264;" horiz-adv-x="611" 
d="M530 189l-450 210v118l450 210v-124l-301 -145l301 -144v-125zM57 0v101h497v-101h-497z" />
    <glyph glyph-name="plusminus" unicode="&#xb1;" horiz-adv-x="610" 
d="M252 180v170h-169v106h169v169h107v-169h169v-106h-169v-170h-107zM83 0v103h445v-103h-445z" />
    <glyph glyph-name="approxequal" unicode="&#x2248;" horiz-adv-x="713" 
d="M108 394v100c39 43 97 62 152 62c95 0 118 -58 203 -58c46 0 101 18 143 59v-99c-38 -43 -92 -63 -146 -63c-99 0 -122 58 -209 58c-47 0 -102 -17 -143 -59zM108 166v99c39 43 95 63 152 63c95 0 118 -58 203 -58c46 0 101 17 143 59v-100c-38 -43 -92 -62 -146 -62
c-99 0 -122 58 -209 58c-47 0 -102 -18 -143 -59z" />
    <glyph glyph-name="asciitilde" unicode="~" horiz-adv-x="683" 
d="M439 279c-91 0 -119 67 -176 67c-33 0 -55 -21 -60 -62h-100c7 108 59 165 146 165c90 0 118 -66 175 -66c30 0 50 17 57 62h100c-8 -109 -57 -166 -142 -166z" />
    <glyph glyph-name="logicalnot" unicode="&#xac;" horiz-adv-x="620" 
d="M426 165v144h-338v106h445v-250h-107z" />
    <glyph glyph-name="asciicircum" unicode="^" horiz-adv-x="621" 
d="M539 421h-135l-93 178l-93 -178h-135l170 324h116z" />
    <glyph glyph-name="infinity" unicode="&#x221e;" horiz-adv-x="833" 
d="M279 178c-100 0 -181 82 -181 182c0 101 81 182 181 182c55 0 105 -25 138 -63c32 39 83 63 137 63c100 0 181 -82 181 -182s-81 -182 -181 -182c-54 0 -105 24 -137 64c-33 -39 -83 -64 -138 -64zM279 268c51 0 93 42 93 92c0 51 -42 93 -93 93c-50 0 -92 -42 -92 -93
c0 -50 42 -92 92 -92zM554 268c50 0 92 42 92 92c0 51 -43 93 -92 93c-51 0 -93 -42 -93 -93c0 -50 42 -92 93 -92z" />
    <glyph glyph-name="integral" unicode="&#x222b;" horiz-adv-x="422" 
d="M68 -200c-15 0 -37 2 -51 5v104c13 -2 26 -3 38 -3c56 0 91 28 91 84v577c0 122 79 190 198 190c15 0 37 -2 50 -5v-104c-12 2 -25 3 -37 3c-56 0 -91 -28 -91 -84v-577c0 -122 -79 -190 -198 -190z" />
    <glyph glyph-name="product" unicode="&#x220f;" horiz-adv-x="853" 
d="M203 0v634h-148v111h743v-111h-146v-634h-127v634h-195v-634h-127z" />
    <glyph glyph-name="summation" unicode="&#x2211;" horiz-adv-x="545" 
d="M44 0v84l186 289l-186 288v84h468v-107h-328l165 -265l-165 -265h328v-108h-468z" />
    <glyph glyph-name="radical" unicode="&#x221a;" horiz-adv-x="814" 
d="M234 0l-156 362h110l94 -216l247 599h208v-107h-138l-269 -638h-96z" />
    <glyph glyph-name="uni00B5" unicode="&#xb5;" horiz-adv-x="565" 
d="M48 -200v738h116v-340c0 -67 39 -102 98 -102c47 0 92 14 129 40v402h116v-538h-116v30c-41 -26 -93 -42 -144 -42c-29 0 -59 6 -83 18v-206h-116z" />
    <glyph glyph-name="partialdiff" unicode="&#x2202;" horiz-adv-x="593" 
d="M198 818c222 0 381 -203 381 -485c0 -209 -101 -345 -282 -345c-162 0 -283 120 -283 282c0 160 124 280 286 280c39 0 77 -7 118 -22c-27 112 -123 183 -232 183c-35 0 -71 -8 -108 -24l-14 105c39 18 84 26 134 26zM297 99c84 0 153 62 152 195c0 27 -1 63 -5 106
c-41 25 -91 39 -137 39c-107 0 -168 -62 -168 -170c0 -102 63 -170 158 -170z" />
    <glyph glyph-name="percent" unicode="%" horiz-adv-x="1053" 
d="M273 387c-102 0 -185 83 -185 185s82 185 185 185c102 0 184 -83 184 -185s-83 -185 -184 -185zM295 0l333 745h121l-333 -745h-121zM273 488c46 0 84 38 84 84s-38 84 -84 84c-47 0 -84 -38 -84 -84s37 -84 84 -84zM780 -12c-102 0 -184 82 -184 185
c0 102 82 184 184 184c103 0 185 -82 185 -184c0 -103 -82 -185 -185 -185zM780 89c47 0 84 37 84 84c0 46 -37 84 -84 84c-46 0 -84 -38 -84 -84c0 -47 38 -84 84 -84z" />
    <glyph glyph-name="perthousand" unicode="&#x2030;" horiz-adv-x="1237" 
d="M273 387c-102 0 -185 83 -185 185s82 185 185 185c102 0 184 -83 184 -185s-83 -185 -184 -185zM964 388c-102 0 -184 82 -184 185c0 101 82 184 184 184c103 0 185 -83 185 -184c0 -103 -82 -185 -185 -185zM295 0l333 745h121l-333 -745h-121zM964 488
c47 0 84 38 84 85c0 45 -37 84 -84 84c-46 0 -84 -39 -84 -84c0 -47 38 -85 84 -85zM273 488c46 0 84 38 84 84s-38 84 -84 84c-47 0 -84 -38 -84 -84s37 -84 84 -84zM780 -12c-102 0 -184 82 -184 185c0 102 82 184 184 184c103 0 185 -82 185 -184
c0 -103 -82 -185 -185 -185zM780 89c47 0 84 37 84 84c0 46 -37 84 -84 84c-46 0 -84 -38 -84 -84c0 -47 38 -84 84 -84z" />
    <glyph glyph-name="lozenge" unicode="&#x25ca;" horiz-adv-x="661" 
d="M606 373l-231 -373h-89l-231 373l231 372h89zM331 120l158 253l-158 252l-159 -252z" />
    <glyph glyph-name="uniF8FF" unicode="&#xf8ff;" horiz-adv-x="600" 
d="M50 400v100h100v-2l-98 -98h-2zM250 400v100h100v-100h-100zM50 200v100h100v-100h-100zM250 200v100h100v-100h-100zM450 200v100h100v-100h-100zM250 0v100h100v-100h-100z" />
    <glyph glyph-name="at" unicode="@" horiz-adv-x="942" 
d="M472 757c241 0 429 -185 429 -424c0 -145 -71 -237 -183 -237c-64 0 -118 32 -136 82c-28 -35 -80 -55 -137 -55c-113 0 -206 90 -206 215c0 124 94 217 206 217c57 0 107 -21 131 -56v46h98v-282c0 -44 20 -72 50 -72c43 0 68 54 68 142c0 196 -129 328 -320 328
c-190 0 -322 -135 -322 -328c0 -191 134 -329 322 -329c63 0 120 15 168 45l44 -84c-60 -38 -134 -57 -212 -57c-245 0 -431 184 -431 425c0 240 187 424 431 424zM458 215c67 0 118 54 118 125c0 69 -50 120 -118 122c-69 2 -121 -51 -121 -124c0 -70 52 -123 121 -123z
" />
    <glyph glyph-name="ampersand" unicode="&#x26;" horiz-adv-x="868" 
d="M786 0h-145l-94 100c-74 -77 -144 -112 -235 -112c-138 0 -229 80 -229 200c0 91 48 159 157 212l17 9c-51 59 -74 108 -74 161c0 105 89 187 205 187c113 0 199 -77 199 -180c0 -80 -51 -131 -166 -191l129 -137l100 106h124l-157 -177zM291 571c0 -34 20 -67 63 -114h1
c93 46 124 78 124 121c0 47 -39 82 -91 82c-55 0 -97 -39 -97 -89zM321 89c60 0 103 28 157 84l-154 164l-26 -13c-59 -29 -92 -73 -92 -129c0 -65 45 -106 115 -106z" />
    <glyph glyph-name="paragraph" unicode="&#xb6;" horiz-adv-x="438" 
d="M40 537c0 122 87 208 211 208h127v-845h-127v429c-124 0 -211 85 -211 208z" />
    <glyph glyph-name="section" unicode="&#xa7;" horiz-adv-x="626" 
d="M538 358c0 -48 -21 -87 -69 -113c49 -29 69 -68 69 -115c0 -96 -84 -163 -207 -163c-114 0 -205 58 -238 152l93 44c27 -62 79 -97 145 -97c53 0 89 24 89 61c0 30 -23 49 -72 62l-91 25c-92 25 -142 78 -142 153c0 48 20 87 67 115c-48 28 -67 67 -67 113
c0 97 81 162 201 162c105 0 189 -52 222 -139l-93 -43c-21 51 -68 81 -129 81c-51 0 -82 -22 -82 -56c0 -28 19 -47 65 -60l96 -27c94 -27 143 -81 143 -155zM363 289c41 7 67 32 67 64s-26 55 -79 69l-57 15c-44 -7 -70 -31 -70 -64c0 -32 26 -52 72 -66z" />
    <glyph glyph-name="copyright" unicode="&#xa9;" horiz-adv-x="945" 
d="M473 -12c-214 0 -385 172 -385 386c0 211 170 383 385 383c212 0 384 -171 384 -383c0 -214 -172 -386 -384 -386zM473 77c164 0 295 130 295 297c0 164 -131 295 -295 295c-166 0 -297 -132 -297 -295c0 -167 131 -297 297 -297zM476 175c-110 0 -194 85 -194 198
c0 114 83 197 194 197c84 0 147 -45 167 -103l-78 -38c-12 35 -44 62 -89 62c-65 0 -107 -48 -107 -118s43 -119 107 -119c46 0 78 29 89 62l78 -38c-20 -58 -83 -103 -167 -103z" />
    <glyph glyph-name="registered" unicode="&#xae;" horiz-adv-x="945" 
d="M473 757c212 0 384 -171 384 -383c0 -214 -172 -386 -384 -386c-214 0 -385 172 -385 386c0 211 170 383 385 383zM473 77c164 0 295 130 295 297c0 164 -131 295 -295 295c-166 0 -297 -132 -297 -295c0 -167 131 -297 297 -297zM630 448c0 -53 -25 -89 -64 -108
l87 -152h-99l-76 137h-61v-137h-88v383h164c79 0 137 -41 137 -123zM417 495v-93h77c29 0 48 18 48 46s-19 47 -48 47h-77z" />
    <glyph glyph-name="trademark" unicode="&#x2122;" horiz-adv-x="1152" 
d="M83 646v99h374v-99h-130v-423h-113v423h-131zM960 745h110v-522h-113v331l-157 -200h-15l-156 208v-339h-112v522h110l165 -217z" />
    <glyph glyph-name="degree" unicode="&#xb0;" horiz-adv-x="507" 
d="M253 426c-91 0 -165 73 -165 165s74 166 165 166c92 0 166 -74 166 -166s-74 -165 -166 -165zM253 511c44 0 80 36 80 80s-36 80 -80 80s-79 -36 -79 -80s35 -80 79 -80z" />
    <glyph glyph-name="bar" unicode="|" horiz-adv-x="359" 
d="M118 -190v1035h123v-1035h-123z" />
    <glyph glyph-name="brokenbar" unicode="&#xa6;" horiz-adv-x="359" 
d="M118 469v376h123v-376h-123zM118 -190v376h123v-376h-123z" />
    <glyph glyph-name="dagger" unicode="&#x2020;" horiz-adv-x="715" 
d="M296 -195v626h-208v107h208v207h123v-207h209v-107h-209v-626h-123z" />
    <glyph glyph-name="uni2113" unicode="&#x2113;" horiz-adv-x="569" 
d="M326 -6c-77 0 -138 44 -176 119c-53 -24 -98 -38 -119 -43l-24 107c31 8 70 21 111 40c-7 31 -10 65 -10 103c0 225 111 402 258 402c98 0 179 -80 179 -198c0 -162 -149 -284 -286 -360c16 -42 43 -67 78 -67c45 0 84 40 93 91l109 -12c-18 -106 -111 -182 -213 -182z
M244 287c92 60 176 141 176 236c0 47 -22 89 -59 89c-60 0 -113 -104 -121 -242c-1 -29 1 -57 4 -83z" />
    <glyph glyph-name="daggerdbl" unicode="&#x2021;" horiz-adv-x="715" 
d="M296 -195v207h-208v108h208v311h-208v107h208v207h123v-207h209v-107h-209v-311h209v-108h-209v-207h-123z" />
    <glyph glyph-name="estimated" unicode="&#x212e;" horiz-adv-x="805" 
d="M411 -10c-228 0 -383 161 -383 359c0 200 159 361 380 361s380 -161 380 -360v-9h-609c-3 0 -5 -3 -5 -6v-195c0 -9 0 -11 10 -22c52 -60 117 -106 227 -106c108 0 172 44 236 117h58c-70 -83 -150 -139 -294 -139zM179 360h458c3 0 4 3 4 6v196c0 4 0 14 -10 24
c-61 64 -114 102 -223 102s-174 -48 -223 -105c-11 -13 -11 -14 -11 -24v-193c0 -3 2 -6 5 -6z" />
    <glyph glyph-name="uni0308" unicode="&#x308;" 
d="M-288 640c-40 0 -71 31 -71 71c0 38 31 70 71 70c38 0 70 -32 70 -70c0 -40 -32 -71 -70 -71zM-90 640c-40 0 -71 31 -71 71c0 39 32 70 71 70s70 -32 70 -70c0 -40 -32 -71 -70 -71z" />
    <glyph glyph-name="uni0307" unicode="&#x307;" 
d="M-90 640c-40 0 -71 31 -71 71c0 38 31 70 71 70c38 0 70 -32 70 -70c0 -40 -32 -71 -70 -71z" />
    <glyph glyph-name="gravecomb" unicode="&#x300;" 
d="M-20 640h-88l-94 158h112z" />
    <glyph glyph-name="acutecomb" unicode="&#x301;" 
d="M-202 640l71 158h111l-94 -158h-88z" />
    <glyph glyph-name="uni030B" unicode="&#x30b;" 
d="M-367 640l71 158h111l-94 -158h-88zM-203 640l70 158h113l-95 -158h-88z" />
    <glyph glyph-name="uni030C.alt" 
d="M-129 481l-24 264h133l-24 -264h-85z" />
    <glyph glyph-name="uni0302" unicode="&#x302;" 
d="M-243 797h105l118 -157h-94l-76 105l-74 -105h-96z" />
    <glyph glyph-name="uni030C" unicode="&#x30c;" 
d="M-243 640l-117 157h96l74 -105l76 105h94l-118 -157h-105z" />
    <glyph glyph-name="uni0306" unicode="&#x306;" 
d="M-170 640c-84 0 -151 65 -151 144h80c0 -39 33 -71 71 -71s70 32 70 71h80c0 -80 -67 -144 -150 -144z" />
    <glyph glyph-name="uni030A" unicode="&#x30a;" 
d="M-132 640c-64 0 -112 48 -112 105c0 60 48 107 112 107s112 -48 112 -107c0 -56 -48 -105 -112 -105zM-132 704c25 0 44 19 44 42s-19 41 -44 41s-44 -18 -44 -41s19 -42 44 -42z" />
    <glyph glyph-name="tildecomb" unicode="&#x303;" 
d="M-139 640c-65 0 -95 46 -136 46c-17 0 -31 -9 -35 -39h-85c7 89 70 120 118 120c59 0 97 -45 136 -45c18 0 34 10 36 38h85c-7 -79 -57 -120 -119 -120z" />
    <glyph glyph-name="uni0304" unicode="&#x304;" 
d="M-274 640v83h254v-83h-254z" />
    <glyph glyph-name="uni0326" unicode="&#x326;" 
d="M-223 -240l69 190h134l-118 -190h-85z" />
    <glyph glyph-name="uni0327" unicode="&#x327;" 
d="M-144 -209c-37 0 -84 11 -126 47l34 58c18 -19 50 -33 83 -33c32 0 55 18 55 49c0 33 -29 68 -107 91l46 21c91 -20 139 -69 139 -131c0 -70 -61 -102 -124 -102z" />
    <glyph glyph-name="uni0328" unicode="&#x328;" 
d="M-146 -202c-63 0 -124 32 -124 101c0 63 54 112 150 131l36 -21c-79 -23 -108 -58 -108 -91c0 -30 22 -48 57 -48c33 0 63 13 81 32l34 -58c-39 -33 -81 -46 -126 -46z" />
    <glyph glyph-name="uni0335" unicode="&#x335;" 
d="M-449 270v108h429v-108h-429z" />
    <glyph glyph-name="uni0335.alt" 
d="M-349 272v103h329v-103h-329z" />
    <glyph glyph-name="uni0336" unicode="&#x336;" 
d="M-720 272v103h700v-103h-700z" />
    <glyph glyph-name="dieresis" unicode="&#xa8;" horiz-adv-x="379" 
d="M91 640c-40 0 -71 31 -71 71c0 38 31 70 71 70c38 0 70 -32 70 -70c0 -40 -32 -71 -70 -71zM289 640c-40 0 -71 31 -71 71c0 39 32 70 71 70s70 -32 70 -70c0 -40 -32 -71 -70 -71z" />
    <glyph glyph-name="dotaccent" unicode="&#x2d9;" horiz-adv-x="181" 
d="M91 640c-40 0 -71 31 -71 71c0 38 31 70 71 70c38 0 70 -32 70 -70c0 -40 -32 -71 -70 -71z" />
    <glyph glyph-name="grave" unicode="`" horiz-adv-x="222" 
d="M202 640h-88l-94 158h112z" />
    <glyph glyph-name="acute" unicode="&#xb4;" horiz-adv-x="222" 
d="M20 640l71 158h111l-94 -158h-88z" />
    <glyph glyph-name="hungarumlaut" unicode="&#x2dd;" horiz-adv-x="387" 
d="M20 640l71 158h111l-94 -158h-88zM184 640l70 158h113l-95 -158h-88z" />
    <glyph glyph-name="circumflex" unicode="&#x2c6;" horiz-adv-x="380" 
d="M137 797h105l118 -157h-94l-76 105l-74 -105h-96z" />
    <glyph glyph-name="caron" unicode="&#x2c7;" horiz-adv-x="380" 
d="M137 640l-117 157h96l74 -105l76 105h94l-118 -157h-105z" />
    <glyph glyph-name="breve" unicode="&#x2d8;" horiz-adv-x="341" 
d="M171 640c-84 0 -151 65 -151 144h80c0 -39 33 -71 71 -71s70 32 70 71h80c0 -80 -67 -144 -150 -144z" />
    <glyph glyph-name="ring" unicode="&#x2da;" horiz-adv-x="264" 
d="M132 640c-64 0 -112 48 -112 105c0 60 48 107 112 107s112 -48 112 -107c0 -56 -48 -105 -112 -105zM132 704c25 0 44 19 44 42s-19 41 -44 41s-44 -18 -44 -41s19 -42 44 -42z" />
    <glyph glyph-name="tilde" unicode="&#x2dc;" horiz-adv-x="415" 
d="M276 640c-65 0 -95 46 -136 46c-17 0 -31 -9 -35 -39h-85c7 89 70 120 118 120c59 0 97 -45 136 -45c18 0 34 10 36 38h85c-7 -79 -57 -120 -119 -120z" />
    <glyph glyph-name="macron" unicode="&#xaf;" horiz-adv-x="294" 
d="M20 640v83h254v-83h-254z" />
    <glyph glyph-name="cedilla" unicode="&#xb8;" horiz-adv-x="290" 
d="M146 -209c-37 0 -84 11 -126 47l34 58c18 -19 50 -33 83 -33c32 0 55 18 55 49c0 33 -29 68 -107 91l46 21c91 -20 139 -69 139 -131c0 -70 -61 -102 -124 -102z" />
    <glyph glyph-name="ogonek" unicode="&#x2db;" horiz-adv-x="290" 
d="M144 -202c-63 0 -124 32 -124 101c0 63 54 112 150 131l36 -21c-79 -23 -108 -58 -108 -91c0 -30 22 -48 57 -48c33 0 63 13 81 32l34 -58c-39 -33 -81 -46 -126 -46z" />
    </font>
</defs>
</svg>
