<svg  viewBox="0 0 11 11" fill="none" xmlns="http://www.w3.org/2000/svg">
<path fill-rule="evenodd" clip-rule="evenodd" d="M10.5736 0.180772C11.026 0.497519 11.136 1.12106 10.8193 1.57348L4.78403 10.1939C4.78371 10.1944 4.7834 10.1948 4.78308 10.1953C4.61302 10.4392 4.38754 10.6392 4.12515 10.7791C3.86227 10.9192 3.56986 10.9948 3.27203 10.9997C2.97419 11.0046 2.67945 10.9387 2.41208 10.8074C2.14522 10.6763 1.91325 10.4838 1.73522 10.2457C1.73489 10.2452 1.73455 10.2448 1.73422 10.2443L0.200126 8.19937C-0.131294 7.75758 -0.0418216 7.13077 0.399969 6.79935C0.84176 6.46793 1.46857 6.5574 1.79999 6.99919L3.2376 8.91555L9.18087 0.426444C9.49761 -0.0259832 10.1212 -0.135974 10.5736 0.180772ZM3.3371 9.0482L3.33676 9.04774Z" fill="white"/>
</svg>
